%TF.GenerationSoftware,KiCad,Pcbnew,5.0.2+dfsg1-1~bpo9+1*%
%TF.CreationDate,2019-05-08T05:56:57+00:00*%
%TF.ProjectId,coinPCB,636f696e-5043-4422-9e6b-696361645f70,v0.2*%
%TF.SameCoordinates,Original*%
%TF.FileFunction,Soldermask,Top*%
%TF.FilePolarity,Negative*%
%FSLAX46Y46*%
G04 Gerber Fmt 4.6, Leading zero omitted, Abs format (unit mm)*
G04 Created by KiCad (PCBNEW 5.0.2+dfsg1-1~bpo9+1) date Wed 08 May 2019 05:56:57 AM UTC*
%MOMM*%
%LPD*%
G01*
G04 APERTURE LIST*
%ADD10C,0.150000*%
G04 APERTURE END LIST*
D10*
X166751000Y-102870000D02*
G75*
G03X166751000Y-102870000I-25400000J0D01*
G01*
G36*
X141281000Y-122152877D02*
X141283402Y-122177263D01*
X141290515Y-122200712D01*
X141302066Y-122222323D01*
X141317612Y-122241265D01*
X141336554Y-122256811D01*
X141358165Y-122268362D01*
X141381614Y-122275475D01*
X141406000Y-122277877D01*
X141430386Y-122275475D01*
X141453835Y-122268362D01*
X141475446Y-122256811D01*
X141494388Y-122241265D01*
X141509934Y-122222323D01*
X141521485Y-122200712D01*
X141557573Y-122113588D01*
X141688901Y-121917042D01*
X141856042Y-121749901D01*
X142052588Y-121618573D01*
X142270974Y-121528115D01*
X142502809Y-121482000D01*
X142739191Y-121482000D01*
X142971026Y-121528115D01*
X143189412Y-121618573D01*
X143385958Y-121749901D01*
X143553099Y-121917042D01*
X143684427Y-122113588D01*
X143774885Y-122331974D01*
X143821000Y-122563809D01*
X143821000Y-122800191D01*
X143774885Y-123032026D01*
X143684427Y-123250412D01*
X143553099Y-123446958D01*
X143385958Y-123614099D01*
X143189412Y-123745427D01*
X142971026Y-123835885D01*
X142739191Y-123882000D01*
X142502809Y-123882000D01*
X142270974Y-123835885D01*
X142052588Y-123745427D01*
X141856042Y-123614099D01*
X141688901Y-123446958D01*
X141557573Y-123250412D01*
X141521485Y-123163288D01*
X141509934Y-123141677D01*
X141494388Y-123122735D01*
X141475446Y-123107189D01*
X141453835Y-123095638D01*
X141430386Y-123088525D01*
X141406000Y-123086123D01*
X141381614Y-123088525D01*
X141358165Y-123095638D01*
X141336554Y-123107189D01*
X141317612Y-123122735D01*
X141302066Y-123141677D01*
X141290515Y-123163288D01*
X141283402Y-123186737D01*
X141281000Y-123211123D01*
X141281000Y-123882000D01*
X138881000Y-123882000D01*
X138881000Y-121482000D01*
X141281000Y-121482000D01*
X141281000Y-122152877D01*
X141281000Y-122152877D01*
G37*
G36*
X136787521Y-121816586D02*
X136951309Y-121884429D01*
X137098720Y-121982926D01*
X137224074Y-122108280D01*
X137322571Y-122255691D01*
X137390414Y-122419479D01*
X137425000Y-122593356D01*
X137425000Y-122770644D01*
X137390414Y-122944521D01*
X137322571Y-123108309D01*
X137224074Y-123255720D01*
X137098720Y-123381074D01*
X136951309Y-123479571D01*
X136787521Y-123547414D01*
X136613644Y-123582000D01*
X136436356Y-123582000D01*
X136262479Y-123547414D01*
X136098691Y-123479571D01*
X135951280Y-123381074D01*
X135825926Y-123255720D01*
X135727429Y-123108309D01*
X135659586Y-122944521D01*
X135625000Y-122770644D01*
X135625000Y-122593356D01*
X135659586Y-122419479D01*
X135727429Y-122255691D01*
X135825926Y-122108280D01*
X135951280Y-121982926D01*
X136098691Y-121884429D01*
X136262479Y-121816586D01*
X136436356Y-121782000D01*
X136613644Y-121782000D01*
X136787521Y-121816586D01*
X136787521Y-121816586D01*
G37*
G36*
X136701432Y-114175022D02*
X136871081Y-114226485D01*
X137027433Y-114310056D01*
X137164475Y-114422525D01*
X137276944Y-114559567D01*
X137360515Y-114715919D01*
X137411978Y-114885568D01*
X137429354Y-115062000D01*
X137411978Y-115238432D01*
X137360515Y-115408081D01*
X137276944Y-115564433D01*
X137164475Y-115701475D01*
X137027433Y-115813944D01*
X136871081Y-115897515D01*
X136701432Y-115948978D01*
X136569211Y-115962000D01*
X136480789Y-115962000D01*
X136348568Y-115948978D01*
X136178919Y-115897515D01*
X136022567Y-115813944D01*
X135885525Y-115701475D01*
X135773056Y-115564433D01*
X135689485Y-115408081D01*
X135638022Y-115238432D01*
X135620646Y-115062000D01*
X135638022Y-114885568D01*
X135689485Y-114715919D01*
X135773056Y-114559567D01*
X135885525Y-114422525D01*
X136022567Y-114310056D01*
X136178919Y-114226485D01*
X136348568Y-114175022D01*
X136480789Y-114162000D01*
X136569211Y-114162000D01*
X136701432Y-114175022D01*
X136701432Y-114175022D01*
G37*
G36*
X154117000Y-111654000D02*
X151917000Y-111654000D01*
X151917000Y-109454000D01*
X154117000Y-109454000D01*
X154117000Y-111654000D01*
X154117000Y-111654000D01*
G37*
G36*
X131257000Y-111654000D02*
X129057000Y-111654000D01*
X129057000Y-109454000D01*
X131257000Y-109454000D01*
X131257000Y-111654000D01*
X131257000Y-111654000D01*
G37*
G36*
X126627521Y-109815086D02*
X126791309Y-109882929D01*
X126938720Y-109981426D01*
X127064074Y-110106780D01*
X127162571Y-110254191D01*
X127230414Y-110417979D01*
X127265000Y-110591856D01*
X127265000Y-110769144D01*
X127230414Y-110943021D01*
X127162571Y-111106809D01*
X127064074Y-111254220D01*
X126938720Y-111379574D01*
X126791309Y-111478071D01*
X126627521Y-111545914D01*
X126453644Y-111580500D01*
X126276356Y-111580500D01*
X126102479Y-111545914D01*
X125938691Y-111478071D01*
X125791280Y-111379574D01*
X125665926Y-111254220D01*
X125567429Y-111106809D01*
X125499586Y-110943021D01*
X125465000Y-110769144D01*
X125465000Y-110591856D01*
X125499586Y-110417979D01*
X125567429Y-110254191D01*
X125665926Y-110106780D01*
X125791280Y-109981426D01*
X125938691Y-109882929D01*
X126102479Y-109815086D01*
X126276356Y-109780500D01*
X126453644Y-109780500D01*
X126627521Y-109815086D01*
X126627521Y-109815086D01*
G37*
G36*
X153232639Y-106929916D02*
X153439986Y-106992815D01*
X153439988Y-106992816D01*
X153631084Y-107094958D01*
X153798581Y-107232419D01*
X153936042Y-107399916D01*
X154038184Y-107591012D01*
X154101084Y-107798362D01*
X154122322Y-108014000D01*
X154101084Y-108229638D01*
X154038184Y-108436988D01*
X153936042Y-108628084D01*
X153798581Y-108795581D01*
X153631084Y-108933042D01*
X153439988Y-109035184D01*
X153439986Y-109035185D01*
X153232639Y-109098084D01*
X153071038Y-109114000D01*
X152962962Y-109114000D01*
X152801361Y-109098084D01*
X152594014Y-109035185D01*
X152594012Y-109035184D01*
X152402916Y-108933042D01*
X152235419Y-108795581D01*
X152097958Y-108628084D01*
X151995816Y-108436988D01*
X151932916Y-108229638D01*
X151911678Y-108014000D01*
X151932916Y-107798362D01*
X151995816Y-107591012D01*
X152097958Y-107399916D01*
X152235419Y-107232419D01*
X152402916Y-107094958D01*
X152594012Y-106992816D01*
X152594014Y-106992815D01*
X152801361Y-106929916D01*
X152962962Y-106914000D01*
X153071038Y-106914000D01*
X153232639Y-106929916D01*
X153232639Y-106929916D01*
G37*
G36*
X130372639Y-106929916D02*
X130579986Y-106992815D01*
X130579988Y-106992816D01*
X130771084Y-107094958D01*
X130938581Y-107232419D01*
X131076042Y-107399916D01*
X131178184Y-107591012D01*
X131241084Y-107798362D01*
X131262322Y-108014000D01*
X131241084Y-108229638D01*
X131178184Y-108436988D01*
X131076042Y-108628084D01*
X130938581Y-108795581D01*
X130771084Y-108933042D01*
X130579988Y-109035184D01*
X130579986Y-109035185D01*
X130372639Y-109098084D01*
X130211038Y-109114000D01*
X130102962Y-109114000D01*
X129941361Y-109098084D01*
X129734014Y-109035185D01*
X129734012Y-109035184D01*
X129542916Y-108933042D01*
X129375419Y-108795581D01*
X129237958Y-108628084D01*
X129135816Y-108436988D01*
X129072916Y-108229638D01*
X129051678Y-108014000D01*
X129072916Y-107798362D01*
X129135816Y-107591012D01*
X129237958Y-107399916D01*
X129375419Y-107232419D01*
X129542916Y-107094958D01*
X129734012Y-106992816D01*
X129734014Y-106992815D01*
X129941361Y-106929916D01*
X130102962Y-106914000D01*
X130211038Y-106914000D01*
X130372639Y-106929916D01*
X130372639Y-106929916D01*
G37*
G36*
X142047000Y-106614000D02*
X140147000Y-106614000D01*
X140147000Y-104714000D01*
X142047000Y-104714000D01*
X142047000Y-106614000D01*
X142047000Y-106614000D01*
G37*
G36*
X162812888Y-104491470D02*
X162993274Y-104527350D01*
X163184362Y-104606502D01*
X163356336Y-104721411D01*
X163502589Y-104867664D01*
X163617498Y-105039638D01*
X163696650Y-105230726D01*
X163737000Y-105433584D01*
X163737000Y-105640416D01*
X163696650Y-105843274D01*
X163617498Y-106034362D01*
X163502589Y-106206336D01*
X163356336Y-106352589D01*
X163184362Y-106467498D01*
X162993274Y-106546650D01*
X162812888Y-106582530D01*
X162790417Y-106587000D01*
X162583583Y-106587000D01*
X162561112Y-106582530D01*
X162380726Y-106546650D01*
X162189638Y-106467498D01*
X162017664Y-106352589D01*
X161871411Y-106206336D01*
X161756502Y-106034362D01*
X161677350Y-105843274D01*
X161637000Y-105640416D01*
X161637000Y-105433584D01*
X161677350Y-105230726D01*
X161756502Y-105039638D01*
X161871411Y-104867664D01*
X162017664Y-104721411D01*
X162189638Y-104606502D01*
X162380726Y-104527350D01*
X162561112Y-104491470D01*
X162583583Y-104487000D01*
X162790417Y-104487000D01*
X162812888Y-104491470D01*
X162812888Y-104491470D01*
G37*
G36*
X153232639Y-104389916D02*
X153439986Y-104452815D01*
X153439988Y-104452816D01*
X153631084Y-104554958D01*
X153798581Y-104692419D01*
X153936042Y-104859916D01*
X154038184Y-105051012D01*
X154038185Y-105051014D01*
X154101084Y-105258361D01*
X154122322Y-105474000D01*
X154101084Y-105689639D01*
X154054479Y-105843274D01*
X154038184Y-105896988D01*
X153936042Y-106088084D01*
X153798581Y-106255581D01*
X153631084Y-106393042D01*
X153491787Y-106467497D01*
X153439986Y-106495185D01*
X153232639Y-106558084D01*
X153071038Y-106574000D01*
X152962962Y-106574000D01*
X152801361Y-106558084D01*
X152594014Y-106495185D01*
X152542213Y-106467497D01*
X152402916Y-106393042D01*
X152235419Y-106255581D01*
X152097958Y-106088084D01*
X151995816Y-105896988D01*
X151979522Y-105843274D01*
X151932916Y-105689639D01*
X151911678Y-105474000D01*
X151932916Y-105258361D01*
X151995815Y-105051014D01*
X151995816Y-105051012D01*
X152097958Y-104859916D01*
X152235419Y-104692419D01*
X152402916Y-104554958D01*
X152594012Y-104452816D01*
X152594014Y-104452815D01*
X152801361Y-104389916D01*
X152962962Y-104374000D01*
X153071038Y-104374000D01*
X153232639Y-104389916D01*
X153232639Y-104389916D01*
G37*
G36*
X130372639Y-104389916D02*
X130579986Y-104452815D01*
X130579988Y-104452816D01*
X130771084Y-104554958D01*
X130938581Y-104692419D01*
X131076042Y-104859916D01*
X131178184Y-105051012D01*
X131178185Y-105051014D01*
X131241084Y-105258361D01*
X131262322Y-105474000D01*
X131241084Y-105689639D01*
X131194479Y-105843274D01*
X131178184Y-105896988D01*
X131076042Y-106088084D01*
X130938581Y-106255581D01*
X130771084Y-106393042D01*
X130631787Y-106467497D01*
X130579986Y-106495185D01*
X130372639Y-106558084D01*
X130211038Y-106574000D01*
X130102962Y-106574000D01*
X129941361Y-106558084D01*
X129734014Y-106495185D01*
X129682213Y-106467497D01*
X129542916Y-106393042D01*
X129375419Y-106255581D01*
X129237958Y-106088084D01*
X129135816Y-105896988D01*
X129119522Y-105843274D01*
X129072916Y-105689639D01*
X129051678Y-105474000D01*
X129072916Y-105258361D01*
X129135815Y-105051014D01*
X129135816Y-105051012D01*
X129237958Y-104859916D01*
X129375419Y-104692419D01*
X129542916Y-104554958D01*
X129734012Y-104452816D01*
X129734014Y-104452815D01*
X129941361Y-104389916D01*
X130102962Y-104374000D01*
X130211038Y-104374000D01*
X130372639Y-104389916D01*
X130372639Y-104389916D01*
G37*
G36*
X120648888Y-102967470D02*
X120829274Y-103003350D01*
X121020362Y-103082502D01*
X121192336Y-103197411D01*
X121338589Y-103343664D01*
X121453498Y-103515638D01*
X121532650Y-103706726D01*
X121573000Y-103909584D01*
X121573000Y-104116416D01*
X121532650Y-104319274D01*
X121453498Y-104510362D01*
X121338589Y-104682336D01*
X121192336Y-104828589D01*
X121020362Y-104943498D01*
X120829274Y-105022650D01*
X120648888Y-105058530D01*
X120626417Y-105063000D01*
X120419583Y-105063000D01*
X120397112Y-105058530D01*
X120216726Y-105022650D01*
X120025638Y-104943498D01*
X119853664Y-104828589D01*
X119707411Y-104682336D01*
X119592502Y-104510362D01*
X119513350Y-104319274D01*
X119473000Y-104116416D01*
X119473000Y-103909584D01*
X119513350Y-103706726D01*
X119592502Y-103515638D01*
X119707411Y-103343664D01*
X119853664Y-103197411D01*
X120025638Y-103082502D01*
X120216726Y-103003350D01*
X120397112Y-102967470D01*
X120419583Y-102963000D01*
X120626417Y-102963000D01*
X120648888Y-102967470D01*
X120648888Y-102967470D01*
G37*
G36*
X141227825Y-102181411D02*
X141374105Y-102210508D01*
X141546994Y-102282121D01*
X141702590Y-102386087D01*
X141834913Y-102518410D01*
X141938879Y-102674006D01*
X142010492Y-102846895D01*
X142047000Y-103030433D01*
X142047000Y-103217567D01*
X142010492Y-103401105D01*
X141938879Y-103573994D01*
X141834913Y-103729590D01*
X141702590Y-103861913D01*
X141546994Y-103965879D01*
X141374105Y-104037492D01*
X141236452Y-104064873D01*
X141190568Y-104074000D01*
X141003432Y-104074000D01*
X140957548Y-104064873D01*
X140819895Y-104037492D01*
X140647006Y-103965879D01*
X140491410Y-103861913D01*
X140359087Y-103729590D01*
X140255121Y-103573994D01*
X140183508Y-103401105D01*
X140147000Y-103217567D01*
X140147000Y-103030433D01*
X140183508Y-102846895D01*
X140255121Y-102674006D01*
X140359087Y-102518410D01*
X140491410Y-102386087D01*
X140647006Y-102282121D01*
X140819895Y-102210508D01*
X140966175Y-102181411D01*
X141003432Y-102174000D01*
X141190568Y-102174000D01*
X141227825Y-102181411D01*
X141227825Y-102181411D01*
G37*
G36*
X162812888Y-101951470D02*
X162993274Y-101987350D01*
X163184362Y-102066502D01*
X163356336Y-102181411D01*
X163502589Y-102327664D01*
X163617498Y-102499638D01*
X163696650Y-102690726D01*
X163727713Y-102846895D01*
X163735108Y-102884069D01*
X163737000Y-102893584D01*
X163737000Y-103100416D01*
X163696650Y-103303274D01*
X163617498Y-103494362D01*
X163502589Y-103666336D01*
X163356336Y-103812589D01*
X163184362Y-103927498D01*
X162993274Y-104006650D01*
X162812888Y-104042530D01*
X162790417Y-104047000D01*
X162583583Y-104047000D01*
X162561112Y-104042530D01*
X162380726Y-104006650D01*
X162189638Y-103927498D01*
X162017664Y-103812589D01*
X161871411Y-103666336D01*
X161756502Y-103494362D01*
X161677350Y-103303274D01*
X161637000Y-103100416D01*
X161637000Y-102893584D01*
X161638893Y-102884069D01*
X161646287Y-102846895D01*
X161677350Y-102690726D01*
X161756502Y-102499638D01*
X161871411Y-102327664D01*
X162017664Y-102181411D01*
X162189638Y-102066502D01*
X162380726Y-101987350D01*
X162561112Y-101951470D01*
X162583583Y-101947000D01*
X162790417Y-101947000D01*
X162812888Y-101951470D01*
X162812888Y-101951470D01*
G37*
G36*
X130372639Y-101849916D02*
X130579986Y-101912815D01*
X130579988Y-101912816D01*
X130771084Y-102014958D01*
X130938581Y-102152419D01*
X131076042Y-102319916D01*
X131178184Y-102511012D01*
X131178185Y-102511014D01*
X131241084Y-102718361D01*
X131262322Y-102934000D01*
X131241084Y-103149639D01*
X131194479Y-103303274D01*
X131178184Y-103356988D01*
X131076042Y-103548084D01*
X130938581Y-103715581D01*
X130771084Y-103853042D01*
X130631787Y-103927497D01*
X130579986Y-103955185D01*
X130372639Y-104018084D01*
X130211038Y-104034000D01*
X130102962Y-104034000D01*
X129941361Y-104018084D01*
X129734014Y-103955185D01*
X129682213Y-103927497D01*
X129542916Y-103853042D01*
X129375419Y-103715581D01*
X129237958Y-103548084D01*
X129135816Y-103356988D01*
X129119522Y-103303274D01*
X129072916Y-103149639D01*
X129051678Y-102934000D01*
X129072916Y-102718361D01*
X129135815Y-102511014D01*
X129135816Y-102511012D01*
X129237958Y-102319916D01*
X129375419Y-102152419D01*
X129542916Y-102014958D01*
X129734012Y-101912816D01*
X129734014Y-101912815D01*
X129941361Y-101849916D01*
X130102962Y-101834000D01*
X130211038Y-101834000D01*
X130372639Y-101849916D01*
X130372639Y-101849916D01*
G37*
G36*
X153232639Y-101849916D02*
X153439986Y-101912815D01*
X153439988Y-101912816D01*
X153631084Y-102014958D01*
X153798581Y-102152419D01*
X153936042Y-102319916D01*
X154038184Y-102511012D01*
X154038185Y-102511014D01*
X154101084Y-102718361D01*
X154122322Y-102934000D01*
X154101084Y-103149639D01*
X154054479Y-103303274D01*
X154038184Y-103356988D01*
X153936042Y-103548084D01*
X153798581Y-103715581D01*
X153631084Y-103853042D01*
X153491787Y-103927497D01*
X153439986Y-103955185D01*
X153232639Y-104018084D01*
X153071038Y-104034000D01*
X152962962Y-104034000D01*
X152801361Y-104018084D01*
X152594014Y-103955185D01*
X152542213Y-103927497D01*
X152402916Y-103853042D01*
X152235419Y-103715581D01*
X152097958Y-103548084D01*
X151995816Y-103356988D01*
X151979522Y-103303274D01*
X151932916Y-103149639D01*
X151911678Y-102934000D01*
X151932916Y-102718361D01*
X151995815Y-102511014D01*
X151995816Y-102511012D01*
X152097958Y-102319916D01*
X152235419Y-102152419D01*
X152402916Y-102014958D01*
X152594012Y-101912816D01*
X152594014Y-101912815D01*
X152801361Y-101849916D01*
X152962962Y-101834000D01*
X153071038Y-101834000D01*
X153232639Y-101849916D01*
X153232639Y-101849916D01*
G37*
G36*
X126541432Y-102173522D02*
X126711081Y-102224985D01*
X126867433Y-102308556D01*
X127004475Y-102421025D01*
X127116944Y-102558067D01*
X127200515Y-102714419D01*
X127251978Y-102884068D01*
X127269354Y-103060500D01*
X127251978Y-103236932D01*
X127200515Y-103406581D01*
X127116944Y-103562933D01*
X127004475Y-103699975D01*
X126867433Y-103812444D01*
X126711081Y-103896015D01*
X126541432Y-103947478D01*
X126409211Y-103960500D01*
X126320789Y-103960500D01*
X126188568Y-103947478D01*
X126018919Y-103896015D01*
X125862567Y-103812444D01*
X125725525Y-103699975D01*
X125613056Y-103562933D01*
X125529485Y-103406581D01*
X125478022Y-103236932D01*
X125460646Y-103060500D01*
X125478022Y-102884068D01*
X125529485Y-102714419D01*
X125613056Y-102558067D01*
X125725525Y-102421025D01*
X125862567Y-102308556D01*
X126018919Y-102224985D01*
X126188568Y-102173522D01*
X126320789Y-102160500D01*
X126409211Y-102160500D01*
X126541432Y-102173522D01*
X126541432Y-102173522D01*
G37*
G36*
X121573000Y-102523000D02*
X119473000Y-102523000D01*
X119473000Y-100423000D01*
X121573000Y-100423000D01*
X121573000Y-102523000D01*
X121573000Y-102523000D01*
G37*
G36*
X141236451Y-99643127D02*
X141374105Y-99670508D01*
X141546994Y-99742121D01*
X141702590Y-99846087D01*
X141834913Y-99978410D01*
X141938879Y-100134006D01*
X142010492Y-100306895D01*
X142047000Y-100490433D01*
X142047000Y-100677567D01*
X142010492Y-100861105D01*
X141938879Y-101033994D01*
X141834913Y-101189590D01*
X141702590Y-101321913D01*
X141546994Y-101425879D01*
X141374105Y-101497492D01*
X141236451Y-101524873D01*
X141190568Y-101534000D01*
X141003432Y-101534000D01*
X140957549Y-101524873D01*
X140819895Y-101497492D01*
X140647006Y-101425879D01*
X140491410Y-101321913D01*
X140359087Y-101189590D01*
X140255121Y-101033994D01*
X140183508Y-100861105D01*
X140147000Y-100677567D01*
X140147000Y-100490433D01*
X140183508Y-100306895D01*
X140255121Y-100134006D01*
X140359087Y-99978410D01*
X140491410Y-99846087D01*
X140647006Y-99742121D01*
X140819895Y-99670508D01*
X140957548Y-99643127D01*
X141003432Y-99634000D01*
X141190568Y-99634000D01*
X141236451Y-99643127D01*
X141236451Y-99643127D01*
G37*
G36*
X163712000Y-101532000D02*
X161612000Y-101532000D01*
X161612000Y-99432000D01*
X163712000Y-99432000D01*
X163712000Y-101532000D01*
X163712000Y-101532000D01*
G37*
G36*
X130372639Y-99309916D02*
X130579986Y-99372815D01*
X130579988Y-99372816D01*
X130771084Y-99474958D01*
X130938581Y-99612419D01*
X131076042Y-99779916D01*
X131178184Y-99971012D01*
X131178185Y-99971014D01*
X131241084Y-100178361D01*
X131262322Y-100394000D01*
X131241084Y-100609639D01*
X131220478Y-100677568D01*
X131178184Y-100816988D01*
X131076042Y-101008084D01*
X130938581Y-101175581D01*
X130771084Y-101313042D01*
X130579988Y-101415184D01*
X130579986Y-101415185D01*
X130372639Y-101478084D01*
X130211038Y-101494000D01*
X130102962Y-101494000D01*
X129941361Y-101478084D01*
X129734014Y-101415185D01*
X129734012Y-101415184D01*
X129542916Y-101313042D01*
X129375419Y-101175581D01*
X129237958Y-101008084D01*
X129135816Y-100816988D01*
X129093523Y-100677568D01*
X129072916Y-100609639D01*
X129051678Y-100394000D01*
X129072916Y-100178361D01*
X129135815Y-99971014D01*
X129135816Y-99971012D01*
X129237958Y-99779916D01*
X129375419Y-99612419D01*
X129542916Y-99474958D01*
X129734012Y-99372816D01*
X129734014Y-99372815D01*
X129941361Y-99309916D01*
X130102962Y-99294000D01*
X130211038Y-99294000D01*
X130372639Y-99309916D01*
X130372639Y-99309916D01*
G37*
G36*
X153232639Y-99309916D02*
X153439986Y-99372815D01*
X153439988Y-99372816D01*
X153631084Y-99474958D01*
X153798581Y-99612419D01*
X153936042Y-99779916D01*
X154038184Y-99971012D01*
X154038185Y-99971014D01*
X154101084Y-100178361D01*
X154122322Y-100394000D01*
X154101084Y-100609639D01*
X154080478Y-100677568D01*
X154038184Y-100816988D01*
X153936042Y-101008084D01*
X153798581Y-101175581D01*
X153631084Y-101313042D01*
X153439988Y-101415184D01*
X153439986Y-101415185D01*
X153232639Y-101478084D01*
X153071038Y-101494000D01*
X152962962Y-101494000D01*
X152801361Y-101478084D01*
X152594014Y-101415185D01*
X152594012Y-101415184D01*
X152402916Y-101313042D01*
X152235419Y-101175581D01*
X152097958Y-101008084D01*
X151995816Y-100816988D01*
X151953523Y-100677568D01*
X151932916Y-100609639D01*
X151911678Y-100394000D01*
X151932916Y-100178361D01*
X151995815Y-99971014D01*
X151995816Y-99971012D01*
X152097958Y-99779916D01*
X152235419Y-99612419D01*
X152402916Y-99474958D01*
X152594012Y-99372816D01*
X152594014Y-99372815D01*
X152801361Y-99309916D01*
X152962962Y-99294000D01*
X153071038Y-99294000D01*
X153232639Y-99309916D01*
X153232639Y-99309916D01*
G37*
G36*
X141236452Y-97103127D02*
X141374105Y-97130508D01*
X141546994Y-97202121D01*
X141702590Y-97306087D01*
X141834913Y-97438410D01*
X141938879Y-97594006D01*
X142010492Y-97766895D01*
X142047000Y-97950433D01*
X142047000Y-98137567D01*
X142010492Y-98321105D01*
X141938879Y-98493994D01*
X141834913Y-98649590D01*
X141702590Y-98781913D01*
X141546994Y-98885879D01*
X141374105Y-98957492D01*
X141236451Y-98984873D01*
X141190568Y-98994000D01*
X141003432Y-98994000D01*
X140957549Y-98984873D01*
X140819895Y-98957492D01*
X140647006Y-98885879D01*
X140491410Y-98781913D01*
X140359087Y-98649590D01*
X140255121Y-98493994D01*
X140183508Y-98321105D01*
X140147000Y-98137567D01*
X140147000Y-97950433D01*
X140183508Y-97766895D01*
X140255121Y-97594006D01*
X140359087Y-97438410D01*
X140491410Y-97306087D01*
X140647006Y-97202121D01*
X140819895Y-97130508D01*
X140957549Y-97103127D01*
X141003432Y-97094000D01*
X141190568Y-97094000D01*
X141236452Y-97103127D01*
X141236452Y-97103127D01*
G37*
G36*
X153232639Y-96769916D02*
X153439986Y-96832815D01*
X153439988Y-96832816D01*
X153631084Y-96934958D01*
X153798581Y-97072419D01*
X153936042Y-97239916D01*
X153978847Y-97320000D01*
X154038185Y-97431014D01*
X154101084Y-97638361D01*
X154122322Y-97854000D01*
X154101084Y-98069639D01*
X154080478Y-98137568D01*
X154038184Y-98276988D01*
X153936042Y-98468084D01*
X153798581Y-98635581D01*
X153631084Y-98773042D01*
X153439988Y-98875184D01*
X153439986Y-98875185D01*
X153232639Y-98938084D01*
X153071038Y-98954000D01*
X152962962Y-98954000D01*
X152801361Y-98938084D01*
X152594014Y-98875185D01*
X152594012Y-98875184D01*
X152402916Y-98773042D01*
X152235419Y-98635581D01*
X152097958Y-98468084D01*
X151995816Y-98276988D01*
X151953523Y-98137568D01*
X151932916Y-98069639D01*
X151911678Y-97854000D01*
X151932916Y-97638361D01*
X151995815Y-97431014D01*
X152055153Y-97320000D01*
X152097958Y-97239916D01*
X152235419Y-97072419D01*
X152402916Y-96934958D01*
X152594012Y-96832816D01*
X152594014Y-96832815D01*
X152801361Y-96769916D01*
X152962962Y-96754000D01*
X153071038Y-96754000D01*
X153232639Y-96769916D01*
X153232639Y-96769916D01*
G37*
G36*
X130372639Y-96769916D02*
X130579986Y-96832815D01*
X130579988Y-96832816D01*
X130771084Y-96934958D01*
X130938581Y-97072419D01*
X131076042Y-97239916D01*
X131118847Y-97320000D01*
X131178185Y-97431014D01*
X131241084Y-97638361D01*
X131262322Y-97854000D01*
X131241084Y-98069639D01*
X131220478Y-98137568D01*
X131178184Y-98276988D01*
X131076042Y-98468084D01*
X130938581Y-98635581D01*
X130771084Y-98773042D01*
X130579988Y-98875184D01*
X130579986Y-98875185D01*
X130372639Y-98938084D01*
X130211038Y-98954000D01*
X130102962Y-98954000D01*
X129941361Y-98938084D01*
X129734014Y-98875185D01*
X129734012Y-98875184D01*
X129542916Y-98773042D01*
X129375419Y-98635581D01*
X129237958Y-98468084D01*
X129135816Y-98276988D01*
X129093523Y-98137568D01*
X129072916Y-98069639D01*
X129051678Y-97854000D01*
X129072916Y-97638361D01*
X129135815Y-97431014D01*
X129195153Y-97320000D01*
X129237958Y-97239916D01*
X129375419Y-97072419D01*
X129542916Y-96934958D01*
X129734012Y-96832816D01*
X129734014Y-96832815D01*
X129941361Y-96769916D01*
X130102962Y-96754000D01*
X130211038Y-96754000D01*
X130372639Y-96769916D01*
X130372639Y-96769916D01*
G37*
G36*
X122926649Y-94457717D02*
X122965827Y-94461576D01*
X123041228Y-94484449D01*
X123116629Y-94507321D01*
X123255608Y-94581608D01*
X123377422Y-94681578D01*
X123477392Y-94803392D01*
X123551679Y-94942371D01*
X123597424Y-95093174D01*
X123612870Y-95250000D01*
X123597424Y-95406826D01*
X123551679Y-95557629D01*
X123493659Y-95666176D01*
X123484281Y-95688815D01*
X123479501Y-95712849D01*
X123479501Y-95737353D01*
X123484281Y-95761386D01*
X123493659Y-95784025D01*
X123507273Y-95804400D01*
X123524600Y-95821727D01*
X123544974Y-95835341D01*
X123567613Y-95844719D01*
X123591647Y-95849499D01*
X123616151Y-95849499D01*
X123640184Y-95844719D01*
X123662824Y-95835341D01*
X123771371Y-95777321D01*
X123880739Y-95744145D01*
X123922173Y-95731576D01*
X123961351Y-95727717D01*
X124039705Y-95720000D01*
X124118295Y-95720000D01*
X124196649Y-95727717D01*
X124235827Y-95731576D01*
X124261506Y-95739366D01*
X124285536Y-95744145D01*
X124310041Y-95744145D01*
X124334074Y-95739364D01*
X124356713Y-95729987D01*
X124377088Y-95716373D01*
X124394415Y-95699046D01*
X124408028Y-95678671D01*
X124417406Y-95656032D01*
X124422186Y-95631999D01*
X124422186Y-95607494D01*
X124417405Y-95583461D01*
X124408028Y-95560822D01*
X124406321Y-95557629D01*
X124360576Y-95406826D01*
X124345130Y-95250000D01*
X124360576Y-95093174D01*
X124406321Y-94942371D01*
X124480608Y-94803392D01*
X124580578Y-94681578D01*
X124702392Y-94581608D01*
X124841371Y-94507321D01*
X124916772Y-94484449D01*
X124992173Y-94461576D01*
X125031351Y-94457717D01*
X125109705Y-94450000D01*
X125588295Y-94450000D01*
X125666649Y-94457717D01*
X125705827Y-94461576D01*
X125781228Y-94484449D01*
X125856629Y-94507321D01*
X125995608Y-94581608D01*
X126117422Y-94681578D01*
X126217392Y-94803392D01*
X126291679Y-94942371D01*
X126337424Y-95093174D01*
X126352870Y-95250000D01*
X126337424Y-95406826D01*
X126291679Y-95557629D01*
X126217392Y-95696608D01*
X126117422Y-95818422D01*
X125995608Y-95918392D01*
X125856629Y-95992679D01*
X125781228Y-96015551D01*
X125705827Y-96038424D01*
X125689693Y-96040013D01*
X125588295Y-96050000D01*
X125109705Y-96050000D01*
X125008307Y-96040013D01*
X124992173Y-96038424D01*
X124966494Y-96030634D01*
X124942464Y-96025855D01*
X124917959Y-96025855D01*
X124893926Y-96030636D01*
X124871287Y-96040013D01*
X124850912Y-96053627D01*
X124833585Y-96070954D01*
X124819972Y-96091329D01*
X124810594Y-96113968D01*
X124805814Y-96138001D01*
X124805814Y-96162506D01*
X124810595Y-96186539D01*
X124819972Y-96209178D01*
X124821679Y-96212371D01*
X124821679Y-96212372D01*
X124858934Y-96335184D01*
X124867424Y-96363174D01*
X124882870Y-96520000D01*
X124867424Y-96676826D01*
X124821679Y-96827629D01*
X124747392Y-96966608D01*
X124647422Y-97088422D01*
X124525608Y-97188392D01*
X124386629Y-97262679D01*
X124311228Y-97285551D01*
X124235827Y-97308424D01*
X124196649Y-97312283D01*
X124118295Y-97320000D01*
X124039705Y-97320000D01*
X123961351Y-97312283D01*
X123922173Y-97308424D01*
X123846772Y-97285551D01*
X123771371Y-97262679D01*
X123632392Y-97188392D01*
X123510578Y-97088422D01*
X123410608Y-96966608D01*
X123336321Y-96827629D01*
X123290576Y-96676826D01*
X123275130Y-96520000D01*
X123290576Y-96363174D01*
X123299067Y-96335184D01*
X123336321Y-96212372D01*
X123336321Y-96212371D01*
X123394341Y-96103824D01*
X123403719Y-96081185D01*
X123408499Y-96057151D01*
X123408499Y-96032647D01*
X123403719Y-96008614D01*
X123394341Y-95985975D01*
X123380727Y-95965600D01*
X123363400Y-95948273D01*
X123343026Y-95934659D01*
X123320387Y-95925281D01*
X123296353Y-95920501D01*
X123271849Y-95920501D01*
X123247816Y-95925281D01*
X123225176Y-95934659D01*
X123116629Y-95992679D01*
X123041228Y-96015551D01*
X122965827Y-96038424D01*
X122949693Y-96040013D01*
X122848295Y-96050000D01*
X122769705Y-96050000D01*
X122668307Y-96040013D01*
X122652173Y-96038424D01*
X122576772Y-96015551D01*
X122501371Y-95992679D01*
X122362392Y-95918392D01*
X122240578Y-95818422D01*
X122140608Y-95696608D01*
X122066321Y-95557629D01*
X122020576Y-95406826D01*
X122005130Y-95250000D01*
X122020576Y-95093174D01*
X122066321Y-94942371D01*
X122140608Y-94803392D01*
X122240578Y-94681578D01*
X122362392Y-94581608D01*
X122501371Y-94507321D01*
X122576772Y-94484449D01*
X122652173Y-94461576D01*
X122691351Y-94457717D01*
X122769705Y-94450000D01*
X122848295Y-94450000D01*
X122926649Y-94457717D01*
X122926649Y-94457717D01*
G37*
G36*
X153232639Y-94229916D02*
X153439986Y-94292815D01*
X153439988Y-94292816D01*
X153631084Y-94394958D01*
X153798581Y-94532419D01*
X153936042Y-94699916D01*
X154038184Y-94891012D01*
X154038185Y-94891014D01*
X154101084Y-95098361D01*
X154122322Y-95314000D01*
X154101084Y-95529639D01*
X154043338Y-95720000D01*
X154038184Y-95736988D01*
X153936042Y-95928084D01*
X153798581Y-96095581D01*
X153631084Y-96233042D01*
X153439988Y-96335184D01*
X153439986Y-96335185D01*
X153232639Y-96398084D01*
X153071038Y-96414000D01*
X152962962Y-96414000D01*
X152801361Y-96398084D01*
X152594014Y-96335185D01*
X152594012Y-96335184D01*
X152402916Y-96233042D01*
X152235419Y-96095581D01*
X152097958Y-95928084D01*
X151995816Y-95736988D01*
X151990663Y-95720000D01*
X151932916Y-95529639D01*
X151911678Y-95314000D01*
X151932916Y-95098361D01*
X151995815Y-94891014D01*
X151995816Y-94891012D01*
X152097958Y-94699916D01*
X152235419Y-94532419D01*
X152402916Y-94394958D01*
X152594012Y-94292816D01*
X152594014Y-94292815D01*
X152801361Y-94229916D01*
X152962962Y-94214000D01*
X153071038Y-94214000D01*
X153232639Y-94229916D01*
X153232639Y-94229916D01*
G37*
G36*
X130372639Y-94229916D02*
X130579986Y-94292815D01*
X130579988Y-94292816D01*
X130771084Y-94394958D01*
X130938581Y-94532419D01*
X131076042Y-94699916D01*
X131178184Y-94891012D01*
X131178185Y-94891014D01*
X131241084Y-95098361D01*
X131262322Y-95314000D01*
X131241084Y-95529639D01*
X131183338Y-95720000D01*
X131178184Y-95736988D01*
X131076042Y-95928084D01*
X130938581Y-96095581D01*
X130771084Y-96233042D01*
X130579988Y-96335184D01*
X130579986Y-96335185D01*
X130372639Y-96398084D01*
X130211038Y-96414000D01*
X130102962Y-96414000D01*
X129941361Y-96398084D01*
X129734014Y-96335185D01*
X129734012Y-96335184D01*
X129542916Y-96233042D01*
X129375419Y-96095581D01*
X129237958Y-95928084D01*
X129135816Y-95736988D01*
X129130663Y-95720000D01*
X129072916Y-95529639D01*
X129051678Y-95314000D01*
X129072916Y-95098361D01*
X129135815Y-94891014D01*
X129135816Y-94891012D01*
X129237958Y-94699916D01*
X129375419Y-94532419D01*
X129542916Y-94394958D01*
X129734012Y-94292816D01*
X129734014Y-94292815D01*
X129941361Y-94229916D01*
X130102962Y-94214000D01*
X130211038Y-94214000D01*
X130372639Y-94229916D01*
X130372639Y-94229916D01*
G37*
G36*
X153232639Y-91689916D02*
X153439986Y-91752815D01*
X153439988Y-91752816D01*
X153631084Y-91854958D01*
X153798581Y-91992419D01*
X153936042Y-92159916D01*
X154038184Y-92351012D01*
X154101084Y-92558362D01*
X154122322Y-92774000D01*
X154101084Y-92989638D01*
X154038184Y-93196988D01*
X153936042Y-93388084D01*
X153798581Y-93555581D01*
X153631084Y-93693042D01*
X153439988Y-93795184D01*
X153439986Y-93795185D01*
X153232639Y-93858084D01*
X153071038Y-93874000D01*
X152962962Y-93874000D01*
X152801361Y-93858084D01*
X152594014Y-93795185D01*
X152594012Y-93795184D01*
X152402916Y-93693042D01*
X152235419Y-93555581D01*
X152097958Y-93388084D01*
X151995816Y-93196988D01*
X151932916Y-92989638D01*
X151911678Y-92774000D01*
X151932916Y-92558362D01*
X151995816Y-92351012D01*
X152097958Y-92159916D01*
X152235419Y-91992419D01*
X152402916Y-91854958D01*
X152594012Y-91752816D01*
X152594014Y-91752815D01*
X152801361Y-91689916D01*
X152962962Y-91674000D01*
X153071038Y-91674000D01*
X153232639Y-91689916D01*
X153232639Y-91689916D01*
G37*
G36*
X130372639Y-91689916D02*
X130579986Y-91752815D01*
X130579988Y-91752816D01*
X130771084Y-91854958D01*
X130938581Y-91992419D01*
X131076042Y-92159916D01*
X131178184Y-92351012D01*
X131241084Y-92558362D01*
X131262322Y-92774000D01*
X131241084Y-92989638D01*
X131178184Y-93196988D01*
X131076042Y-93388084D01*
X130938581Y-93555581D01*
X130771084Y-93693042D01*
X130579988Y-93795184D01*
X130579986Y-93795185D01*
X130372639Y-93858084D01*
X130211038Y-93874000D01*
X130102962Y-93874000D01*
X129941361Y-93858084D01*
X129734014Y-93795185D01*
X129734012Y-93795184D01*
X129542916Y-93693042D01*
X129375419Y-93555581D01*
X129237958Y-93388084D01*
X129135816Y-93196988D01*
X129072916Y-92989638D01*
X129051678Y-92774000D01*
X129072916Y-92558362D01*
X129135816Y-92351012D01*
X129237958Y-92159916D01*
X129375419Y-91992419D01*
X129542916Y-91854958D01*
X129734012Y-91752816D01*
X129734014Y-91752815D01*
X129941361Y-91689916D01*
X130102962Y-91674000D01*
X130211038Y-91674000D01*
X130372639Y-91689916D01*
X130372639Y-91689916D01*
G37*
G36*
X139923026Y-82031115D02*
X140141412Y-82121573D01*
X140337958Y-82252901D01*
X140505099Y-82420042D01*
X140636427Y-82616588D01*
X140672515Y-82703712D01*
X140684066Y-82725323D01*
X140699612Y-82744265D01*
X140718554Y-82759811D01*
X140740165Y-82771362D01*
X140763614Y-82778475D01*
X140788000Y-82780877D01*
X140812386Y-82778475D01*
X140835835Y-82771362D01*
X140857446Y-82759811D01*
X140876388Y-82744265D01*
X140891934Y-82725323D01*
X140903485Y-82703712D01*
X140910598Y-82680263D01*
X140913000Y-82655877D01*
X140913000Y-81985000D01*
X143313000Y-81985000D01*
X143313000Y-84385000D01*
X140913000Y-84385000D01*
X140913000Y-83714123D01*
X140910598Y-83689737D01*
X140903485Y-83666288D01*
X140891934Y-83644677D01*
X140876388Y-83625735D01*
X140857446Y-83610189D01*
X140835835Y-83598638D01*
X140812386Y-83591525D01*
X140788000Y-83589123D01*
X140763614Y-83591525D01*
X140740165Y-83598638D01*
X140718554Y-83610189D01*
X140699612Y-83625735D01*
X140684066Y-83644677D01*
X140672515Y-83666288D01*
X140636427Y-83753412D01*
X140505099Y-83949958D01*
X140337958Y-84117099D01*
X140141412Y-84248427D01*
X139923026Y-84338885D01*
X139691191Y-84385000D01*
X139454809Y-84385000D01*
X139222974Y-84338885D01*
X139004588Y-84248427D01*
X138808042Y-84117099D01*
X138640901Y-83949958D01*
X138509573Y-83753412D01*
X138419115Y-83535026D01*
X138373000Y-83303191D01*
X138373000Y-83066809D01*
X138419115Y-82834974D01*
X138509573Y-82616588D01*
X138640901Y-82420042D01*
X138808042Y-82252901D01*
X139004588Y-82121573D01*
X139222974Y-82031115D01*
X139454809Y-81985000D01*
X139691191Y-81985000D01*
X139923026Y-82031115D01*
X139923026Y-82031115D01*
G37*
G36*
X145296521Y-82319586D02*
X145460309Y-82387429D01*
X145607720Y-82485926D01*
X145733074Y-82611280D01*
X145831571Y-82758691D01*
X145899414Y-82922479D01*
X145934000Y-83096356D01*
X145934000Y-83273644D01*
X145899414Y-83447521D01*
X145831571Y-83611309D01*
X145733074Y-83758720D01*
X145607720Y-83884074D01*
X145460309Y-83982571D01*
X145296521Y-84050414D01*
X145122644Y-84085000D01*
X144945356Y-84085000D01*
X144771479Y-84050414D01*
X144607691Y-83982571D01*
X144460280Y-83884074D01*
X144334926Y-83758720D01*
X144236429Y-83611309D01*
X144168586Y-83447521D01*
X144134000Y-83273644D01*
X144134000Y-83096356D01*
X144168586Y-82922479D01*
X144236429Y-82758691D01*
X144334926Y-82611280D01*
X144460280Y-82485926D01*
X144607691Y-82387429D01*
X144771479Y-82319586D01*
X144945356Y-82285000D01*
X145122644Y-82285000D01*
X145296521Y-82319586D01*
X145296521Y-82319586D01*
G37*
G36*
X152830432Y-82298022D02*
X153000081Y-82349485D01*
X153156433Y-82433056D01*
X153293475Y-82545525D01*
X153405944Y-82682567D01*
X153489515Y-82838919D01*
X153540978Y-83008568D01*
X153558354Y-83185000D01*
X153540978Y-83361432D01*
X153489515Y-83531081D01*
X153405944Y-83687433D01*
X153293475Y-83824475D01*
X153156433Y-83936944D01*
X153000081Y-84020515D01*
X152830432Y-84071978D01*
X152698211Y-84085000D01*
X152609789Y-84085000D01*
X152477568Y-84071978D01*
X152307919Y-84020515D01*
X152151567Y-83936944D01*
X152014525Y-83824475D01*
X151902056Y-83687433D01*
X151818485Y-83531081D01*
X151767022Y-83361432D01*
X151749646Y-83185000D01*
X151767022Y-83008568D01*
X151818485Y-82838919D01*
X151902056Y-82682567D01*
X152014525Y-82545525D01*
X152151567Y-82433056D01*
X152307919Y-82349485D01*
X152477568Y-82298022D01*
X152609789Y-82285000D01*
X152698211Y-82285000D01*
X152830432Y-82298022D01*
X152830432Y-82298022D01*
G37*
M02*
