%TF.GenerationSoftware,KiCad,Pcbnew,5.0.2+dfsg1-1*%
%TF.CreationDate,2019-08-25T16:07:59-07:00*%
%TF.ProjectId,coinPCB,636f696e-5043-4422-9e6b-696361645f70,v0.2*%
%TF.SameCoordinates,Original*%
%TF.FileFunction,Legend,Bot*%
%TF.FilePolarity,Positive*%
%FSLAX46Y46*%
G04 Gerber Fmt 4.6, Leading zero omitted, Abs format (unit mm)*
G04 Created by KiCad (PCBNEW 5.0.2+dfsg1-1) date Sun 25 Aug 2019 04:07:59 PM PDT*
%MOMM*%
%LPD*%
G01*
G04 APERTURE LIST*
%ADD10C,0.200000*%
%ADD11C,0.300000*%
%ADD12C,0.150000*%
%ADD13C,0.100000*%
%ADD14C,0.120000*%
G04 APERTURE END LIST*
D10*
X138628404Y-124721880D02*
X138628404Y-123721880D01*
X138056976Y-124721880D02*
X138485547Y-124150452D01*
X138056976Y-123721880D02*
X138628404Y-124293309D01*
X122435904Y-101988880D02*
X122435904Y-100988880D01*
X121864476Y-101988880D02*
X122293047Y-101417452D01*
X121864476Y-100988880D02*
X122435904Y-101560309D01*
X143263904Y-85732880D02*
X143263904Y-84732880D01*
X142692476Y-85732880D02*
X143121047Y-85161452D01*
X142692476Y-84732880D02*
X143263904Y-85304309D01*
D11*
X145792000Y-93909571D02*
X145792000Y-94623857D01*
X146220571Y-93766714D02*
X144720571Y-94266714D01*
X146220571Y-94766714D01*
X145220571Y-95266714D02*
X146220571Y-95266714D01*
X145363428Y-95266714D02*
X145292000Y-95338142D01*
X145220571Y-95481000D01*
X145220571Y-95695285D01*
X145292000Y-95838142D01*
X145434857Y-95909571D01*
X146220571Y-95909571D01*
X146220571Y-97266714D02*
X144720571Y-97266714D01*
X146149142Y-97266714D02*
X146220571Y-97123857D01*
X146220571Y-96838142D01*
X146149142Y-96695285D01*
X146077714Y-96623857D01*
X145934857Y-96552428D01*
X145506285Y-96552428D01*
X145363428Y-96623857D01*
X145292000Y-96695285D01*
X145220571Y-96838142D01*
X145220571Y-97123857D01*
X145292000Y-97266714D01*
X146220571Y-99123857D02*
X144720571Y-99123857D01*
X145220571Y-99838142D02*
X146220571Y-99838142D01*
X145363428Y-99838142D02*
X145292000Y-99909571D01*
X145220571Y-100052428D01*
X145220571Y-100266714D01*
X145292000Y-100409571D01*
X145434857Y-100481000D01*
X146220571Y-100481000D01*
X145220571Y-101195285D02*
X146220571Y-101195285D01*
X145363428Y-101195285D02*
X145292000Y-101266714D01*
X145220571Y-101409571D01*
X145220571Y-101623857D01*
X145292000Y-101766714D01*
X145434857Y-101838142D01*
X146220571Y-101838142D01*
X146220571Y-102766714D02*
X146149142Y-102623857D01*
X146077714Y-102552428D01*
X145934857Y-102481000D01*
X145506285Y-102481000D01*
X145363428Y-102552428D01*
X145292000Y-102623857D01*
X145220571Y-102766714D01*
X145220571Y-102981000D01*
X145292000Y-103123857D01*
X145363428Y-103195285D01*
X145506285Y-103266714D01*
X145934857Y-103266714D01*
X146077714Y-103195285D01*
X146149142Y-103123857D01*
X146220571Y-102981000D01*
X146220571Y-102766714D01*
X145220571Y-103766714D02*
X146220571Y-104123857D01*
X145220571Y-104481000D01*
X146220571Y-105695285D02*
X145434857Y-105695285D01*
X145292000Y-105623857D01*
X145220571Y-105481000D01*
X145220571Y-105195285D01*
X145292000Y-105052428D01*
X146149142Y-105695285D02*
X146220571Y-105552428D01*
X146220571Y-105195285D01*
X146149142Y-105052428D01*
X146006285Y-104981000D01*
X145863428Y-104981000D01*
X145720571Y-105052428D01*
X145649142Y-105195285D01*
X145649142Y-105552428D01*
X145577714Y-105695285D01*
X145220571Y-106195285D02*
X145220571Y-106766714D01*
X144720571Y-106409571D02*
X146006285Y-106409571D01*
X146149142Y-106481000D01*
X146220571Y-106623857D01*
X146220571Y-106766714D01*
X146220571Y-107266714D02*
X145220571Y-107266714D01*
X144720571Y-107266714D02*
X144792000Y-107195285D01*
X144863428Y-107266714D01*
X144792000Y-107338142D01*
X144720571Y-107266714D01*
X144863428Y-107266714D01*
X146220571Y-108195285D02*
X146149142Y-108052428D01*
X146077714Y-107981000D01*
X145934857Y-107909571D01*
X145506285Y-107909571D01*
X145363428Y-107981000D01*
X145292000Y-108052428D01*
X145220571Y-108195285D01*
X145220571Y-108409571D01*
X145292000Y-108552428D01*
X145363428Y-108623857D01*
X145506285Y-108695285D01*
X145934857Y-108695285D01*
X146077714Y-108623857D01*
X146149142Y-108552428D01*
X146220571Y-108409571D01*
X146220571Y-108195285D01*
X145220571Y-109338142D02*
X146220571Y-109338142D01*
X145363428Y-109338142D02*
X145292000Y-109409571D01*
X145220571Y-109552428D01*
X145220571Y-109766714D01*
X145292000Y-109909571D01*
X145434857Y-109981000D01*
X146220571Y-109981000D01*
X136267000Y-92318285D02*
X136267000Y-93032571D01*
X136695571Y-92175428D02*
X135195571Y-92675428D01*
X136695571Y-93175428D01*
X135695571Y-94318285D02*
X136909857Y-94318285D01*
X137052714Y-94246857D01*
X137124142Y-94175428D01*
X137195571Y-94032571D01*
X137195571Y-93818285D01*
X137124142Y-93675428D01*
X136624142Y-94318285D02*
X136695571Y-94175428D01*
X136695571Y-93889714D01*
X136624142Y-93746857D01*
X136552714Y-93675428D01*
X136409857Y-93604000D01*
X135981285Y-93604000D01*
X135838428Y-93675428D01*
X135767000Y-93746857D01*
X135695571Y-93889714D01*
X135695571Y-94175428D01*
X135767000Y-94318285D01*
X136695571Y-95032571D02*
X135695571Y-95032571D01*
X135195571Y-95032571D02*
X135267000Y-94961142D01*
X135338428Y-95032571D01*
X135267000Y-95104000D01*
X135195571Y-95032571D01*
X135338428Y-95032571D01*
X136695571Y-95961142D02*
X136624142Y-95818285D01*
X136481285Y-95746857D01*
X135195571Y-95746857D01*
X136624142Y-97104000D02*
X136695571Y-96961142D01*
X136695571Y-96675428D01*
X136624142Y-96532571D01*
X136481285Y-96461142D01*
X135909857Y-96461142D01*
X135767000Y-96532571D01*
X135695571Y-96675428D01*
X135695571Y-96961142D01*
X135767000Y-97104000D01*
X135909857Y-97175428D01*
X136052714Y-97175428D01*
X136195571Y-96461142D01*
X135909857Y-98961142D02*
X135909857Y-99461142D01*
X136695571Y-99675428D02*
X136695571Y-98961142D01*
X135195571Y-98961142D01*
X135195571Y-99675428D01*
X135695571Y-100318285D02*
X136695571Y-100318285D01*
X135838428Y-100318285D02*
X135767000Y-100389714D01*
X135695571Y-100532571D01*
X135695571Y-100746857D01*
X135767000Y-100889714D01*
X135909857Y-100961142D01*
X136695571Y-100961142D01*
X135695571Y-102318285D02*
X136909857Y-102318285D01*
X137052714Y-102246857D01*
X137124142Y-102175428D01*
X137195571Y-102032571D01*
X137195571Y-101818285D01*
X137124142Y-101675428D01*
X136624142Y-102318285D02*
X136695571Y-102175428D01*
X136695571Y-101889714D01*
X136624142Y-101746857D01*
X136552714Y-101675428D01*
X136409857Y-101604000D01*
X135981285Y-101604000D01*
X135838428Y-101675428D01*
X135767000Y-101746857D01*
X135695571Y-101889714D01*
X135695571Y-102175428D01*
X135767000Y-102318285D01*
X136695571Y-103032571D02*
X135695571Y-103032571D01*
X135195571Y-103032571D02*
X135267000Y-102961142D01*
X135338428Y-103032571D01*
X135267000Y-103104000D01*
X135195571Y-103032571D01*
X135338428Y-103032571D01*
X135695571Y-103746857D02*
X136695571Y-103746857D01*
X135838428Y-103746857D02*
X135767000Y-103818285D01*
X135695571Y-103961142D01*
X135695571Y-104175428D01*
X135767000Y-104318285D01*
X135909857Y-104389714D01*
X136695571Y-104389714D01*
X136624142Y-105675428D02*
X136695571Y-105532571D01*
X136695571Y-105246857D01*
X136624142Y-105103999D01*
X136481285Y-105032571D01*
X135909857Y-105032571D01*
X135767000Y-105103999D01*
X135695571Y-105246857D01*
X135695571Y-105532571D01*
X135767000Y-105675428D01*
X135909857Y-105746857D01*
X136052714Y-105746857D01*
X136195571Y-105032571D01*
X136624142Y-106961142D02*
X136695571Y-106818285D01*
X136695571Y-106532571D01*
X136624142Y-106389714D01*
X136481285Y-106318285D01*
X135909857Y-106318285D01*
X135767000Y-106389714D01*
X135695571Y-106532571D01*
X135695571Y-106818285D01*
X135767000Y-106961142D01*
X135909857Y-107032571D01*
X136052714Y-107032571D01*
X136195571Y-106318285D01*
X136695571Y-107675428D02*
X135695571Y-107675428D01*
X135981285Y-107675428D02*
X135838428Y-107746857D01*
X135767000Y-107818285D01*
X135695571Y-107961142D01*
X135695571Y-108103999D01*
X136695571Y-108603999D02*
X135695571Y-108603999D01*
X135195571Y-108603999D02*
X135267000Y-108532571D01*
X135338428Y-108603999D01*
X135267000Y-108675428D01*
X135195571Y-108603999D01*
X135338428Y-108603999D01*
X135695571Y-109318285D02*
X136695571Y-109318285D01*
X135838428Y-109318285D02*
X135767000Y-109389714D01*
X135695571Y-109532571D01*
X135695571Y-109746857D01*
X135767000Y-109889714D01*
X135909857Y-109961142D01*
X136695571Y-109961142D01*
X135695571Y-111318285D02*
X136909857Y-111318285D01*
X137052714Y-111246857D01*
X137124142Y-111175428D01*
X137195571Y-111032571D01*
X137195571Y-110818285D01*
X137124142Y-110675428D01*
X136624142Y-111318285D02*
X136695571Y-111175428D01*
X136695571Y-110889714D01*
X136624142Y-110746857D01*
X136552714Y-110675428D01*
X136409857Y-110603999D01*
X135981285Y-110603999D01*
X135838428Y-110675428D01*
X135767000Y-110746857D01*
X135695571Y-110889714D01*
X135695571Y-111175428D01*
X135767000Y-111318285D01*
D12*
X166751000Y-102870000D02*
G75*
G03X166751000Y-102870000I-25400000J0D01*
G01*
D11*
X151624142Y-109682571D02*
X150695571Y-109682571D01*
X151195571Y-110254000D01*
X150981285Y-110254000D01*
X150838428Y-110325428D01*
X150767000Y-110396857D01*
X150695571Y-110539714D01*
X150695571Y-110896857D01*
X150767000Y-111039714D01*
X150838428Y-111111142D01*
X150981285Y-111182571D01*
X151409857Y-111182571D01*
X151552714Y-111111142D01*
X151624142Y-111039714D01*
X150267000Y-109682571D02*
X149767000Y-111182571D01*
X149267000Y-109682571D01*
X148909857Y-109682571D02*
X147981285Y-109682571D01*
X148481285Y-110254000D01*
X148267000Y-110254000D01*
X148124142Y-110325428D01*
X148052714Y-110396857D01*
X147981285Y-110539714D01*
X147981285Y-110896857D01*
X148052714Y-111039714D01*
X148124142Y-111111142D01*
X148267000Y-111182571D01*
X148695571Y-111182571D01*
X148838428Y-111111142D01*
X148909857Y-111039714D01*
X151574142Y-108682571D02*
X151574142Y-107182571D01*
X151217000Y-107182571D01*
X151002714Y-107254000D01*
X150859857Y-107396857D01*
X150788428Y-107539714D01*
X150717000Y-107825428D01*
X150717000Y-108039714D01*
X150788428Y-108325428D01*
X150859857Y-108468285D01*
X151002714Y-108611142D01*
X151217000Y-108682571D01*
X151574142Y-108682571D01*
X149859857Y-107825428D02*
X150002714Y-107754000D01*
X150074142Y-107682571D01*
X150145571Y-107539714D01*
X150145571Y-107468285D01*
X150074142Y-107325428D01*
X150002714Y-107254000D01*
X149859857Y-107182571D01*
X149574142Y-107182571D01*
X149431285Y-107254000D01*
X149359857Y-107325428D01*
X149288428Y-107468285D01*
X149288428Y-107539714D01*
X149359857Y-107682571D01*
X149431285Y-107754000D01*
X149574142Y-107825428D01*
X149859857Y-107825428D01*
X150002714Y-107896857D01*
X150074142Y-107968285D01*
X150145571Y-108111142D01*
X150145571Y-108396857D01*
X150074142Y-108539714D01*
X150002714Y-108611142D01*
X149859857Y-108682571D01*
X149574142Y-108682571D01*
X149431285Y-108611142D01*
X149359857Y-108539714D01*
X149288428Y-108396857D01*
X149288428Y-108111142D01*
X149359857Y-107968285D01*
X149431285Y-107896857D01*
X149574142Y-107825428D01*
X151574142Y-106082571D02*
X151574142Y-104582571D01*
X151217000Y-104582571D01*
X151002714Y-104654000D01*
X150859857Y-104796857D01*
X150788428Y-104939714D01*
X150717000Y-105225428D01*
X150717000Y-105439714D01*
X150788428Y-105725428D01*
X150859857Y-105868285D01*
X151002714Y-106011142D01*
X151217000Y-106082571D01*
X151574142Y-106082571D01*
X150217000Y-104582571D02*
X149217000Y-104582571D01*
X149859857Y-106082571D01*
X151574142Y-103682571D02*
X151574142Y-102182571D01*
X151217000Y-102182571D01*
X151002714Y-102254000D01*
X150859857Y-102396857D01*
X150788428Y-102539714D01*
X150717000Y-102825428D01*
X150717000Y-103039714D01*
X150788428Y-103325428D01*
X150859857Y-103468285D01*
X151002714Y-103611142D01*
X151217000Y-103682571D01*
X151574142Y-103682571D01*
X149431285Y-102182571D02*
X149717000Y-102182571D01*
X149859857Y-102254000D01*
X149931285Y-102325428D01*
X150074142Y-102539714D01*
X150145571Y-102825428D01*
X150145571Y-103396857D01*
X150074142Y-103539714D01*
X150002714Y-103611142D01*
X149859857Y-103682571D01*
X149574142Y-103682571D01*
X149431285Y-103611142D01*
X149359857Y-103539714D01*
X149288428Y-103396857D01*
X149288428Y-103039714D01*
X149359857Y-102896857D01*
X149431285Y-102825428D01*
X149574142Y-102754000D01*
X149859857Y-102754000D01*
X150002714Y-102825428D01*
X150074142Y-102896857D01*
X150145571Y-103039714D01*
X151574142Y-101182571D02*
X151574142Y-99682571D01*
X151217000Y-99682571D01*
X151002714Y-99754000D01*
X150859857Y-99896857D01*
X150788428Y-100039714D01*
X150717000Y-100325428D01*
X150717000Y-100539714D01*
X150788428Y-100825428D01*
X150859857Y-100968285D01*
X151002714Y-101111142D01*
X151217000Y-101182571D01*
X151574142Y-101182571D01*
X149359857Y-99682571D02*
X150074142Y-99682571D01*
X150145571Y-100396857D01*
X150074142Y-100325428D01*
X149931285Y-100254000D01*
X149574142Y-100254000D01*
X149431285Y-100325428D01*
X149359857Y-100396857D01*
X149288428Y-100539714D01*
X149288428Y-100896857D01*
X149359857Y-101039714D01*
X149431285Y-101111142D01*
X149574142Y-101182571D01*
X149931285Y-101182571D01*
X150074142Y-101111142D01*
X150145571Y-101039714D01*
X151574142Y-98582571D02*
X151574142Y-97082571D01*
X151217000Y-97082571D01*
X151002714Y-97154000D01*
X150859857Y-97296857D01*
X150788428Y-97439714D01*
X150717000Y-97725428D01*
X150717000Y-97939714D01*
X150788428Y-98225428D01*
X150859857Y-98368285D01*
X151002714Y-98511142D01*
X151217000Y-98582571D01*
X151574142Y-98582571D01*
X149788428Y-97082571D02*
X149645571Y-97082571D01*
X149502714Y-97154000D01*
X149431285Y-97225428D01*
X149359857Y-97368285D01*
X149288428Y-97654000D01*
X149288428Y-98011142D01*
X149359857Y-98296857D01*
X149431285Y-98439714D01*
X149502714Y-98511142D01*
X149645571Y-98582571D01*
X149788428Y-98582571D01*
X149931285Y-98511142D01*
X150002714Y-98439714D01*
X150074142Y-98296857D01*
X150145571Y-98011142D01*
X150145571Y-97654000D01*
X150074142Y-97368285D01*
X150002714Y-97225428D01*
X149931285Y-97154000D01*
X149788428Y-97082571D01*
X151538428Y-95554000D02*
X150824142Y-95554000D01*
X151681285Y-95982571D02*
X151181285Y-94482571D01*
X150681285Y-95982571D01*
X149895571Y-94482571D02*
X149752714Y-94482571D01*
X149609857Y-94554000D01*
X149538428Y-94625428D01*
X149467000Y-94768285D01*
X149395571Y-95054000D01*
X149395571Y-95411142D01*
X149467000Y-95696857D01*
X149538428Y-95839714D01*
X149609857Y-95911142D01*
X149752714Y-95982571D01*
X149895571Y-95982571D01*
X150038428Y-95911142D01*
X150109857Y-95839714D01*
X150181285Y-95696857D01*
X150252714Y-95411142D01*
X150252714Y-95054000D01*
X150181285Y-94768285D01*
X150109857Y-94625428D01*
X150038428Y-94554000D01*
X149895571Y-94482571D01*
X150638428Y-93382571D02*
X151138428Y-92668285D01*
X151495571Y-93382571D02*
X151495571Y-91882571D01*
X150924142Y-91882571D01*
X150781285Y-91954000D01*
X150709857Y-92025428D01*
X150638428Y-92168285D01*
X150638428Y-92382571D01*
X150709857Y-92525428D01*
X150781285Y-92596857D01*
X150924142Y-92668285D01*
X151495571Y-92668285D01*
X150067000Y-93311142D02*
X149924142Y-93382571D01*
X149638428Y-93382571D01*
X149495571Y-93311142D01*
X149424142Y-93168285D01*
X149424142Y-93096857D01*
X149495571Y-92954000D01*
X149638428Y-92882571D01*
X149852714Y-92882571D01*
X149995571Y-92811142D01*
X150067000Y-92668285D01*
X150067000Y-92596857D01*
X149995571Y-92454000D01*
X149852714Y-92382571D01*
X149638428Y-92382571D01*
X149495571Y-92454000D01*
X148995571Y-92382571D02*
X148424142Y-92382571D01*
X148781285Y-91882571D02*
X148781285Y-93168285D01*
X148709857Y-93311142D01*
X148567000Y-93382571D01*
X148424142Y-93382571D01*
X132952714Y-109782571D02*
X133667000Y-109782571D01*
X133738428Y-110496857D01*
X133667000Y-110425428D01*
X133524142Y-110354000D01*
X133167000Y-110354000D01*
X133024142Y-110425428D01*
X132952714Y-110496857D01*
X132881285Y-110639714D01*
X132881285Y-110996857D01*
X132952714Y-111139714D01*
X133024142Y-111211142D01*
X133167000Y-111282571D01*
X133524142Y-111282571D01*
X133667000Y-111211142D01*
X133738428Y-111139714D01*
X132452714Y-109782571D02*
X131952714Y-111282571D01*
X131452714Y-109782571D01*
X131774142Y-107354000D02*
X131917000Y-107282571D01*
X132131285Y-107282571D01*
X132345571Y-107354000D01*
X132488428Y-107496857D01*
X132559857Y-107639714D01*
X132631285Y-107925428D01*
X132631285Y-108139714D01*
X132559857Y-108425428D01*
X132488428Y-108568285D01*
X132345571Y-108711142D01*
X132131285Y-108782571D01*
X131988428Y-108782571D01*
X131774142Y-108711142D01*
X131702714Y-108639714D01*
X131702714Y-108139714D01*
X131988428Y-108139714D01*
X133874142Y-106282571D02*
X133874142Y-104782571D01*
X133517000Y-104782571D01*
X133302714Y-104854000D01*
X133159857Y-104996857D01*
X133088428Y-105139714D01*
X133017000Y-105425428D01*
X133017000Y-105639714D01*
X133088428Y-105925428D01*
X133159857Y-106068285D01*
X133302714Y-106211142D01*
X133517000Y-106282571D01*
X133874142Y-106282571D01*
X131731285Y-105282571D02*
X131731285Y-106282571D01*
X132088428Y-104711142D02*
X132445571Y-105782571D01*
X131517000Y-105782571D01*
X133874142Y-103682571D02*
X133874142Y-102182571D01*
X133517000Y-102182571D01*
X133302714Y-102254000D01*
X133159857Y-102396857D01*
X133088428Y-102539714D01*
X133017000Y-102825428D01*
X133017000Y-103039714D01*
X133088428Y-103325428D01*
X133159857Y-103468285D01*
X133302714Y-103611142D01*
X133517000Y-103682571D01*
X133874142Y-103682571D01*
X132517000Y-102182571D02*
X131588428Y-102182571D01*
X132088428Y-102754000D01*
X131874142Y-102754000D01*
X131731285Y-102825428D01*
X131659857Y-102896857D01*
X131588428Y-103039714D01*
X131588428Y-103396857D01*
X131659857Y-103539714D01*
X131731285Y-103611142D01*
X131874142Y-103682571D01*
X132302714Y-103682571D01*
X132445571Y-103611142D01*
X132517000Y-103539714D01*
X133874142Y-101082571D02*
X133874142Y-99582571D01*
X133517000Y-99582571D01*
X133302714Y-99654000D01*
X133159857Y-99796857D01*
X133088428Y-99939714D01*
X133017000Y-100225428D01*
X133017000Y-100439714D01*
X133088428Y-100725428D01*
X133159857Y-100868285D01*
X133302714Y-101011142D01*
X133517000Y-101082571D01*
X133874142Y-101082571D01*
X132445571Y-99725428D02*
X132374142Y-99654000D01*
X132231285Y-99582571D01*
X131874142Y-99582571D01*
X131731285Y-99654000D01*
X131659857Y-99725428D01*
X131588428Y-99868285D01*
X131588428Y-100011142D01*
X131659857Y-100225428D01*
X132517000Y-101082571D01*
X131588428Y-101082571D01*
X133874142Y-98482571D02*
X133874142Y-96982571D01*
X133517000Y-96982571D01*
X133302714Y-97054000D01*
X133159857Y-97196857D01*
X133088428Y-97339714D01*
X133017000Y-97625428D01*
X133017000Y-97839714D01*
X133088428Y-98125428D01*
X133159857Y-98268285D01*
X133302714Y-98411142D01*
X133517000Y-98482571D01*
X133874142Y-98482571D01*
X131588428Y-98482571D02*
X132445571Y-98482571D01*
X132017000Y-98482571D02*
X132017000Y-96982571D01*
X132159857Y-97196857D01*
X132302714Y-97339714D01*
X132445571Y-97411142D01*
X133017000Y-96082571D02*
X133517000Y-95368285D01*
X133874142Y-96082571D02*
X133874142Y-94582571D01*
X133302714Y-94582571D01*
X133159857Y-94654000D01*
X133088428Y-94725428D01*
X133017000Y-94868285D01*
X133017000Y-95082571D01*
X133088428Y-95225428D01*
X133159857Y-95296857D01*
X133302714Y-95368285D01*
X133874142Y-95368285D01*
X132517000Y-94582571D02*
X131517000Y-96082571D01*
X131517000Y-94582571D02*
X132517000Y-96082571D01*
X133709857Y-91982571D02*
X132852714Y-91982571D01*
X133281285Y-93482571D02*
X133281285Y-91982571D01*
X132495571Y-91982571D02*
X131495571Y-93482571D01*
X131495571Y-91982571D02*
X132495571Y-93482571D01*
D13*
X122098000Y-100188000D02*
X118973000Y-100188000D01*
X122171760Y-100193885D02*
G75*
G02X118923000Y-100163000I-1648760J-2549115D01*
G01*
X122098000Y-100188000D02*
X122148000Y-100188000D01*
D14*
X136525000Y-116002000D02*
X136525000Y-116952000D01*
X136525000Y-121742000D02*
X136525000Y-120792000D01*
X137445000Y-116952000D02*
X137445000Y-120792000D01*
X135605000Y-116952000D02*
X137445000Y-116952000D01*
X135605000Y-120792000D02*
X135605000Y-116952000D01*
X137445000Y-120792000D02*
X135605000Y-120792000D01*
X151714000Y-83185000D02*
X150764000Y-83185000D01*
X145974000Y-83185000D02*
X146924000Y-83185000D01*
X150764000Y-84105000D02*
X146924000Y-84105000D01*
X150764000Y-82265000D02*
X150764000Y-84105000D01*
X146924000Y-82265000D02*
X150764000Y-82265000D01*
X146924000Y-84105000D02*
X146924000Y-82265000D01*
X121760850Y-95245044D02*
G75*
G02X122750669Y-96234781I2572150J1582544D01*
G01*
X120848552Y-96156999D02*
X121760719Y-95244831D01*
X121838501Y-97146948D02*
X120848552Y-96156999D01*
X122750669Y-96234781D02*
X121838501Y-97146948D01*
X137937000Y-108264000D02*
X139547000Y-108264000D01*
X137937000Y-108264000D02*
X137937000Y-106264000D01*
X138217000Y-95724000D02*
X138217000Y-107974000D01*
X143977000Y-95724000D02*
X138217000Y-95724000D01*
X143977000Y-107984000D02*
X143977000Y-95724000D01*
X138227000Y-107984000D02*
X143967000Y-107984000D01*
D13*
X161162000Y-105607000D02*
X161587000Y-105607000D01*
X161162000Y-105057000D02*
X161162000Y-105607000D01*
X161162000Y-100382000D02*
X161637000Y-100382000D01*
X161162000Y-100957000D02*
X161162000Y-100382000D01*
X164212000Y-105607000D02*
X164212000Y-105182000D01*
X163637000Y-105607000D02*
X164212000Y-105607000D01*
X163587000Y-100382000D02*
X163587000Y-99707000D01*
X164212000Y-100382000D02*
X163587000Y-100382000D01*
X164212000Y-100907000D02*
X164212000Y-100382000D01*
X142346467Y-124523615D02*
G75*
G03X142951000Y-124032000I-995467J1841615D01*
G01*
X142958285Y-121325853D02*
G75*
G03X142351000Y-120832000I-1607285J-1356147D01*
G01*
X139501000Y-123682000D02*
G75*
G03X140351000Y-124532000I1850000J1000000D01*
G01*
X140351000Y-120832000D02*
G75*
G03X139501000Y-121682000I1000000J-1850000D01*
G01*
X142951000Y-121332000D02*
X142951000Y-121582000D01*
X142951000Y-124032000D02*
X142951000Y-123782000D01*
X139847533Y-81343385D02*
G75*
G03X139243000Y-81835000I995467J-1841615D01*
G01*
X139235715Y-84541147D02*
G75*
G03X139843000Y-85035000I1607285J1356147D01*
G01*
X142693000Y-82185000D02*
G75*
G03X141843000Y-81335000I-1850000J-1000000D01*
G01*
X141843000Y-85035000D02*
G75*
G03X142693000Y-84185000I-1000000J1850000D01*
G01*
X139243000Y-84535000D02*
X139243000Y-84285000D01*
X139243000Y-81835000D02*
X139243000Y-82085000D01*
D14*
X126365000Y-104000500D02*
X126365000Y-104950500D01*
X126365000Y-109740500D02*
X126365000Y-108790500D01*
X127285000Y-104950500D02*
X127285000Y-108790500D01*
X125445000Y-104950500D02*
X127285000Y-104950500D01*
X125445000Y-108790500D02*
X125445000Y-104950500D01*
X127285000Y-108790500D02*
X125445000Y-108790500D01*
D12*
X124900380Y-102074904D02*
X123900380Y-102074904D01*
X123900380Y-102313000D01*
X123948000Y-102455857D01*
X124043238Y-102551095D01*
X124138476Y-102598714D01*
X124328952Y-102646333D01*
X124471809Y-102646333D01*
X124662285Y-102598714D01*
X124757523Y-102551095D01*
X124852761Y-102455857D01*
X124900380Y-102313000D01*
X124900380Y-102074904D01*
X124900380Y-103122523D02*
X124900380Y-103313000D01*
X124852761Y-103408238D01*
X124805142Y-103455857D01*
X124662285Y-103551095D01*
X124471809Y-103598714D01*
X124090857Y-103598714D01*
X123995619Y-103551095D01*
X123948000Y-103503476D01*
X123900380Y-103408238D01*
X123900380Y-103217761D01*
X123948000Y-103122523D01*
X123995619Y-103074904D01*
X124090857Y-103027285D01*
X124328952Y-103027285D01*
X124424190Y-103074904D01*
X124471809Y-103122523D01*
X124519428Y-103217761D01*
X124519428Y-103408238D01*
X124471809Y-103503476D01*
X124424190Y-103551095D01*
X124328952Y-103598714D01*
X138897380Y-118705333D02*
X138421190Y-118372000D01*
X138897380Y-118133904D02*
X137897380Y-118133904D01*
X137897380Y-118514857D01*
X137945000Y-118610095D01*
X137992619Y-118657714D01*
X138087857Y-118705333D01*
X138230714Y-118705333D01*
X138325952Y-118657714D01*
X138373571Y-118610095D01*
X138421190Y-118514857D01*
X138421190Y-118133904D01*
X137992619Y-119086285D02*
X137945000Y-119133904D01*
X137897380Y-119229142D01*
X137897380Y-119467238D01*
X137945000Y-119562476D01*
X137992619Y-119610095D01*
X138087857Y-119657714D01*
X138183095Y-119657714D01*
X138325952Y-119610095D01*
X138897380Y-119038666D01*
X138897380Y-119657714D01*
X149010666Y-85557380D02*
X149344000Y-85081190D01*
X149582095Y-85557380D02*
X149582095Y-84557380D01*
X149201142Y-84557380D01*
X149105904Y-84605000D01*
X149058285Y-84652619D01*
X149010666Y-84747857D01*
X149010666Y-84890714D01*
X149058285Y-84985952D01*
X149105904Y-85033571D01*
X149201142Y-85081190D01*
X149582095Y-85081190D01*
X148677333Y-84557380D02*
X148058285Y-84557380D01*
X148391619Y-84938333D01*
X148248761Y-84938333D01*
X148153523Y-84985952D01*
X148105904Y-85033571D01*
X148058285Y-85128809D01*
X148058285Y-85366904D01*
X148105904Y-85462142D01*
X148153523Y-85509761D01*
X148248761Y-85557380D01*
X148534476Y-85557380D01*
X148629714Y-85509761D01*
X148677333Y-85462142D01*
X124428238Y-98230119D02*
X124523476Y-98182500D01*
X124618714Y-98087261D01*
X124761571Y-97944404D01*
X124856809Y-97896785D01*
X124952047Y-97896785D01*
X124904428Y-98134880D02*
X124999666Y-98087261D01*
X125094904Y-97992023D01*
X125142523Y-97801547D01*
X125142523Y-97468214D01*
X125094904Y-97277738D01*
X124999666Y-97182500D01*
X124904428Y-97134880D01*
X124713952Y-97134880D01*
X124618714Y-97182500D01*
X124523476Y-97277738D01*
X124475857Y-97468214D01*
X124475857Y-97801547D01*
X124523476Y-97992023D01*
X124618714Y-98087261D01*
X124713952Y-98134880D01*
X124904428Y-98134880D01*
X123523476Y-98134880D02*
X124094904Y-98134880D01*
X123809190Y-98134880D02*
X123809190Y-97134880D01*
X123904428Y-97277738D01*
X123999666Y-97372976D01*
X124094904Y-97420595D01*
X140858904Y-108616380D02*
X140858904Y-109425904D01*
X140811285Y-109521142D01*
X140763666Y-109568761D01*
X140668428Y-109616380D01*
X140477952Y-109616380D01*
X140382714Y-109568761D01*
X140335095Y-109521142D01*
X140287476Y-109425904D01*
X140287476Y-108616380D01*
X139858904Y-108711619D02*
X139811285Y-108664000D01*
X139716047Y-108616380D01*
X139477952Y-108616380D01*
X139382714Y-108664000D01*
X139335095Y-108711619D01*
X139287476Y-108806857D01*
X139287476Y-108902095D01*
X139335095Y-109044952D01*
X139906523Y-109616380D01*
X139287476Y-109616380D01*
X159714380Y-102320095D02*
X160523904Y-102320095D01*
X160619142Y-102367714D01*
X160666761Y-102415333D01*
X160714380Y-102510571D01*
X160714380Y-102701047D01*
X160666761Y-102796285D01*
X160619142Y-102843904D01*
X160523904Y-102891523D01*
X159714380Y-102891523D01*
X160714380Y-103891523D02*
X160714380Y-103320095D01*
X160714380Y-103605809D02*
X159714380Y-103605809D01*
X159857238Y-103510571D01*
X159952476Y-103415333D01*
X160000095Y-103320095D01*
X142311285Y-126817380D02*
X142311285Y-125817380D01*
X142073190Y-125817380D01*
X141930333Y-125865000D01*
X141835095Y-125960238D01*
X141787476Y-126055476D01*
X141739857Y-126245952D01*
X141739857Y-126388809D01*
X141787476Y-126579285D01*
X141835095Y-126674523D01*
X141930333Y-126769761D01*
X142073190Y-126817380D01*
X142311285Y-126817380D01*
X140787476Y-126817380D02*
X141358904Y-126817380D01*
X141073190Y-126817380D02*
X141073190Y-125817380D01*
X141168428Y-125960238D01*
X141263666Y-126055476D01*
X141358904Y-126103095D01*
X140168428Y-125817380D02*
X140073190Y-125817380D01*
X139977952Y-125865000D01*
X139930333Y-125912619D01*
X139882714Y-126007857D01*
X139835095Y-126198333D01*
X139835095Y-126436428D01*
X139882714Y-126626904D01*
X139930333Y-126722142D01*
X139977952Y-126769761D01*
X140073190Y-126817380D01*
X140168428Y-126817380D01*
X140263666Y-126769761D01*
X140311285Y-126722142D01*
X140358904Y-126626904D01*
X140406523Y-126436428D01*
X140406523Y-126198333D01*
X140358904Y-126007857D01*
X140311285Y-125912619D01*
X140263666Y-125865000D01*
X140168428Y-125817380D01*
X141803285Y-79573380D02*
X141803285Y-78573380D01*
X141565190Y-78573380D01*
X141422333Y-78621000D01*
X141327095Y-78716238D01*
X141279476Y-78811476D01*
X141231857Y-79001952D01*
X141231857Y-79144809D01*
X141279476Y-79335285D01*
X141327095Y-79430523D01*
X141422333Y-79525761D01*
X141565190Y-79573380D01*
X141803285Y-79573380D01*
X140279476Y-79573380D02*
X140850904Y-79573380D01*
X140565190Y-79573380D02*
X140565190Y-78573380D01*
X140660428Y-78716238D01*
X140755666Y-78811476D01*
X140850904Y-78859095D01*
X139327095Y-79573380D02*
X139898523Y-79573380D01*
X139612809Y-79573380D02*
X139612809Y-78573380D01*
X139708047Y-78716238D01*
X139803285Y-78811476D01*
X139898523Y-78859095D01*
X124912380Y-107211833D02*
X124436190Y-106878500D01*
X124912380Y-106640404D02*
X123912380Y-106640404D01*
X123912380Y-107021357D01*
X123960000Y-107116595D01*
X124007619Y-107164214D01*
X124102857Y-107211833D01*
X124245714Y-107211833D01*
X124340952Y-107164214D01*
X124388571Y-107116595D01*
X124436190Y-107021357D01*
X124436190Y-106640404D01*
X124912380Y-108164214D02*
X124912380Y-107592785D01*
X124912380Y-107878500D02*
X123912380Y-107878500D01*
X124055238Y-107783261D01*
X124150476Y-107688023D01*
X124198095Y-107592785D01*
M02*
