%TF.GenerationSoftware,KiCad,Pcbnew,5.0.2+dfsg1-1~bpo9+1*%
%TF.CreationDate,2019-04-24T06:15:53+00:00*%
%TF.ProjectId,cointest,636f696e-7465-4737-942e-6b696361645f,rev?*%
%TF.SameCoordinates,Original*%
%TF.FileFunction,Legend,Top*%
%TF.FilePolarity,Positive*%
%FSLAX46Y46*%
G04 Gerber Fmt 4.6, Leading zero omitted, Abs format (unit mm)*
G04 Created by KiCad (PCBNEW 5.0.2+dfsg1-1~bpo9+1) date Wed 24 Apr 2019 06:15:53 AM UTC*
%MOMM*%
%LPD*%
G01*
G04 APERTURE LIST*
%ADD10C,0.300000*%
%ADD11C,0.150000*%
G04 APERTURE END LIST*
D10*
X133409500Y-104849214D02*
X133409500Y-104134928D01*
X133838071Y-104992071D02*
X132338071Y-104492071D01*
X133838071Y-103992071D01*
X132838071Y-102849214D02*
X134052357Y-102849214D01*
X134195214Y-102920642D01*
X134266642Y-102992071D01*
X134338071Y-103134928D01*
X134338071Y-103349214D01*
X134266642Y-103492071D01*
X133766642Y-102849214D02*
X133838071Y-102992071D01*
X133838071Y-103277785D01*
X133766642Y-103420642D01*
X133695214Y-103492071D01*
X133552357Y-103563500D01*
X133123785Y-103563500D01*
X132980928Y-103492071D01*
X132909500Y-103420642D01*
X132838071Y-103277785D01*
X132838071Y-102992071D01*
X132909500Y-102849214D01*
X133838071Y-102134928D02*
X132838071Y-102134928D01*
X132338071Y-102134928D02*
X132409500Y-102206357D01*
X132480928Y-102134928D01*
X132409500Y-102063500D01*
X132338071Y-102134928D01*
X132480928Y-102134928D01*
X133838071Y-101206357D02*
X133766642Y-101349214D01*
X133623785Y-101420642D01*
X132338071Y-101420642D01*
X133766642Y-100063500D02*
X133838071Y-100206357D01*
X133838071Y-100492071D01*
X133766642Y-100634928D01*
X133623785Y-100706357D01*
X133052357Y-100706357D01*
X132909500Y-100634928D01*
X132838071Y-100492071D01*
X132838071Y-100206357D01*
X132909500Y-100063500D01*
X133052357Y-99992071D01*
X133195214Y-99992071D01*
X133338071Y-100706357D01*
X133052357Y-98206357D02*
X133052357Y-97706357D01*
X133838071Y-97492071D02*
X133838071Y-98206357D01*
X132338071Y-98206357D01*
X132338071Y-97492071D01*
X132838071Y-96849214D02*
X133838071Y-96849214D01*
X132980928Y-96849214D02*
X132909500Y-96777785D01*
X132838071Y-96634928D01*
X132838071Y-96420642D01*
X132909500Y-96277785D01*
X133052357Y-96206357D01*
X133838071Y-96206357D01*
X132838071Y-94849214D02*
X134052357Y-94849214D01*
X134195214Y-94920642D01*
X134266642Y-94992071D01*
X134338071Y-95134928D01*
X134338071Y-95349214D01*
X134266642Y-95492071D01*
X133766642Y-94849214D02*
X133838071Y-94992071D01*
X133838071Y-95277785D01*
X133766642Y-95420642D01*
X133695214Y-95492071D01*
X133552357Y-95563500D01*
X133123785Y-95563500D01*
X132980928Y-95492071D01*
X132909500Y-95420642D01*
X132838071Y-95277785D01*
X132838071Y-94992071D01*
X132909500Y-94849214D01*
X133838071Y-94134928D02*
X132838071Y-94134928D01*
X132338071Y-94134928D02*
X132409500Y-94206357D01*
X132480928Y-94134928D01*
X132409500Y-94063500D01*
X132338071Y-94134928D01*
X132480928Y-94134928D01*
X132838071Y-93420642D02*
X133838071Y-93420642D01*
X132980928Y-93420642D02*
X132909500Y-93349214D01*
X132838071Y-93206357D01*
X132838071Y-92992071D01*
X132909500Y-92849214D01*
X133052357Y-92777785D01*
X133838071Y-92777785D01*
X133766642Y-91492071D02*
X133838071Y-91634928D01*
X133838071Y-91920642D01*
X133766642Y-92063500D01*
X133623785Y-92134928D01*
X133052357Y-92134928D01*
X132909500Y-92063500D01*
X132838071Y-91920642D01*
X132838071Y-91634928D01*
X132909500Y-91492071D01*
X133052357Y-91420642D01*
X133195214Y-91420642D01*
X133338071Y-92134928D01*
X133766642Y-90206357D02*
X133838071Y-90349214D01*
X133838071Y-90634928D01*
X133766642Y-90777785D01*
X133623785Y-90849214D01*
X133052357Y-90849214D01*
X132909500Y-90777785D01*
X132838071Y-90634928D01*
X132838071Y-90349214D01*
X132909500Y-90206357D01*
X133052357Y-90134928D01*
X133195214Y-90134928D01*
X133338071Y-90849214D01*
X133838071Y-89492071D02*
X132838071Y-89492071D01*
X133123785Y-89492071D02*
X132980928Y-89420642D01*
X132909500Y-89349214D01*
X132838071Y-89206357D01*
X132838071Y-89063500D01*
X133838071Y-88563500D02*
X132838071Y-88563500D01*
X132338071Y-88563500D02*
X132409500Y-88634928D01*
X132480928Y-88563500D01*
X132409500Y-88492071D01*
X132338071Y-88563500D01*
X132480928Y-88563500D01*
X132838071Y-87849214D02*
X133838071Y-87849214D01*
X132980928Y-87849214D02*
X132909500Y-87777785D01*
X132838071Y-87634928D01*
X132838071Y-87420642D01*
X132909500Y-87277785D01*
X133052357Y-87206357D01*
X133838071Y-87206357D01*
X132838071Y-85849214D02*
X134052357Y-85849214D01*
X134195214Y-85920642D01*
X134266642Y-85992071D01*
X134338071Y-86134928D01*
X134338071Y-86349214D01*
X134266642Y-86492071D01*
X133766642Y-85849214D02*
X133838071Y-85992071D01*
X133838071Y-86277785D01*
X133766642Y-86420642D01*
X133695214Y-86492071D01*
X133552357Y-86563500D01*
X133123785Y-86563500D01*
X132980928Y-86492071D01*
X132909500Y-86420642D01*
X132838071Y-86277785D01*
X132838071Y-85992071D01*
X132909500Y-85849214D01*
X143188500Y-103511928D02*
X143188500Y-102797642D01*
X143617071Y-103654785D02*
X142117071Y-103154785D01*
X143617071Y-102654785D01*
X142617071Y-102154785D02*
X143617071Y-102154785D01*
X142759928Y-102154785D02*
X142688500Y-102083357D01*
X142617071Y-101940500D01*
X142617071Y-101726214D01*
X142688500Y-101583357D01*
X142831357Y-101511928D01*
X143617071Y-101511928D01*
X143617071Y-100154785D02*
X142117071Y-100154785D01*
X143545642Y-100154785D02*
X143617071Y-100297642D01*
X143617071Y-100583357D01*
X143545642Y-100726214D01*
X143474214Y-100797642D01*
X143331357Y-100869071D01*
X142902785Y-100869071D01*
X142759928Y-100797642D01*
X142688500Y-100726214D01*
X142617071Y-100583357D01*
X142617071Y-100297642D01*
X142688500Y-100154785D01*
X143617071Y-98297642D02*
X142117071Y-98297642D01*
X142617071Y-97583357D02*
X143617071Y-97583357D01*
X142759928Y-97583357D02*
X142688500Y-97511928D01*
X142617071Y-97369071D01*
X142617071Y-97154785D01*
X142688500Y-97011928D01*
X142831357Y-96940500D01*
X143617071Y-96940500D01*
X142617071Y-96226214D02*
X143617071Y-96226214D01*
X142759928Y-96226214D02*
X142688500Y-96154785D01*
X142617071Y-96011928D01*
X142617071Y-95797642D01*
X142688500Y-95654785D01*
X142831357Y-95583357D01*
X143617071Y-95583357D01*
X143617071Y-94654785D02*
X143545642Y-94797642D01*
X143474214Y-94869071D01*
X143331357Y-94940500D01*
X142902785Y-94940500D01*
X142759928Y-94869071D01*
X142688500Y-94797642D01*
X142617071Y-94654785D01*
X142617071Y-94440500D01*
X142688500Y-94297642D01*
X142759928Y-94226214D01*
X142902785Y-94154785D01*
X143331357Y-94154785D01*
X143474214Y-94226214D01*
X143545642Y-94297642D01*
X143617071Y-94440500D01*
X143617071Y-94654785D01*
X142617071Y-93654785D02*
X143617071Y-93297642D01*
X142617071Y-92940500D01*
X143617071Y-91726214D02*
X142831357Y-91726214D01*
X142688500Y-91797642D01*
X142617071Y-91940500D01*
X142617071Y-92226214D01*
X142688500Y-92369071D01*
X143545642Y-91726214D02*
X143617071Y-91869071D01*
X143617071Y-92226214D01*
X143545642Y-92369071D01*
X143402785Y-92440500D01*
X143259928Y-92440500D01*
X143117071Y-92369071D01*
X143045642Y-92226214D01*
X143045642Y-91869071D01*
X142974214Y-91726214D01*
X142617071Y-91226214D02*
X142617071Y-90654785D01*
X142117071Y-91011928D02*
X143402785Y-91011928D01*
X143545642Y-90940500D01*
X143617071Y-90797642D01*
X143617071Y-90654785D01*
X143617071Y-90154785D02*
X142617071Y-90154785D01*
X142117071Y-90154785D02*
X142188500Y-90226214D01*
X142259928Y-90154785D01*
X142188500Y-90083357D01*
X142117071Y-90154785D01*
X142259928Y-90154785D01*
X143617071Y-89226214D02*
X143545642Y-89369071D01*
X143474214Y-89440500D01*
X143331357Y-89511928D01*
X142902785Y-89511928D01*
X142759928Y-89440500D01*
X142688500Y-89369071D01*
X142617071Y-89226214D01*
X142617071Y-89011928D01*
X142688500Y-88869071D01*
X142759928Y-88797642D01*
X142902785Y-88726214D01*
X143331357Y-88726214D01*
X143474214Y-88797642D01*
X143545642Y-88869071D01*
X143617071Y-89011928D01*
X143617071Y-89226214D01*
X142617071Y-88083357D02*
X143617071Y-88083357D01*
X142759928Y-88083357D02*
X142688500Y-88011928D01*
X142617071Y-87869071D01*
X142617071Y-87654785D01*
X142688500Y-87511928D01*
X142831357Y-87440500D01*
X143617071Y-87440500D01*
D11*
X164084000Y-96266000D02*
G75*
G03X164084000Y-96266000I-25400000J0D01*
G01*
D10*
X146828571Y-86778571D02*
X146328571Y-86064285D01*
X145971428Y-86778571D02*
X145971428Y-85278571D01*
X146542857Y-85278571D01*
X146685714Y-85350000D01*
X146757142Y-85421428D01*
X146828571Y-85564285D01*
X146828571Y-85778571D01*
X146757142Y-85921428D01*
X146685714Y-85992857D01*
X146542857Y-86064285D01*
X145971428Y-86064285D01*
X147400000Y-86707142D02*
X147542857Y-86778571D01*
X147828571Y-86778571D01*
X147971428Y-86707142D01*
X148042857Y-86564285D01*
X148042857Y-86492857D01*
X147971428Y-86350000D01*
X147828571Y-86278571D01*
X147614285Y-86278571D01*
X147471428Y-86207142D01*
X147400000Y-86064285D01*
X147400000Y-85992857D01*
X147471428Y-85850000D01*
X147614285Y-85778571D01*
X147828571Y-85778571D01*
X147971428Y-85850000D01*
X148471428Y-85778571D02*
X149042857Y-85778571D01*
X148685714Y-85278571D02*
X148685714Y-86564285D01*
X148757142Y-86707142D01*
X148900000Y-86778571D01*
X149042857Y-86778571D01*
X146728571Y-88950000D02*
X147442857Y-88950000D01*
X146585714Y-89378571D02*
X147085714Y-87878571D01*
X147585714Y-89378571D01*
X148371428Y-87878571D02*
X148514285Y-87878571D01*
X148657142Y-87950000D01*
X148728571Y-88021428D01*
X148800000Y-88164285D01*
X148871428Y-88450000D01*
X148871428Y-88807142D01*
X148800000Y-89092857D01*
X148728571Y-89235714D01*
X148657142Y-89307142D01*
X148514285Y-89378571D01*
X148371428Y-89378571D01*
X148228571Y-89307142D01*
X148157142Y-89235714D01*
X148085714Y-89092857D01*
X148014285Y-88807142D01*
X148014285Y-88450000D01*
X148085714Y-88164285D01*
X148157142Y-88021428D01*
X148228571Y-87950000D01*
X148371428Y-87878571D01*
X146692857Y-91978571D02*
X146692857Y-90478571D01*
X147050000Y-90478571D01*
X147264285Y-90550000D01*
X147407142Y-90692857D01*
X147478571Y-90835714D01*
X147550000Y-91121428D01*
X147550000Y-91335714D01*
X147478571Y-91621428D01*
X147407142Y-91764285D01*
X147264285Y-91907142D01*
X147050000Y-91978571D01*
X146692857Y-91978571D01*
X148478571Y-90478571D02*
X148621428Y-90478571D01*
X148764285Y-90550000D01*
X148835714Y-90621428D01*
X148907142Y-90764285D01*
X148978571Y-91050000D01*
X148978571Y-91407142D01*
X148907142Y-91692857D01*
X148835714Y-91835714D01*
X148764285Y-91907142D01*
X148621428Y-91978571D01*
X148478571Y-91978571D01*
X148335714Y-91907142D01*
X148264285Y-91835714D01*
X148192857Y-91692857D01*
X148121428Y-91407142D01*
X148121428Y-91050000D01*
X148192857Y-90764285D01*
X148264285Y-90621428D01*
X148335714Y-90550000D01*
X148478571Y-90478571D01*
X146692857Y-94578571D02*
X146692857Y-93078571D01*
X147050000Y-93078571D01*
X147264285Y-93150000D01*
X147407142Y-93292857D01*
X147478571Y-93435714D01*
X147550000Y-93721428D01*
X147550000Y-93935714D01*
X147478571Y-94221428D01*
X147407142Y-94364285D01*
X147264285Y-94507142D01*
X147050000Y-94578571D01*
X146692857Y-94578571D01*
X148907142Y-93078571D02*
X148192857Y-93078571D01*
X148121428Y-93792857D01*
X148192857Y-93721428D01*
X148335714Y-93650000D01*
X148692857Y-93650000D01*
X148835714Y-93721428D01*
X148907142Y-93792857D01*
X148978571Y-93935714D01*
X148978571Y-94292857D01*
X148907142Y-94435714D01*
X148835714Y-94507142D01*
X148692857Y-94578571D01*
X148335714Y-94578571D01*
X148192857Y-94507142D01*
X148121428Y-94435714D01*
X146692857Y-97078571D02*
X146692857Y-95578571D01*
X147050000Y-95578571D01*
X147264285Y-95650000D01*
X147407142Y-95792857D01*
X147478571Y-95935714D01*
X147550000Y-96221428D01*
X147550000Y-96435714D01*
X147478571Y-96721428D01*
X147407142Y-96864285D01*
X147264285Y-97007142D01*
X147050000Y-97078571D01*
X146692857Y-97078571D01*
X148835714Y-95578571D02*
X148550000Y-95578571D01*
X148407142Y-95650000D01*
X148335714Y-95721428D01*
X148192857Y-95935714D01*
X148121428Y-96221428D01*
X148121428Y-96792857D01*
X148192857Y-96935714D01*
X148264285Y-97007142D01*
X148407142Y-97078571D01*
X148692857Y-97078571D01*
X148835714Y-97007142D01*
X148907142Y-96935714D01*
X148978571Y-96792857D01*
X148978571Y-96435714D01*
X148907142Y-96292857D01*
X148835714Y-96221428D01*
X148692857Y-96150000D01*
X148407142Y-96150000D01*
X148264285Y-96221428D01*
X148192857Y-96292857D01*
X148121428Y-96435714D01*
X146692857Y-99478571D02*
X146692857Y-97978571D01*
X147050000Y-97978571D01*
X147264285Y-98050000D01*
X147407142Y-98192857D01*
X147478571Y-98335714D01*
X147550000Y-98621428D01*
X147550000Y-98835714D01*
X147478571Y-99121428D01*
X147407142Y-99264285D01*
X147264285Y-99407142D01*
X147050000Y-99478571D01*
X146692857Y-99478571D01*
X148050000Y-97978571D02*
X149050000Y-97978571D01*
X148407142Y-99478571D01*
X146692857Y-102078571D02*
X146692857Y-100578571D01*
X147050000Y-100578571D01*
X147264285Y-100650000D01*
X147407142Y-100792857D01*
X147478571Y-100935714D01*
X147550000Y-101221428D01*
X147550000Y-101435714D01*
X147478571Y-101721428D01*
X147407142Y-101864285D01*
X147264285Y-102007142D01*
X147050000Y-102078571D01*
X146692857Y-102078571D01*
X148407142Y-101221428D02*
X148264285Y-101150000D01*
X148192857Y-101078571D01*
X148121428Y-100935714D01*
X148121428Y-100864285D01*
X148192857Y-100721428D01*
X148264285Y-100650000D01*
X148407142Y-100578571D01*
X148692857Y-100578571D01*
X148835714Y-100650000D01*
X148907142Y-100721428D01*
X148978571Y-100864285D01*
X148978571Y-100935714D01*
X148907142Y-101078571D01*
X148835714Y-101150000D01*
X148692857Y-101221428D01*
X148407142Y-101221428D01*
X148264285Y-101292857D01*
X148192857Y-101364285D01*
X148121428Y-101507142D01*
X148121428Y-101792857D01*
X148192857Y-101935714D01*
X148264285Y-102007142D01*
X148407142Y-102078571D01*
X148692857Y-102078571D01*
X148835714Y-102007142D01*
X148907142Y-101935714D01*
X148978571Y-101792857D01*
X148978571Y-101507142D01*
X148907142Y-101364285D01*
X148835714Y-101292857D01*
X148692857Y-101221428D01*
X145242857Y-103078571D02*
X146171428Y-103078571D01*
X145671428Y-103650000D01*
X145885714Y-103650000D01*
X146028571Y-103721428D01*
X146100000Y-103792857D01*
X146171428Y-103935714D01*
X146171428Y-104292857D01*
X146100000Y-104435714D01*
X146028571Y-104507142D01*
X145885714Y-104578571D01*
X145457142Y-104578571D01*
X145314285Y-104507142D01*
X145242857Y-104435714D01*
X146600000Y-103078571D02*
X147100000Y-104578571D01*
X147600000Y-103078571D01*
X147957142Y-103078571D02*
X148885714Y-103078571D01*
X148385714Y-103650000D01*
X148600000Y-103650000D01*
X148742857Y-103721428D01*
X148814285Y-103792857D01*
X148885714Y-103935714D01*
X148885714Y-104292857D01*
X148814285Y-104435714D01*
X148742857Y-104507142D01*
X148600000Y-104578571D01*
X148171428Y-104578571D01*
X148028571Y-104507142D01*
X147957142Y-104435714D01*
X128657142Y-85378571D02*
X129514285Y-85378571D01*
X129085714Y-86878571D02*
X129085714Y-85378571D01*
X129871428Y-85378571D02*
X130871428Y-86878571D01*
X130871428Y-85378571D02*
X129871428Y-86878571D01*
X129750000Y-89478571D02*
X129250000Y-88764285D01*
X128892857Y-89478571D02*
X128892857Y-87978571D01*
X129464285Y-87978571D01*
X129607142Y-88050000D01*
X129678571Y-88121428D01*
X129750000Y-88264285D01*
X129750000Y-88478571D01*
X129678571Y-88621428D01*
X129607142Y-88692857D01*
X129464285Y-88764285D01*
X128892857Y-88764285D01*
X130250000Y-87978571D02*
X131250000Y-89478571D01*
X131250000Y-87978571D02*
X130250000Y-89478571D01*
X128892857Y-91878571D02*
X128892857Y-90378571D01*
X129250000Y-90378571D01*
X129464285Y-90450000D01*
X129607142Y-90592857D01*
X129678571Y-90735714D01*
X129750000Y-91021428D01*
X129750000Y-91235714D01*
X129678571Y-91521428D01*
X129607142Y-91664285D01*
X129464285Y-91807142D01*
X129250000Y-91878571D01*
X128892857Y-91878571D01*
X131178571Y-91878571D02*
X130321428Y-91878571D01*
X130750000Y-91878571D02*
X130750000Y-90378571D01*
X130607142Y-90592857D01*
X130464285Y-90735714D01*
X130321428Y-90807142D01*
X128892857Y-94478571D02*
X128892857Y-92978571D01*
X129250000Y-92978571D01*
X129464285Y-93050000D01*
X129607142Y-93192857D01*
X129678571Y-93335714D01*
X129750000Y-93621428D01*
X129750000Y-93835714D01*
X129678571Y-94121428D01*
X129607142Y-94264285D01*
X129464285Y-94407142D01*
X129250000Y-94478571D01*
X128892857Y-94478571D01*
X130321428Y-93121428D02*
X130392857Y-93050000D01*
X130535714Y-92978571D01*
X130892857Y-92978571D01*
X131035714Y-93050000D01*
X131107142Y-93121428D01*
X131178571Y-93264285D01*
X131178571Y-93407142D01*
X131107142Y-93621428D01*
X130250000Y-94478571D01*
X131178571Y-94478571D01*
X128892857Y-97078571D02*
X128892857Y-95578571D01*
X129250000Y-95578571D01*
X129464285Y-95650000D01*
X129607142Y-95792857D01*
X129678571Y-95935714D01*
X129750000Y-96221428D01*
X129750000Y-96435714D01*
X129678571Y-96721428D01*
X129607142Y-96864285D01*
X129464285Y-97007142D01*
X129250000Y-97078571D01*
X128892857Y-97078571D01*
X130250000Y-95578571D02*
X131178571Y-95578571D01*
X130678571Y-96150000D01*
X130892857Y-96150000D01*
X131035714Y-96221428D01*
X131107142Y-96292857D01*
X131178571Y-96435714D01*
X131178571Y-96792857D01*
X131107142Y-96935714D01*
X131035714Y-97007142D01*
X130892857Y-97078571D01*
X130464285Y-97078571D01*
X130321428Y-97007142D01*
X130250000Y-96935714D01*
X128892857Y-99678571D02*
X128892857Y-98178571D01*
X129250000Y-98178571D01*
X129464285Y-98250000D01*
X129607142Y-98392857D01*
X129678571Y-98535714D01*
X129750000Y-98821428D01*
X129750000Y-99035714D01*
X129678571Y-99321428D01*
X129607142Y-99464285D01*
X129464285Y-99607142D01*
X129250000Y-99678571D01*
X128892857Y-99678571D01*
X131035714Y-98678571D02*
X131035714Y-99678571D01*
X130678571Y-98107142D02*
X130321428Y-99178571D01*
X131250000Y-99178571D01*
X129792857Y-100750000D02*
X129650000Y-100678571D01*
X129435714Y-100678571D01*
X129221428Y-100750000D01*
X129078571Y-100892857D01*
X129007142Y-101035714D01*
X128935714Y-101321428D01*
X128935714Y-101535714D01*
X129007142Y-101821428D01*
X129078571Y-101964285D01*
X129221428Y-102107142D01*
X129435714Y-102178571D01*
X129578571Y-102178571D01*
X129792857Y-102107142D01*
X129864285Y-102035714D01*
X129864285Y-101535714D01*
X129578571Y-101535714D01*
X129614285Y-103178571D02*
X128900000Y-103178571D01*
X128828571Y-103892857D01*
X128900000Y-103821428D01*
X129042857Y-103750000D01*
X129400000Y-103750000D01*
X129542857Y-103821428D01*
X129614285Y-103892857D01*
X129685714Y-104035714D01*
X129685714Y-104392857D01*
X129614285Y-104535714D01*
X129542857Y-104607142D01*
X129400000Y-104678571D01*
X129042857Y-104678571D01*
X128900000Y-104607142D01*
X128828571Y-104535714D01*
X130114285Y-103178571D02*
X130614285Y-104678571D01*
X131114285Y-103178571D01*
D11*
X126861904Y-106852380D02*
X126861904Y-105852380D01*
X127242857Y-105852380D01*
X127338095Y-105900000D01*
X127385714Y-105947619D01*
X127433333Y-106042857D01*
X127433333Y-106185714D01*
X127385714Y-106280952D01*
X127338095Y-106328571D01*
X127242857Y-106376190D01*
X126861904Y-106376190D01*
X128385714Y-106852380D02*
X127814285Y-106852380D01*
X128100000Y-106852380D02*
X128100000Y-105852380D01*
X128004761Y-105995238D01*
X127909523Y-106090476D01*
X127814285Y-106138095D01*
X149561904Y-84252380D02*
X149561904Y-83252380D01*
X149942857Y-83252380D01*
X150038095Y-83300000D01*
X150085714Y-83347619D01*
X150133333Y-83442857D01*
X150133333Y-83585714D01*
X150085714Y-83680952D01*
X150038095Y-83728571D01*
X149942857Y-83776190D01*
X149561904Y-83776190D01*
X150514285Y-83347619D02*
X150561904Y-83300000D01*
X150657142Y-83252380D01*
X150895238Y-83252380D01*
X150990476Y-83300000D01*
X151038095Y-83347619D01*
X151085714Y-83442857D01*
X151085714Y-83538095D01*
X151038095Y-83680952D01*
X150466666Y-84252380D01*
X151085714Y-84252380D01*
M02*
