%TF.GenerationSoftware,KiCad,Pcbnew,5.0.2+dfsg1-1~bpo9+1*%
%TF.CreationDate,2019-04-24T06:15:53+00:00*%
%TF.ProjectId,cointest,636f696e-7465-4737-942e-6b696361645f,rev?*%
%TF.SameCoordinates,Original*%
%TF.FileFunction,Soldermask,Top*%
%TF.FilePolarity,Negative*%
%FSLAX46Y46*%
G04 Gerber Fmt 4.6, Leading zero omitted, Abs format (unit mm)*
G04 Created by KiCad (PCBNEW 5.0.2+dfsg1-1~bpo9+1) date Wed 24 Apr 2019 06:15:53 AM UTC*
%MOMM*%
%LPD*%
G01*
G04 APERTURE LIST*
%ADD10C,0.150000*%
G04 APERTURE END LIST*
D10*
X164084000Y-96266000D02*
G75*
G03X164084000Y-96266000I-25400000J0D01*
G01*
G36*
X138550500Y-115485377D02*
X138552902Y-115509763D01*
X138560015Y-115533212D01*
X138571566Y-115554823D01*
X138587112Y-115573765D01*
X138606054Y-115589311D01*
X138627665Y-115600862D01*
X138651114Y-115607975D01*
X138675500Y-115610377D01*
X138699886Y-115607975D01*
X138723335Y-115600862D01*
X138744946Y-115589311D01*
X138763888Y-115573765D01*
X138779434Y-115554823D01*
X138790985Y-115533212D01*
X138827073Y-115446088D01*
X138958401Y-115249542D01*
X139125542Y-115082401D01*
X139322088Y-114951073D01*
X139540474Y-114860615D01*
X139772309Y-114814500D01*
X140008691Y-114814500D01*
X140240526Y-114860615D01*
X140458912Y-114951073D01*
X140655458Y-115082401D01*
X140822599Y-115249542D01*
X140953927Y-115446088D01*
X141044385Y-115664474D01*
X141090500Y-115896309D01*
X141090500Y-116132691D01*
X141044385Y-116364526D01*
X140953927Y-116582912D01*
X140822599Y-116779458D01*
X140655458Y-116946599D01*
X140458912Y-117077927D01*
X140240526Y-117168385D01*
X140008691Y-117214500D01*
X139772309Y-117214500D01*
X139540474Y-117168385D01*
X139322088Y-117077927D01*
X139125542Y-116946599D01*
X138958401Y-116779458D01*
X138827073Y-116582912D01*
X138790985Y-116495788D01*
X138779434Y-116474177D01*
X138763888Y-116455235D01*
X138744946Y-116439689D01*
X138723335Y-116428138D01*
X138699886Y-116421025D01*
X138675500Y-116418623D01*
X138651114Y-116421025D01*
X138627665Y-116428138D01*
X138606054Y-116439689D01*
X138587112Y-116455235D01*
X138571566Y-116474177D01*
X138560015Y-116495788D01*
X138552902Y-116519237D01*
X138550500Y-116543623D01*
X138550500Y-117214500D01*
X136150500Y-117214500D01*
X136150500Y-114814500D01*
X138550500Y-114814500D01*
X138550500Y-115485377D01*
X138550500Y-115485377D01*
G37*
G36*
X145320376Y-114035605D02*
X145538672Y-114126026D01*
X145735133Y-114257297D01*
X145902203Y-114424367D01*
X146033474Y-114620828D01*
X146123895Y-114839124D01*
X146169990Y-115070859D01*
X146169990Y-115307141D01*
X146123895Y-115538876D01*
X146033474Y-115757172D01*
X145902203Y-115953633D01*
X145735133Y-116120703D01*
X145538672Y-116251974D01*
X145320376Y-116342395D01*
X145088641Y-116388490D01*
X144852359Y-116388490D01*
X144620624Y-116342395D01*
X144402328Y-116251974D01*
X144205867Y-116120703D01*
X144038797Y-115953633D01*
X143907526Y-115757172D01*
X143817105Y-115538876D01*
X143771010Y-115307141D01*
X143771010Y-115070859D01*
X143817105Y-114839124D01*
X143907526Y-114620828D01*
X144038797Y-114424367D01*
X144205867Y-114257297D01*
X144402328Y-114126026D01*
X144620624Y-114035605D01*
X144852359Y-113989510D01*
X145088641Y-113989510D01*
X145320376Y-114035605D01*
X145320376Y-114035605D01*
G37*
G36*
X124301876Y-106542605D02*
X124520172Y-106633026D01*
X124716633Y-106764297D01*
X124883703Y-106931367D01*
X125014974Y-107127828D01*
X125105395Y-107346124D01*
X125151490Y-107577859D01*
X125151490Y-107814141D01*
X125105395Y-108045876D01*
X125014974Y-108264172D01*
X124883703Y-108460633D01*
X124716633Y-108627703D01*
X124520172Y-108758974D01*
X124301876Y-108849395D01*
X124070141Y-108895490D01*
X123833859Y-108895490D01*
X123602124Y-108849395D01*
X123383828Y-108758974D01*
X123187367Y-108627703D01*
X123020297Y-108460633D01*
X122889026Y-108264172D01*
X122798605Y-108045876D01*
X122752510Y-107814141D01*
X122752510Y-107577859D01*
X122798605Y-107346124D01*
X122889026Y-107127828D01*
X123020297Y-106931367D01*
X123187367Y-106764297D01*
X123383828Y-106633026D01*
X123602124Y-106542605D01*
X123833859Y-106496510D01*
X124070141Y-106496510D01*
X124301876Y-106542605D01*
X124301876Y-106542605D01*
G37*
G36*
X145320376Y-106415605D02*
X145538672Y-106506026D01*
X145735133Y-106637297D01*
X145902203Y-106804367D01*
X146033474Y-107000828D01*
X146123895Y-107219124D01*
X146169990Y-107450859D01*
X146169990Y-107687141D01*
X146123895Y-107918876D01*
X146033474Y-108137172D01*
X145902203Y-108333633D01*
X145735133Y-108500703D01*
X145538672Y-108631974D01*
X145320376Y-108722395D01*
X145088641Y-108768490D01*
X144852359Y-108768490D01*
X144620624Y-108722395D01*
X144402328Y-108631974D01*
X144205867Y-108500703D01*
X144038797Y-108333633D01*
X143907526Y-108137172D01*
X143817105Y-107918876D01*
X143771010Y-107687141D01*
X143771010Y-107450859D01*
X143817105Y-107219124D01*
X143907526Y-107000828D01*
X144038797Y-106804367D01*
X144205867Y-106637297D01*
X144402328Y-106506026D01*
X144620624Y-106415605D01*
X144852359Y-106369510D01*
X145088641Y-106369510D01*
X145320376Y-106415605D01*
X145320376Y-106415605D01*
G37*
G36*
X128590000Y-105050000D02*
X126390000Y-105050000D01*
X126390000Y-102850000D01*
X128590000Y-102850000D01*
X128590000Y-105050000D01*
X128590000Y-105050000D01*
G37*
G36*
X151450000Y-105050000D02*
X149250000Y-105050000D01*
X149250000Y-102850000D01*
X151450000Y-102850000D01*
X151450000Y-105050000D01*
X151450000Y-105050000D01*
G37*
G36*
X150565639Y-100325916D02*
X150772986Y-100388815D01*
X150772988Y-100388816D01*
X150964084Y-100490958D01*
X151131581Y-100628419D01*
X151269042Y-100795916D01*
X151371184Y-100987012D01*
X151371185Y-100987014D01*
X151417282Y-101138974D01*
X151434084Y-101194362D01*
X151455322Y-101410000D01*
X151434084Y-101625638D01*
X151371184Y-101832988D01*
X151269042Y-102024084D01*
X151131581Y-102191581D01*
X150964084Y-102329042D01*
X150772988Y-102431184D01*
X150772986Y-102431185D01*
X150565639Y-102494084D01*
X150404038Y-102510000D01*
X150295962Y-102510000D01*
X150134361Y-102494084D01*
X149927014Y-102431185D01*
X149927012Y-102431184D01*
X149735916Y-102329042D01*
X149568419Y-102191581D01*
X149430958Y-102024084D01*
X149328816Y-101832988D01*
X149265916Y-101625638D01*
X149244678Y-101410000D01*
X149265916Y-101194362D01*
X149282718Y-101138974D01*
X149328815Y-100987014D01*
X149328816Y-100987012D01*
X149430958Y-100795916D01*
X149568419Y-100628419D01*
X149735916Y-100490958D01*
X149927012Y-100388816D01*
X149927014Y-100388815D01*
X150134361Y-100325916D01*
X150295962Y-100310000D01*
X150404038Y-100310000D01*
X150565639Y-100325916D01*
X150565639Y-100325916D01*
G37*
G36*
X127705639Y-100325916D02*
X127912986Y-100388815D01*
X127912988Y-100388816D01*
X128104084Y-100490958D01*
X128271581Y-100628419D01*
X128409042Y-100795916D01*
X128511184Y-100987012D01*
X128511185Y-100987014D01*
X128557282Y-101138974D01*
X128574084Y-101194362D01*
X128595322Y-101410000D01*
X128574084Y-101625638D01*
X128511184Y-101832988D01*
X128409042Y-102024084D01*
X128271581Y-102191581D01*
X128104084Y-102329042D01*
X127912988Y-102431184D01*
X127912986Y-102431185D01*
X127705639Y-102494084D01*
X127544038Y-102510000D01*
X127435962Y-102510000D01*
X127274361Y-102494084D01*
X127067014Y-102431185D01*
X127067012Y-102431184D01*
X126875916Y-102329042D01*
X126708419Y-102191581D01*
X126570958Y-102024084D01*
X126468816Y-101832988D01*
X126405916Y-101625638D01*
X126384678Y-101410000D01*
X126405916Y-101194362D01*
X126422718Y-101138974D01*
X126468815Y-100987014D01*
X126468816Y-100987012D01*
X126570958Y-100795916D01*
X126708419Y-100628419D01*
X126875916Y-100490958D01*
X127067012Y-100388816D01*
X127067014Y-100388815D01*
X127274361Y-100325916D01*
X127435962Y-100310000D01*
X127544038Y-100310000D01*
X127705639Y-100325916D01*
X127705639Y-100325916D01*
G37*
G36*
X124301876Y-98922605D02*
X124520172Y-99013026D01*
X124716633Y-99144297D01*
X124883703Y-99311367D01*
X125014974Y-99507828D01*
X125105395Y-99726124D01*
X125151490Y-99957859D01*
X125151490Y-100194141D01*
X125105395Y-100425876D01*
X125014974Y-100644172D01*
X124883703Y-100840633D01*
X124716633Y-101007703D01*
X124520172Y-101138974D01*
X124301876Y-101229395D01*
X124070141Y-101275490D01*
X123833859Y-101275490D01*
X123602124Y-101229395D01*
X123383828Y-101138974D01*
X123187367Y-101007703D01*
X123020297Y-100840633D01*
X122889026Y-100644172D01*
X122798605Y-100425876D01*
X122752510Y-100194141D01*
X122752510Y-99957859D01*
X122798605Y-99726124D01*
X122889026Y-99507828D01*
X123020297Y-99311367D01*
X123187367Y-99144297D01*
X123383828Y-99013026D01*
X123602124Y-98922605D01*
X123833859Y-98876510D01*
X124070141Y-98876510D01*
X124301876Y-98922605D01*
X124301876Y-98922605D01*
G37*
G36*
X139380000Y-100010000D02*
X137480000Y-100010000D01*
X137480000Y-98110000D01*
X139380000Y-98110000D01*
X139380000Y-100010000D01*
X139380000Y-100010000D01*
G37*
G36*
X127705639Y-97785916D02*
X127912986Y-97848815D01*
X127912988Y-97848816D01*
X128104084Y-97950958D01*
X128271581Y-98088419D01*
X128409042Y-98255916D01*
X128511184Y-98447012D01*
X128511185Y-98447014D01*
X128574084Y-98654361D01*
X128595322Y-98870000D01*
X128574084Y-99085639D01*
X128556291Y-99144295D01*
X128511184Y-99292988D01*
X128409042Y-99484084D01*
X128271581Y-99651581D01*
X128104084Y-99789042D01*
X127912988Y-99891184D01*
X127912986Y-99891185D01*
X127705639Y-99954084D01*
X127544038Y-99970000D01*
X127435962Y-99970000D01*
X127274361Y-99954084D01*
X127067014Y-99891185D01*
X127067012Y-99891184D01*
X126875916Y-99789042D01*
X126708419Y-99651581D01*
X126570958Y-99484084D01*
X126468816Y-99292988D01*
X126423710Y-99144295D01*
X126405916Y-99085639D01*
X126384678Y-98870000D01*
X126405916Y-98654361D01*
X126468815Y-98447014D01*
X126468816Y-98447012D01*
X126570958Y-98255916D01*
X126708419Y-98088419D01*
X126875916Y-97950958D01*
X127067012Y-97848816D01*
X127067014Y-97848815D01*
X127274361Y-97785916D01*
X127435962Y-97770000D01*
X127544038Y-97770000D01*
X127705639Y-97785916D01*
X127705639Y-97785916D01*
G37*
G36*
X150565639Y-97785916D02*
X150772986Y-97848815D01*
X150772988Y-97848816D01*
X150964084Y-97950958D01*
X151131581Y-98088419D01*
X151269042Y-98255916D01*
X151371184Y-98447012D01*
X151371185Y-98447014D01*
X151434084Y-98654361D01*
X151455322Y-98870000D01*
X151434084Y-99085639D01*
X151416291Y-99144295D01*
X151371184Y-99292988D01*
X151269042Y-99484084D01*
X151131581Y-99651581D01*
X150964084Y-99789042D01*
X150772988Y-99891184D01*
X150772986Y-99891185D01*
X150565639Y-99954084D01*
X150404038Y-99970000D01*
X150295962Y-99970000D01*
X150134361Y-99954084D01*
X149927014Y-99891185D01*
X149927012Y-99891184D01*
X149735916Y-99789042D01*
X149568419Y-99651581D01*
X149430958Y-99484084D01*
X149328816Y-99292988D01*
X149283710Y-99144295D01*
X149265916Y-99085639D01*
X149244678Y-98870000D01*
X149265916Y-98654361D01*
X149328815Y-98447014D01*
X149328816Y-98447012D01*
X149430958Y-98255916D01*
X149568419Y-98088419D01*
X149735916Y-97950958D01*
X149927012Y-97848816D01*
X149927014Y-97848815D01*
X150134361Y-97785916D01*
X150295962Y-97770000D01*
X150404038Y-97770000D01*
X150565639Y-97785916D01*
X150565639Y-97785916D01*
G37*
G36*
X118929000Y-95815000D02*
X118258123Y-95815000D01*
X118233737Y-95817402D01*
X118210288Y-95824515D01*
X118188677Y-95836066D01*
X118169735Y-95851612D01*
X118154189Y-95870554D01*
X118142638Y-95892165D01*
X118135525Y-95915614D01*
X118133123Y-95940000D01*
X118135525Y-95964386D01*
X118142638Y-95987835D01*
X118154189Y-96009446D01*
X118169735Y-96028388D01*
X118188677Y-96043934D01*
X118210288Y-96055485D01*
X118297412Y-96091573D01*
X118493958Y-96222901D01*
X118661099Y-96390042D01*
X118792427Y-96586588D01*
X118882885Y-96804974D01*
X118929000Y-97036809D01*
X118929000Y-97273191D01*
X118882885Y-97505026D01*
X118792427Y-97723412D01*
X118661099Y-97919958D01*
X118493958Y-98087099D01*
X118297412Y-98218427D01*
X118079026Y-98308885D01*
X117847191Y-98355000D01*
X117610809Y-98355000D01*
X117378974Y-98308885D01*
X117160588Y-98218427D01*
X116964042Y-98087099D01*
X116796901Y-97919958D01*
X116665573Y-97723412D01*
X116575115Y-97505026D01*
X116529000Y-97273191D01*
X116529000Y-97036809D01*
X116575115Y-96804974D01*
X116665573Y-96586588D01*
X116796901Y-96390042D01*
X116964042Y-96222901D01*
X117160588Y-96091573D01*
X117247712Y-96055485D01*
X117269323Y-96043934D01*
X117288265Y-96028388D01*
X117303811Y-96009446D01*
X117315362Y-95987835D01*
X117322475Y-95964386D01*
X117324877Y-95940000D01*
X117322475Y-95915614D01*
X117315362Y-95892165D01*
X117303811Y-95870554D01*
X117288265Y-95851612D01*
X117269323Y-95836066D01*
X117247712Y-95824515D01*
X117224263Y-95817402D01*
X117199877Y-95815000D01*
X116529000Y-95815000D01*
X116529000Y-93415000D01*
X118929000Y-93415000D01*
X118929000Y-95815000D01*
X118929000Y-95815000D01*
G37*
G36*
X157796388Y-96236470D02*
X157976774Y-96272350D01*
X158167862Y-96351502D01*
X158339836Y-96466411D01*
X158486089Y-96612664D01*
X158600998Y-96784638D01*
X158680150Y-96975726D01*
X158720500Y-97178584D01*
X158720500Y-97385416D01*
X158680150Y-97588274D01*
X158600998Y-97779362D01*
X158486089Y-97951336D01*
X158339836Y-98097589D01*
X158167862Y-98212498D01*
X157976774Y-98291650D01*
X157796388Y-98327530D01*
X157773917Y-98332000D01*
X157567083Y-98332000D01*
X157544612Y-98327530D01*
X157364226Y-98291650D01*
X157173138Y-98212498D01*
X157001164Y-98097589D01*
X156854911Y-97951336D01*
X156740002Y-97779362D01*
X156660850Y-97588274D01*
X156620500Y-97385416D01*
X156620500Y-97178584D01*
X156660850Y-96975726D01*
X156740002Y-96784638D01*
X156854911Y-96612664D01*
X157001164Y-96466411D01*
X157173138Y-96351502D01*
X157364226Y-96272350D01*
X157544612Y-96236470D01*
X157567083Y-96232000D01*
X157773917Y-96232000D01*
X157796388Y-96236470D01*
X157796388Y-96236470D01*
G37*
G36*
X138569452Y-95579127D02*
X138707105Y-95606508D01*
X138879994Y-95678121D01*
X139035590Y-95782087D01*
X139167913Y-95914410D01*
X139271879Y-96070006D01*
X139343492Y-96242895D01*
X139380000Y-96426433D01*
X139380000Y-96613567D01*
X139343492Y-96797105D01*
X139271879Y-96969994D01*
X139167913Y-97125590D01*
X139035590Y-97257913D01*
X138879994Y-97361879D01*
X138707105Y-97433492D01*
X138569452Y-97460873D01*
X138523568Y-97470000D01*
X138336432Y-97470000D01*
X138290548Y-97460873D01*
X138152895Y-97433492D01*
X137980006Y-97361879D01*
X137824410Y-97257913D01*
X137692087Y-97125590D01*
X137588121Y-96969994D01*
X137516508Y-96797105D01*
X137480000Y-96613567D01*
X137480000Y-96426433D01*
X137516508Y-96242895D01*
X137588121Y-96070006D01*
X137692087Y-95914410D01*
X137824410Y-95782087D01*
X137980006Y-95678121D01*
X138152895Y-95606508D01*
X138290548Y-95579127D01*
X138336432Y-95570000D01*
X138523568Y-95570000D01*
X138569452Y-95579127D01*
X138569452Y-95579127D01*
G37*
G36*
X150565639Y-95245916D02*
X150772986Y-95308815D01*
X150772988Y-95308816D01*
X150964084Y-95410958D01*
X151131581Y-95548419D01*
X151269042Y-95715916D01*
X151341572Y-95851612D01*
X151371185Y-95907014D01*
X151434084Y-96114361D01*
X151455322Y-96330000D01*
X151434084Y-96545639D01*
X151413478Y-96613568D01*
X151371184Y-96752988D01*
X151269042Y-96944084D01*
X151131581Y-97111581D01*
X150964084Y-97249042D01*
X150772988Y-97351184D01*
X150772986Y-97351185D01*
X150565639Y-97414084D01*
X150404038Y-97430000D01*
X150295962Y-97430000D01*
X150134361Y-97414084D01*
X149927014Y-97351185D01*
X149927012Y-97351184D01*
X149735916Y-97249042D01*
X149568419Y-97111581D01*
X149430958Y-96944084D01*
X149328816Y-96752988D01*
X149286523Y-96613568D01*
X149265916Y-96545639D01*
X149244678Y-96330000D01*
X149265916Y-96114361D01*
X149328815Y-95907014D01*
X149358428Y-95851612D01*
X149430958Y-95715916D01*
X149568419Y-95548419D01*
X149735916Y-95410958D01*
X149927012Y-95308816D01*
X149927014Y-95308815D01*
X150134361Y-95245916D01*
X150295962Y-95230000D01*
X150404038Y-95230000D01*
X150565639Y-95245916D01*
X150565639Y-95245916D01*
G37*
G36*
X127705639Y-95245916D02*
X127912986Y-95308815D01*
X127912988Y-95308816D01*
X128104084Y-95410958D01*
X128271581Y-95548419D01*
X128409042Y-95715916D01*
X128481572Y-95851612D01*
X128511185Y-95907014D01*
X128574084Y-96114361D01*
X128595322Y-96330000D01*
X128574084Y-96545639D01*
X128553478Y-96613568D01*
X128511184Y-96752988D01*
X128409042Y-96944084D01*
X128271581Y-97111581D01*
X128104084Y-97249042D01*
X127912988Y-97351184D01*
X127912986Y-97351185D01*
X127705639Y-97414084D01*
X127544038Y-97430000D01*
X127435962Y-97430000D01*
X127274361Y-97414084D01*
X127067014Y-97351185D01*
X127067012Y-97351184D01*
X126875916Y-97249042D01*
X126708419Y-97111581D01*
X126570958Y-96944084D01*
X126468816Y-96752988D01*
X126426523Y-96613568D01*
X126405916Y-96545639D01*
X126384678Y-96330000D01*
X126405916Y-96114361D01*
X126468815Y-95907014D01*
X126498428Y-95851612D01*
X126570958Y-95715916D01*
X126708419Y-95548419D01*
X126875916Y-95410958D01*
X127067012Y-95308816D01*
X127067014Y-95308815D01*
X127274361Y-95245916D01*
X127435962Y-95230000D01*
X127544038Y-95230000D01*
X127705639Y-95245916D01*
X127705639Y-95245916D01*
G37*
G36*
X157796388Y-93696470D02*
X157976774Y-93732350D01*
X158167862Y-93811502D01*
X158339836Y-93926411D01*
X158486089Y-94072664D01*
X158600998Y-94244638D01*
X158680150Y-94435726D01*
X158720500Y-94638584D01*
X158720500Y-94845416D01*
X158680150Y-95048274D01*
X158600998Y-95239362D01*
X158486089Y-95411336D01*
X158339836Y-95557589D01*
X158167862Y-95672498D01*
X157976774Y-95751650D01*
X157796388Y-95787530D01*
X157773917Y-95792000D01*
X157567083Y-95792000D01*
X157544612Y-95787530D01*
X157364226Y-95751650D01*
X157173138Y-95672498D01*
X157001164Y-95557589D01*
X156854911Y-95411336D01*
X156740002Y-95239362D01*
X156660850Y-95048274D01*
X156620500Y-94845416D01*
X156620500Y-94638584D01*
X156660850Y-94435726D01*
X156740002Y-94244638D01*
X156854911Y-94072664D01*
X157001164Y-93926411D01*
X157173138Y-93811502D01*
X157364226Y-93732350D01*
X157544612Y-93696470D01*
X157567083Y-93692000D01*
X157773917Y-93692000D01*
X157796388Y-93696470D01*
X157796388Y-93696470D01*
G37*
G36*
X138569451Y-93039127D02*
X138707105Y-93066508D01*
X138879994Y-93138121D01*
X139035590Y-93242087D01*
X139167913Y-93374410D01*
X139271879Y-93530006D01*
X139343492Y-93702895D01*
X139380000Y-93886433D01*
X139380000Y-94073567D01*
X139343492Y-94257105D01*
X139271879Y-94429994D01*
X139167913Y-94585590D01*
X139035590Y-94717913D01*
X138879994Y-94821879D01*
X138707105Y-94893492D01*
X138569451Y-94920873D01*
X138523568Y-94930000D01*
X138336432Y-94930000D01*
X138290549Y-94920873D01*
X138152895Y-94893492D01*
X137980006Y-94821879D01*
X137824410Y-94717913D01*
X137692087Y-94585590D01*
X137588121Y-94429994D01*
X137516508Y-94257105D01*
X137480000Y-94073567D01*
X137480000Y-93886433D01*
X137516508Y-93702895D01*
X137588121Y-93530006D01*
X137692087Y-93374410D01*
X137824410Y-93242087D01*
X137980006Y-93138121D01*
X138152895Y-93066508D01*
X138290549Y-93039127D01*
X138336432Y-93030000D01*
X138523568Y-93030000D01*
X138569451Y-93039127D01*
X138569451Y-93039127D01*
G37*
G36*
X127705639Y-92705916D02*
X127912986Y-92768815D01*
X127912988Y-92768816D01*
X128104084Y-92870958D01*
X128271581Y-93008419D01*
X128409042Y-93175916D01*
X128511184Y-93367012D01*
X128511185Y-93367014D01*
X128574084Y-93574361D01*
X128595322Y-93790000D01*
X128574084Y-94005639D01*
X128553478Y-94073568D01*
X128511184Y-94212988D01*
X128409042Y-94404084D01*
X128271581Y-94571581D01*
X128104084Y-94709042D01*
X127912988Y-94811184D01*
X127912986Y-94811185D01*
X127705639Y-94874084D01*
X127544038Y-94890000D01*
X127435962Y-94890000D01*
X127274361Y-94874084D01*
X127067014Y-94811185D01*
X127067012Y-94811184D01*
X126875916Y-94709042D01*
X126708419Y-94571581D01*
X126570958Y-94404084D01*
X126468816Y-94212988D01*
X126426523Y-94073568D01*
X126405916Y-94005639D01*
X126384678Y-93790000D01*
X126405916Y-93574361D01*
X126468815Y-93367014D01*
X126468816Y-93367012D01*
X126570958Y-93175916D01*
X126708419Y-93008419D01*
X126875916Y-92870958D01*
X127067012Y-92768816D01*
X127067014Y-92768815D01*
X127274361Y-92705916D01*
X127435962Y-92690000D01*
X127544038Y-92690000D01*
X127705639Y-92705916D01*
X127705639Y-92705916D01*
G37*
G36*
X150565639Y-92705916D02*
X150772986Y-92768815D01*
X150772988Y-92768816D01*
X150964084Y-92870958D01*
X151131581Y-93008419D01*
X151269042Y-93175916D01*
X151371184Y-93367012D01*
X151371185Y-93367014D01*
X151434084Y-93574361D01*
X151455322Y-93790000D01*
X151434084Y-94005639D01*
X151413478Y-94073568D01*
X151371184Y-94212988D01*
X151269042Y-94404084D01*
X151131581Y-94571581D01*
X150964084Y-94709042D01*
X150772988Y-94811184D01*
X150772986Y-94811185D01*
X150565639Y-94874084D01*
X150404038Y-94890000D01*
X150295962Y-94890000D01*
X150134361Y-94874084D01*
X149927014Y-94811185D01*
X149927012Y-94811184D01*
X149735916Y-94709042D01*
X149568419Y-94571581D01*
X149430958Y-94404084D01*
X149328816Y-94212988D01*
X149286523Y-94073568D01*
X149265916Y-94005639D01*
X149244678Y-93790000D01*
X149265916Y-93574361D01*
X149328815Y-93367014D01*
X149328816Y-93367012D01*
X149430958Y-93175916D01*
X149568419Y-93008419D01*
X149735916Y-92870958D01*
X149927012Y-92768816D01*
X149927014Y-92768815D01*
X150134361Y-92705916D01*
X150295962Y-92690000D01*
X150404038Y-92690000D01*
X150565639Y-92705916D01*
X150565639Y-92705916D01*
G37*
G36*
X158695500Y-93277000D02*
X156595500Y-93277000D01*
X156595500Y-91177000D01*
X158695500Y-91177000D01*
X158695500Y-93277000D01*
X158695500Y-93277000D01*
G37*
G36*
X138569451Y-90499127D02*
X138707105Y-90526508D01*
X138879994Y-90598121D01*
X139035590Y-90702087D01*
X139167913Y-90834410D01*
X139271879Y-90990006D01*
X139343492Y-91162895D01*
X139380000Y-91346433D01*
X139380000Y-91533567D01*
X139343492Y-91717105D01*
X139271879Y-91889994D01*
X139167913Y-92045590D01*
X139035590Y-92177913D01*
X138879994Y-92281879D01*
X138707105Y-92353492D01*
X138569451Y-92380873D01*
X138523568Y-92390000D01*
X138336432Y-92390000D01*
X138290548Y-92380873D01*
X138152895Y-92353492D01*
X137980006Y-92281879D01*
X137824410Y-92177913D01*
X137692087Y-92045590D01*
X137588121Y-91889994D01*
X137516508Y-91717105D01*
X137480000Y-91533567D01*
X137480000Y-91346433D01*
X137516508Y-91162895D01*
X137588121Y-90990006D01*
X137692087Y-90834410D01*
X137824410Y-90702087D01*
X137980006Y-90598121D01*
X138152895Y-90526508D01*
X138290548Y-90499127D01*
X138336432Y-90490000D01*
X138523568Y-90490000D01*
X138569451Y-90499127D01*
X138569451Y-90499127D01*
G37*
G36*
X150565639Y-90165916D02*
X150772986Y-90228815D01*
X150772988Y-90228816D01*
X150964084Y-90330958D01*
X151131581Y-90468419D01*
X151269042Y-90635916D01*
X151371184Y-90827012D01*
X151371185Y-90827014D01*
X151434084Y-91034361D01*
X151455322Y-91250000D01*
X151434084Y-91465639D01*
X151413478Y-91533568D01*
X151371184Y-91672988D01*
X151269042Y-91864084D01*
X151131581Y-92031581D01*
X150964084Y-92169042D01*
X150772988Y-92271184D01*
X150772986Y-92271185D01*
X150565639Y-92334084D01*
X150404038Y-92350000D01*
X150295962Y-92350000D01*
X150134361Y-92334084D01*
X149927014Y-92271185D01*
X149927012Y-92271184D01*
X149735916Y-92169042D01*
X149568419Y-92031581D01*
X149430958Y-91864084D01*
X149328816Y-91672988D01*
X149286523Y-91533568D01*
X149265916Y-91465639D01*
X149244678Y-91250000D01*
X149265916Y-91034361D01*
X149328815Y-90827014D01*
X149328816Y-90827012D01*
X149430958Y-90635916D01*
X149568419Y-90468419D01*
X149735916Y-90330958D01*
X149927012Y-90228816D01*
X149927014Y-90228815D01*
X150134361Y-90165916D01*
X150295962Y-90150000D01*
X150404038Y-90150000D01*
X150565639Y-90165916D01*
X150565639Y-90165916D01*
G37*
G36*
X127705639Y-90165916D02*
X127912986Y-90228815D01*
X127912988Y-90228816D01*
X128104084Y-90330958D01*
X128271581Y-90468419D01*
X128409042Y-90635916D01*
X128511184Y-90827012D01*
X128511185Y-90827014D01*
X128574084Y-91034361D01*
X128595322Y-91250000D01*
X128574084Y-91465639D01*
X128553478Y-91533568D01*
X128511184Y-91672988D01*
X128409042Y-91864084D01*
X128271581Y-92031581D01*
X128104084Y-92169042D01*
X127912988Y-92271184D01*
X127912986Y-92271185D01*
X127705639Y-92334084D01*
X127544038Y-92350000D01*
X127435962Y-92350000D01*
X127274361Y-92334084D01*
X127067014Y-92271185D01*
X127067012Y-92271184D01*
X126875916Y-92169042D01*
X126708419Y-92031581D01*
X126570958Y-91864084D01*
X126468816Y-91672988D01*
X126426523Y-91533568D01*
X126405916Y-91465639D01*
X126384678Y-91250000D01*
X126405916Y-91034361D01*
X126468815Y-90827014D01*
X126468816Y-90827012D01*
X126570958Y-90635916D01*
X126708419Y-90468419D01*
X126875916Y-90330958D01*
X127067012Y-90228816D01*
X127067014Y-90228815D01*
X127274361Y-90165916D01*
X127435962Y-90150000D01*
X127544038Y-90150000D01*
X127705639Y-90165916D01*
X127705639Y-90165916D01*
G37*
G36*
X122857770Y-86645372D02*
X122973689Y-86668429D01*
X123155678Y-86743811D01*
X123319463Y-86853249D01*
X123458751Y-86992537D01*
X123568189Y-87156322D01*
X123643571Y-87338311D01*
X123666628Y-87454230D01*
X123682000Y-87531507D01*
X123682000Y-87728493D01*
X123675911Y-87759105D01*
X123673509Y-87783491D01*
X123675911Y-87807878D01*
X123683024Y-87831327D01*
X123694576Y-87852938D01*
X123710121Y-87871880D01*
X123729063Y-87887425D01*
X123750674Y-87898976D01*
X123774123Y-87906089D01*
X123798509Y-87908491D01*
X123822895Y-87906089D01*
X123853507Y-87900000D01*
X124050493Y-87900000D01*
X124127770Y-87915372D01*
X124243689Y-87938429D01*
X124425678Y-88013811D01*
X124589463Y-88123249D01*
X124728751Y-88262537D01*
X124838189Y-88426322D01*
X124913571Y-88608311D01*
X124952000Y-88801509D01*
X124952000Y-88998491D01*
X124913571Y-89191689D01*
X124838189Y-89373678D01*
X124728751Y-89537463D01*
X124589463Y-89676751D01*
X124425678Y-89786189D01*
X124243689Y-89861571D01*
X124127770Y-89884628D01*
X124050493Y-89900000D01*
X123853507Y-89900000D01*
X123776230Y-89884628D01*
X123660311Y-89861571D01*
X123478322Y-89786189D01*
X123314537Y-89676751D01*
X123175249Y-89537463D01*
X123065811Y-89373678D01*
X122990429Y-89191689D01*
X122952000Y-88998491D01*
X122952000Y-88801509D01*
X122958089Y-88770895D01*
X122960491Y-88746509D01*
X122958089Y-88722122D01*
X122950976Y-88698673D01*
X122939424Y-88677062D01*
X122923879Y-88658120D01*
X122904937Y-88642575D01*
X122883326Y-88631024D01*
X122859877Y-88623911D01*
X122835491Y-88621509D01*
X122811105Y-88623911D01*
X122780493Y-88630000D01*
X122583507Y-88630000D01*
X122390314Y-88591572D01*
X122390312Y-88591571D01*
X122390311Y-88591571D01*
X122384829Y-88589300D01*
X122361389Y-88582189D01*
X122337003Y-88579787D01*
X122312617Y-88582188D01*
X122289168Y-88589301D01*
X122267556Y-88600852D01*
X122248614Y-88616396D01*
X122233068Y-88635338D01*
X122221516Y-88656949D01*
X122214402Y-88680398D01*
X122212000Y-88704787D01*
X122212000Y-89700000D01*
X120612000Y-89700000D01*
X120612000Y-88100000D01*
X121607213Y-88100000D01*
X121631599Y-88097598D01*
X121655048Y-88090485D01*
X121676659Y-88078934D01*
X121695601Y-88063388D01*
X121711147Y-88044446D01*
X121722698Y-88022835D01*
X121729811Y-87999386D01*
X121732213Y-87975000D01*
X121729811Y-87950614D01*
X121722700Y-87927171D01*
X121720429Y-87921689D01*
X121717804Y-87908491D01*
X121682000Y-87728493D01*
X121682000Y-87531507D01*
X121697372Y-87454230D01*
X121720429Y-87338311D01*
X121795811Y-87156322D01*
X121905249Y-86992537D01*
X122044537Y-86853249D01*
X122208322Y-86743811D01*
X122390311Y-86668429D01*
X122506230Y-86645372D01*
X122583507Y-86630000D01*
X122780493Y-86630000D01*
X122857770Y-86645372D01*
X122857770Y-86645372D01*
G37*
G36*
X127705639Y-87625916D02*
X127912986Y-87688815D01*
X127912988Y-87688816D01*
X128104084Y-87790958D01*
X128271581Y-87928419D01*
X128409042Y-88095916D01*
X128498100Y-88262534D01*
X128511185Y-88287014D01*
X128574084Y-88494361D01*
X128595322Y-88710000D01*
X128574084Y-88925639D01*
X128551984Y-88998493D01*
X128511184Y-89132988D01*
X128409042Y-89324084D01*
X128271581Y-89491581D01*
X128104084Y-89629042D01*
X127912988Y-89731184D01*
X127912986Y-89731185D01*
X127705639Y-89794084D01*
X127544038Y-89810000D01*
X127435962Y-89810000D01*
X127274361Y-89794084D01*
X127067014Y-89731185D01*
X127067012Y-89731184D01*
X126875916Y-89629042D01*
X126708419Y-89491581D01*
X126570958Y-89324084D01*
X126468816Y-89132988D01*
X126428017Y-88998493D01*
X126405916Y-88925639D01*
X126384678Y-88710000D01*
X126405916Y-88494361D01*
X126468815Y-88287014D01*
X126481900Y-88262534D01*
X126570958Y-88095916D01*
X126708419Y-87928419D01*
X126875916Y-87790958D01*
X127067012Y-87688816D01*
X127067014Y-87688815D01*
X127274361Y-87625916D01*
X127435962Y-87610000D01*
X127544038Y-87610000D01*
X127705639Y-87625916D01*
X127705639Y-87625916D01*
G37*
G36*
X150565639Y-87625916D02*
X150772986Y-87688815D01*
X150772988Y-87688816D01*
X150964084Y-87790958D01*
X151131581Y-87928419D01*
X151269042Y-88095916D01*
X151358100Y-88262534D01*
X151371185Y-88287014D01*
X151434084Y-88494361D01*
X151455322Y-88710000D01*
X151434084Y-88925639D01*
X151411984Y-88998493D01*
X151371184Y-89132988D01*
X151269042Y-89324084D01*
X151131581Y-89491581D01*
X150964084Y-89629042D01*
X150772988Y-89731184D01*
X150772986Y-89731185D01*
X150565639Y-89794084D01*
X150404038Y-89810000D01*
X150295962Y-89810000D01*
X150134361Y-89794084D01*
X149927014Y-89731185D01*
X149927012Y-89731184D01*
X149735916Y-89629042D01*
X149568419Y-89491581D01*
X149430958Y-89324084D01*
X149328816Y-89132988D01*
X149288017Y-88998493D01*
X149265916Y-88925639D01*
X149244678Y-88710000D01*
X149265916Y-88494361D01*
X149328815Y-88287014D01*
X149341900Y-88262534D01*
X149430958Y-88095916D01*
X149568419Y-87928419D01*
X149735916Y-87790958D01*
X149927012Y-87688816D01*
X149927014Y-87688815D01*
X150134361Y-87625916D01*
X150295962Y-87610000D01*
X150404038Y-87610000D01*
X150565639Y-87625916D01*
X150565639Y-87625916D01*
G37*
G36*
X127705639Y-85085916D02*
X127912986Y-85148815D01*
X127912988Y-85148816D01*
X128104084Y-85250958D01*
X128271581Y-85388419D01*
X128409042Y-85555916D01*
X128511184Y-85747012D01*
X128574084Y-85954362D01*
X128595322Y-86170000D01*
X128574084Y-86385638D01*
X128511184Y-86592988D01*
X128409042Y-86784084D01*
X128271581Y-86951581D01*
X128104084Y-87089042D01*
X127912988Y-87191184D01*
X127912986Y-87191185D01*
X127705639Y-87254084D01*
X127544038Y-87270000D01*
X127435962Y-87270000D01*
X127274361Y-87254084D01*
X127067014Y-87191185D01*
X127067012Y-87191184D01*
X126875916Y-87089042D01*
X126708419Y-86951581D01*
X126570958Y-86784084D01*
X126468816Y-86592988D01*
X126405916Y-86385638D01*
X126384678Y-86170000D01*
X126405916Y-85954362D01*
X126468816Y-85747012D01*
X126570958Y-85555916D01*
X126708419Y-85388419D01*
X126875916Y-85250958D01*
X127067012Y-85148816D01*
X127067014Y-85148815D01*
X127274361Y-85085916D01*
X127435962Y-85070000D01*
X127544038Y-85070000D01*
X127705639Y-85085916D01*
X127705639Y-85085916D01*
G37*
G36*
X150565639Y-85085916D02*
X150772986Y-85148815D01*
X150772988Y-85148816D01*
X150964084Y-85250958D01*
X151131581Y-85388419D01*
X151269042Y-85555916D01*
X151371184Y-85747012D01*
X151434084Y-85954362D01*
X151455322Y-86170000D01*
X151434084Y-86385638D01*
X151371184Y-86592988D01*
X151269042Y-86784084D01*
X151131581Y-86951581D01*
X150964084Y-87089042D01*
X150772988Y-87191184D01*
X150772986Y-87191185D01*
X150565639Y-87254084D01*
X150404038Y-87270000D01*
X150295962Y-87270000D01*
X150134361Y-87254084D01*
X149927014Y-87191185D01*
X149927012Y-87191184D01*
X149735916Y-87089042D01*
X149568419Y-86951581D01*
X149430958Y-86784084D01*
X149328816Y-86592988D01*
X149265916Y-86385638D01*
X149244678Y-86170000D01*
X149265916Y-85954362D01*
X149328816Y-85747012D01*
X149430958Y-85555916D01*
X149568419Y-85388419D01*
X149735916Y-85250958D01*
X149927012Y-85148816D01*
X149927014Y-85148815D01*
X150134361Y-85085916D01*
X150295962Y-85070000D01*
X150404038Y-85070000D01*
X150565639Y-85085916D01*
X150565639Y-85085916D01*
G37*
G36*
X140049876Y-81396605D02*
X140268172Y-81487026D01*
X140464633Y-81618297D01*
X140631703Y-81785367D01*
X140762974Y-81981828D01*
X140853395Y-82200124D01*
X140899490Y-82431859D01*
X140899490Y-82668141D01*
X140853395Y-82899876D01*
X140762974Y-83118172D01*
X140631703Y-83314633D01*
X140464633Y-83481703D01*
X140268172Y-83612974D01*
X140049876Y-83703395D01*
X139818141Y-83749490D01*
X139581859Y-83749490D01*
X139350124Y-83703395D01*
X139131828Y-83612974D01*
X138935367Y-83481703D01*
X138768297Y-83314633D01*
X138637026Y-83118172D01*
X138546605Y-82899876D01*
X138500510Y-82668141D01*
X138500510Y-82431859D01*
X138546605Y-82200124D01*
X138637026Y-81981828D01*
X138768297Y-81785367D01*
X138935367Y-81618297D01*
X139131828Y-81487026D01*
X139350124Y-81396605D01*
X139581859Y-81350510D01*
X139818141Y-81350510D01*
X140049876Y-81396605D01*
X140049876Y-81396605D01*
G37*
G36*
X147669876Y-81396605D02*
X147888172Y-81487026D01*
X148084633Y-81618297D01*
X148251703Y-81785367D01*
X148382974Y-81981828D01*
X148473395Y-82200124D01*
X148519490Y-82431859D01*
X148519490Y-82668141D01*
X148473395Y-82899876D01*
X148382974Y-83118172D01*
X148251703Y-83314633D01*
X148084633Y-83481703D01*
X147888172Y-83612974D01*
X147669876Y-83703395D01*
X147438141Y-83749490D01*
X147201859Y-83749490D01*
X146970124Y-83703395D01*
X146751828Y-83612974D01*
X146555367Y-83481703D01*
X146388297Y-83314633D01*
X146257026Y-83118172D01*
X146166605Y-82899876D01*
X146120510Y-82668141D01*
X146120510Y-82431859D01*
X146166605Y-82200124D01*
X146257026Y-81981828D01*
X146388297Y-81785367D01*
X146555367Y-81618297D01*
X146751828Y-81487026D01*
X146970124Y-81396605D01*
X147201859Y-81350510D01*
X147438141Y-81350510D01*
X147669876Y-81396605D01*
X147669876Y-81396605D01*
G37*
G36*
X134207876Y-81142605D02*
X134426172Y-81233026D01*
X134622633Y-81364297D01*
X134789703Y-81531367D01*
X134920974Y-81727828D01*
X135011395Y-81946124D01*
X135057490Y-82177859D01*
X135057490Y-82414141D01*
X135011395Y-82645876D01*
X134920974Y-82864172D01*
X134789703Y-83060633D01*
X134622633Y-83227703D01*
X134426172Y-83358974D01*
X134207876Y-83449395D01*
X133976141Y-83495490D01*
X133739859Y-83495490D01*
X133508124Y-83449395D01*
X133289828Y-83358974D01*
X133093367Y-83227703D01*
X132926297Y-83060633D01*
X132795026Y-82864172D01*
X132704605Y-82645876D01*
X132658510Y-82414141D01*
X132658510Y-82177859D01*
X132704605Y-81946124D01*
X132795026Y-81727828D01*
X132926297Y-81531367D01*
X133093367Y-81364297D01*
X133289828Y-81233026D01*
X133508124Y-81142605D01*
X133739859Y-81096510D01*
X133976141Y-81096510D01*
X134207876Y-81142605D01*
X134207876Y-81142605D01*
G37*
G36*
X126587876Y-81142605D02*
X126806172Y-81233026D01*
X127002633Y-81364297D01*
X127169703Y-81531367D01*
X127300974Y-81727828D01*
X127391395Y-81946124D01*
X127437490Y-82177859D01*
X127437490Y-82414141D01*
X127391395Y-82645876D01*
X127300974Y-82864172D01*
X127169703Y-83060633D01*
X127002633Y-83227703D01*
X126806172Y-83358974D01*
X126587876Y-83449395D01*
X126356141Y-83495490D01*
X126119859Y-83495490D01*
X125888124Y-83449395D01*
X125669828Y-83358974D01*
X125473367Y-83227703D01*
X125306297Y-83060633D01*
X125175026Y-82864172D01*
X125084605Y-82645876D01*
X125038510Y-82414141D01*
X125038510Y-82177859D01*
X125084605Y-81946124D01*
X125175026Y-81727828D01*
X125306297Y-81531367D01*
X125473367Y-81364297D01*
X125669828Y-81233026D01*
X125888124Y-81142605D01*
X126119859Y-81096510D01*
X126356141Y-81096510D01*
X126587876Y-81142605D01*
X126587876Y-81142605D01*
G37*
G36*
X138995000Y-76051877D02*
X138997402Y-76076263D01*
X139004515Y-76099712D01*
X139016066Y-76121323D01*
X139031612Y-76140265D01*
X139050554Y-76155811D01*
X139072165Y-76167362D01*
X139095614Y-76174475D01*
X139120000Y-76176877D01*
X139144386Y-76174475D01*
X139167835Y-76167362D01*
X139189446Y-76155811D01*
X139208388Y-76140265D01*
X139223934Y-76121323D01*
X139235485Y-76099712D01*
X139271573Y-76012588D01*
X139402901Y-75816042D01*
X139570042Y-75648901D01*
X139766588Y-75517573D01*
X139984974Y-75427115D01*
X140216809Y-75381000D01*
X140453191Y-75381000D01*
X140685026Y-75427115D01*
X140903412Y-75517573D01*
X141099958Y-75648901D01*
X141267099Y-75816042D01*
X141398427Y-76012588D01*
X141488885Y-76230974D01*
X141535000Y-76462809D01*
X141535000Y-76699191D01*
X141488885Y-76931026D01*
X141398427Y-77149412D01*
X141267099Y-77345958D01*
X141099958Y-77513099D01*
X140903412Y-77644427D01*
X140685026Y-77734885D01*
X140453191Y-77781000D01*
X140216809Y-77781000D01*
X139984974Y-77734885D01*
X139766588Y-77644427D01*
X139570042Y-77513099D01*
X139402901Y-77345958D01*
X139271573Y-77149412D01*
X139235485Y-77062288D01*
X139223934Y-77040677D01*
X139208388Y-77021735D01*
X139189446Y-77006189D01*
X139167835Y-76994638D01*
X139144386Y-76987525D01*
X139120000Y-76985123D01*
X139095614Y-76987525D01*
X139072165Y-76994638D01*
X139050554Y-77006189D01*
X139031612Y-77021735D01*
X139016066Y-77040677D01*
X139004515Y-77062288D01*
X138997402Y-77085737D01*
X138995000Y-77110123D01*
X138995000Y-77781000D01*
X136595000Y-77781000D01*
X136595000Y-75381000D01*
X138995000Y-75381000D01*
X138995000Y-76051877D01*
X138995000Y-76051877D01*
G37*
M02*
