%TF.GenerationSoftware,KiCad,Pcbnew,5.0.2+dfsg1-1~bpo9+1*%
%TF.CreationDate,2019-04-24T06:15:53+00:00*%
%TF.ProjectId,cointest,636f696e-7465-4737-942e-6b696361645f,rev?*%
%TF.SameCoordinates,Original*%
%TF.FileFunction,Legend,Bot*%
%TF.FilePolarity,Positive*%
%FSLAX46Y46*%
G04 Gerber Fmt 4.6, Leading zero omitted, Abs format (unit mm)*
G04 Created by KiCad (PCBNEW 5.0.2+dfsg1-1~bpo9+1) date Wed 24 Apr 2019 06:15:53 AM UTC*
%MOMM*%
%LPD*%
G01*
G04 APERTURE LIST*
%ADD10C,0.300000*%
%ADD11C,0.150000*%
%ADD12C,0.120000*%
%ADD13C,0.100000*%
G04 APERTURE END LIST*
D10*
X143125000Y-87305571D02*
X143125000Y-88019857D01*
X143553571Y-87162714D02*
X142053571Y-87662714D01*
X143553571Y-88162714D01*
X142553571Y-88662714D02*
X143553571Y-88662714D01*
X142696428Y-88662714D02*
X142625000Y-88734142D01*
X142553571Y-88877000D01*
X142553571Y-89091285D01*
X142625000Y-89234142D01*
X142767857Y-89305571D01*
X143553571Y-89305571D01*
X143553571Y-90662714D02*
X142053571Y-90662714D01*
X143482142Y-90662714D02*
X143553571Y-90519857D01*
X143553571Y-90234142D01*
X143482142Y-90091285D01*
X143410714Y-90019857D01*
X143267857Y-89948428D01*
X142839285Y-89948428D01*
X142696428Y-90019857D01*
X142625000Y-90091285D01*
X142553571Y-90234142D01*
X142553571Y-90519857D01*
X142625000Y-90662714D01*
X143553571Y-92519857D02*
X142053571Y-92519857D01*
X142553571Y-93234142D02*
X143553571Y-93234142D01*
X142696428Y-93234142D02*
X142625000Y-93305571D01*
X142553571Y-93448428D01*
X142553571Y-93662714D01*
X142625000Y-93805571D01*
X142767857Y-93877000D01*
X143553571Y-93877000D01*
X142553571Y-94591285D02*
X143553571Y-94591285D01*
X142696428Y-94591285D02*
X142625000Y-94662714D01*
X142553571Y-94805571D01*
X142553571Y-95019857D01*
X142625000Y-95162714D01*
X142767857Y-95234142D01*
X143553571Y-95234142D01*
X143553571Y-96162714D02*
X143482142Y-96019857D01*
X143410714Y-95948428D01*
X143267857Y-95877000D01*
X142839285Y-95877000D01*
X142696428Y-95948428D01*
X142625000Y-96019857D01*
X142553571Y-96162714D01*
X142553571Y-96377000D01*
X142625000Y-96519857D01*
X142696428Y-96591285D01*
X142839285Y-96662714D01*
X143267857Y-96662714D01*
X143410714Y-96591285D01*
X143482142Y-96519857D01*
X143553571Y-96377000D01*
X143553571Y-96162714D01*
X142553571Y-97162714D02*
X143553571Y-97519857D01*
X142553571Y-97877000D01*
X143553571Y-99091285D02*
X142767857Y-99091285D01*
X142625000Y-99019857D01*
X142553571Y-98877000D01*
X142553571Y-98591285D01*
X142625000Y-98448428D01*
X143482142Y-99091285D02*
X143553571Y-98948428D01*
X143553571Y-98591285D01*
X143482142Y-98448428D01*
X143339285Y-98377000D01*
X143196428Y-98377000D01*
X143053571Y-98448428D01*
X142982142Y-98591285D01*
X142982142Y-98948428D01*
X142910714Y-99091285D01*
X142553571Y-99591285D02*
X142553571Y-100162714D01*
X142053571Y-99805571D02*
X143339285Y-99805571D01*
X143482142Y-99877000D01*
X143553571Y-100019857D01*
X143553571Y-100162714D01*
X143553571Y-100662714D02*
X142553571Y-100662714D01*
X142053571Y-100662714D02*
X142125000Y-100591285D01*
X142196428Y-100662714D01*
X142125000Y-100734142D01*
X142053571Y-100662714D01*
X142196428Y-100662714D01*
X143553571Y-101591285D02*
X143482142Y-101448428D01*
X143410714Y-101377000D01*
X143267857Y-101305571D01*
X142839285Y-101305571D01*
X142696428Y-101377000D01*
X142625000Y-101448428D01*
X142553571Y-101591285D01*
X142553571Y-101805571D01*
X142625000Y-101948428D01*
X142696428Y-102019857D01*
X142839285Y-102091285D01*
X143267857Y-102091285D01*
X143410714Y-102019857D01*
X143482142Y-101948428D01*
X143553571Y-101805571D01*
X143553571Y-101591285D01*
X142553571Y-102734142D02*
X143553571Y-102734142D01*
X142696428Y-102734142D02*
X142625000Y-102805571D01*
X142553571Y-102948428D01*
X142553571Y-103162714D01*
X142625000Y-103305571D01*
X142767857Y-103377000D01*
X143553571Y-103377000D01*
X133600000Y-85714285D02*
X133600000Y-86428571D01*
X134028571Y-85571428D02*
X132528571Y-86071428D01*
X134028571Y-86571428D01*
X133028571Y-87714285D02*
X134242857Y-87714285D01*
X134385714Y-87642857D01*
X134457142Y-87571428D01*
X134528571Y-87428571D01*
X134528571Y-87214285D01*
X134457142Y-87071428D01*
X133957142Y-87714285D02*
X134028571Y-87571428D01*
X134028571Y-87285714D01*
X133957142Y-87142857D01*
X133885714Y-87071428D01*
X133742857Y-87000000D01*
X133314285Y-87000000D01*
X133171428Y-87071428D01*
X133100000Y-87142857D01*
X133028571Y-87285714D01*
X133028571Y-87571428D01*
X133100000Y-87714285D01*
X134028571Y-88428571D02*
X133028571Y-88428571D01*
X132528571Y-88428571D02*
X132600000Y-88357142D01*
X132671428Y-88428571D01*
X132600000Y-88500000D01*
X132528571Y-88428571D01*
X132671428Y-88428571D01*
X134028571Y-89357142D02*
X133957142Y-89214285D01*
X133814285Y-89142857D01*
X132528571Y-89142857D01*
X133957142Y-90500000D02*
X134028571Y-90357142D01*
X134028571Y-90071428D01*
X133957142Y-89928571D01*
X133814285Y-89857142D01*
X133242857Y-89857142D01*
X133100000Y-89928571D01*
X133028571Y-90071428D01*
X133028571Y-90357142D01*
X133100000Y-90500000D01*
X133242857Y-90571428D01*
X133385714Y-90571428D01*
X133528571Y-89857142D01*
X133242857Y-92357142D02*
X133242857Y-92857142D01*
X134028571Y-93071428D02*
X134028571Y-92357142D01*
X132528571Y-92357142D01*
X132528571Y-93071428D01*
X133028571Y-93714285D02*
X134028571Y-93714285D01*
X133171428Y-93714285D02*
X133100000Y-93785714D01*
X133028571Y-93928571D01*
X133028571Y-94142857D01*
X133100000Y-94285714D01*
X133242857Y-94357142D01*
X134028571Y-94357142D01*
X133028571Y-95714285D02*
X134242857Y-95714285D01*
X134385714Y-95642857D01*
X134457142Y-95571428D01*
X134528571Y-95428571D01*
X134528571Y-95214285D01*
X134457142Y-95071428D01*
X133957142Y-95714285D02*
X134028571Y-95571428D01*
X134028571Y-95285714D01*
X133957142Y-95142857D01*
X133885714Y-95071428D01*
X133742857Y-94999999D01*
X133314285Y-94999999D01*
X133171428Y-95071428D01*
X133100000Y-95142857D01*
X133028571Y-95285714D01*
X133028571Y-95571428D01*
X133100000Y-95714285D01*
X134028571Y-96428571D02*
X133028571Y-96428571D01*
X132528571Y-96428571D02*
X132600000Y-96357142D01*
X132671428Y-96428571D01*
X132600000Y-96499999D01*
X132528571Y-96428571D01*
X132671428Y-96428571D01*
X133028571Y-97142857D02*
X134028571Y-97142857D01*
X133171428Y-97142857D02*
X133100000Y-97214285D01*
X133028571Y-97357142D01*
X133028571Y-97571428D01*
X133100000Y-97714285D01*
X133242857Y-97785714D01*
X134028571Y-97785714D01*
X133957142Y-99071428D02*
X134028571Y-98928571D01*
X134028571Y-98642857D01*
X133957142Y-98499999D01*
X133814285Y-98428571D01*
X133242857Y-98428571D01*
X133100000Y-98499999D01*
X133028571Y-98642857D01*
X133028571Y-98928571D01*
X133100000Y-99071428D01*
X133242857Y-99142857D01*
X133385714Y-99142857D01*
X133528571Y-98428571D01*
X133957142Y-100357142D02*
X134028571Y-100214285D01*
X134028571Y-99928571D01*
X133957142Y-99785714D01*
X133814285Y-99714285D01*
X133242857Y-99714285D01*
X133100000Y-99785714D01*
X133028571Y-99928571D01*
X133028571Y-100214285D01*
X133100000Y-100357142D01*
X133242857Y-100428571D01*
X133385714Y-100428571D01*
X133528571Y-99714285D01*
X134028571Y-101071428D02*
X133028571Y-101071428D01*
X133314285Y-101071428D02*
X133171428Y-101142857D01*
X133100000Y-101214285D01*
X133028571Y-101357142D01*
X133028571Y-101499999D01*
X134028571Y-101999999D02*
X133028571Y-101999999D01*
X132528571Y-101999999D02*
X132600000Y-101928571D01*
X132671428Y-101999999D01*
X132600000Y-102071428D01*
X132528571Y-101999999D01*
X132671428Y-101999999D01*
X133028571Y-102714285D02*
X134028571Y-102714285D01*
X133171428Y-102714285D02*
X133100000Y-102785714D01*
X133028571Y-102928571D01*
X133028571Y-103142857D01*
X133100000Y-103285714D01*
X133242857Y-103357142D01*
X134028571Y-103357142D01*
X133028571Y-104714285D02*
X134242857Y-104714285D01*
X134385714Y-104642857D01*
X134457142Y-104571428D01*
X134528571Y-104428571D01*
X134528571Y-104214285D01*
X134457142Y-104071428D01*
X133957142Y-104714285D02*
X134028571Y-104571428D01*
X134028571Y-104285714D01*
X133957142Y-104142857D01*
X133885714Y-104071428D01*
X133742857Y-103999999D01*
X133314285Y-103999999D01*
X133171428Y-104071428D01*
X133100000Y-104142857D01*
X133028571Y-104285714D01*
X133028571Y-104571428D01*
X133100000Y-104714285D01*
D11*
X164084000Y-96266000D02*
G75*
G03X164084000Y-96266000I-25400000J0D01*
G01*
D10*
X148957142Y-103078571D02*
X148028571Y-103078571D01*
X148528571Y-103650000D01*
X148314285Y-103650000D01*
X148171428Y-103721428D01*
X148100000Y-103792857D01*
X148028571Y-103935714D01*
X148028571Y-104292857D01*
X148100000Y-104435714D01*
X148171428Y-104507142D01*
X148314285Y-104578571D01*
X148742857Y-104578571D01*
X148885714Y-104507142D01*
X148957142Y-104435714D01*
X147600000Y-103078571D02*
X147100000Y-104578571D01*
X146600000Y-103078571D01*
X146242857Y-103078571D02*
X145314285Y-103078571D01*
X145814285Y-103650000D01*
X145600000Y-103650000D01*
X145457142Y-103721428D01*
X145385714Y-103792857D01*
X145314285Y-103935714D01*
X145314285Y-104292857D01*
X145385714Y-104435714D01*
X145457142Y-104507142D01*
X145600000Y-104578571D01*
X146028571Y-104578571D01*
X146171428Y-104507142D01*
X146242857Y-104435714D01*
X148907142Y-102078571D02*
X148907142Y-100578571D01*
X148550000Y-100578571D01*
X148335714Y-100650000D01*
X148192857Y-100792857D01*
X148121428Y-100935714D01*
X148050000Y-101221428D01*
X148050000Y-101435714D01*
X148121428Y-101721428D01*
X148192857Y-101864285D01*
X148335714Y-102007142D01*
X148550000Y-102078571D01*
X148907142Y-102078571D01*
X147192857Y-101221428D02*
X147335714Y-101150000D01*
X147407142Y-101078571D01*
X147478571Y-100935714D01*
X147478571Y-100864285D01*
X147407142Y-100721428D01*
X147335714Y-100650000D01*
X147192857Y-100578571D01*
X146907142Y-100578571D01*
X146764285Y-100650000D01*
X146692857Y-100721428D01*
X146621428Y-100864285D01*
X146621428Y-100935714D01*
X146692857Y-101078571D01*
X146764285Y-101150000D01*
X146907142Y-101221428D01*
X147192857Y-101221428D01*
X147335714Y-101292857D01*
X147407142Y-101364285D01*
X147478571Y-101507142D01*
X147478571Y-101792857D01*
X147407142Y-101935714D01*
X147335714Y-102007142D01*
X147192857Y-102078571D01*
X146907142Y-102078571D01*
X146764285Y-102007142D01*
X146692857Y-101935714D01*
X146621428Y-101792857D01*
X146621428Y-101507142D01*
X146692857Y-101364285D01*
X146764285Y-101292857D01*
X146907142Y-101221428D01*
X148907142Y-99478571D02*
X148907142Y-97978571D01*
X148550000Y-97978571D01*
X148335714Y-98050000D01*
X148192857Y-98192857D01*
X148121428Y-98335714D01*
X148050000Y-98621428D01*
X148050000Y-98835714D01*
X148121428Y-99121428D01*
X148192857Y-99264285D01*
X148335714Y-99407142D01*
X148550000Y-99478571D01*
X148907142Y-99478571D01*
X147550000Y-97978571D02*
X146550000Y-97978571D01*
X147192857Y-99478571D01*
X148907142Y-97078571D02*
X148907142Y-95578571D01*
X148550000Y-95578571D01*
X148335714Y-95650000D01*
X148192857Y-95792857D01*
X148121428Y-95935714D01*
X148050000Y-96221428D01*
X148050000Y-96435714D01*
X148121428Y-96721428D01*
X148192857Y-96864285D01*
X148335714Y-97007142D01*
X148550000Y-97078571D01*
X148907142Y-97078571D01*
X146764285Y-95578571D02*
X147050000Y-95578571D01*
X147192857Y-95650000D01*
X147264285Y-95721428D01*
X147407142Y-95935714D01*
X147478571Y-96221428D01*
X147478571Y-96792857D01*
X147407142Y-96935714D01*
X147335714Y-97007142D01*
X147192857Y-97078571D01*
X146907142Y-97078571D01*
X146764285Y-97007142D01*
X146692857Y-96935714D01*
X146621428Y-96792857D01*
X146621428Y-96435714D01*
X146692857Y-96292857D01*
X146764285Y-96221428D01*
X146907142Y-96150000D01*
X147192857Y-96150000D01*
X147335714Y-96221428D01*
X147407142Y-96292857D01*
X147478571Y-96435714D01*
X148907142Y-94578571D02*
X148907142Y-93078571D01*
X148550000Y-93078571D01*
X148335714Y-93150000D01*
X148192857Y-93292857D01*
X148121428Y-93435714D01*
X148050000Y-93721428D01*
X148050000Y-93935714D01*
X148121428Y-94221428D01*
X148192857Y-94364285D01*
X148335714Y-94507142D01*
X148550000Y-94578571D01*
X148907142Y-94578571D01*
X146692857Y-93078571D02*
X147407142Y-93078571D01*
X147478571Y-93792857D01*
X147407142Y-93721428D01*
X147264285Y-93650000D01*
X146907142Y-93650000D01*
X146764285Y-93721428D01*
X146692857Y-93792857D01*
X146621428Y-93935714D01*
X146621428Y-94292857D01*
X146692857Y-94435714D01*
X146764285Y-94507142D01*
X146907142Y-94578571D01*
X147264285Y-94578571D01*
X147407142Y-94507142D01*
X147478571Y-94435714D01*
X148907142Y-91978571D02*
X148907142Y-90478571D01*
X148550000Y-90478571D01*
X148335714Y-90550000D01*
X148192857Y-90692857D01*
X148121428Y-90835714D01*
X148050000Y-91121428D01*
X148050000Y-91335714D01*
X148121428Y-91621428D01*
X148192857Y-91764285D01*
X148335714Y-91907142D01*
X148550000Y-91978571D01*
X148907142Y-91978571D01*
X147121428Y-90478571D02*
X146978571Y-90478571D01*
X146835714Y-90550000D01*
X146764285Y-90621428D01*
X146692857Y-90764285D01*
X146621428Y-91050000D01*
X146621428Y-91407142D01*
X146692857Y-91692857D01*
X146764285Y-91835714D01*
X146835714Y-91907142D01*
X146978571Y-91978571D01*
X147121428Y-91978571D01*
X147264285Y-91907142D01*
X147335714Y-91835714D01*
X147407142Y-91692857D01*
X147478571Y-91407142D01*
X147478571Y-91050000D01*
X147407142Y-90764285D01*
X147335714Y-90621428D01*
X147264285Y-90550000D01*
X147121428Y-90478571D01*
X148871428Y-88950000D02*
X148157142Y-88950000D01*
X149014285Y-89378571D02*
X148514285Y-87878571D01*
X148014285Y-89378571D01*
X147228571Y-87878571D02*
X147085714Y-87878571D01*
X146942857Y-87950000D01*
X146871428Y-88021428D01*
X146800000Y-88164285D01*
X146728571Y-88450000D01*
X146728571Y-88807142D01*
X146800000Y-89092857D01*
X146871428Y-89235714D01*
X146942857Y-89307142D01*
X147085714Y-89378571D01*
X147228571Y-89378571D01*
X147371428Y-89307142D01*
X147442857Y-89235714D01*
X147514285Y-89092857D01*
X147585714Y-88807142D01*
X147585714Y-88450000D01*
X147514285Y-88164285D01*
X147442857Y-88021428D01*
X147371428Y-87950000D01*
X147228571Y-87878571D01*
X147971428Y-86778571D02*
X148471428Y-86064285D01*
X148828571Y-86778571D02*
X148828571Y-85278571D01*
X148257142Y-85278571D01*
X148114285Y-85350000D01*
X148042857Y-85421428D01*
X147971428Y-85564285D01*
X147971428Y-85778571D01*
X148042857Y-85921428D01*
X148114285Y-85992857D01*
X148257142Y-86064285D01*
X148828571Y-86064285D01*
X147400000Y-86707142D02*
X147257142Y-86778571D01*
X146971428Y-86778571D01*
X146828571Y-86707142D01*
X146757142Y-86564285D01*
X146757142Y-86492857D01*
X146828571Y-86350000D01*
X146971428Y-86278571D01*
X147185714Y-86278571D01*
X147328571Y-86207142D01*
X147400000Y-86064285D01*
X147400000Y-85992857D01*
X147328571Y-85850000D01*
X147185714Y-85778571D01*
X146971428Y-85778571D01*
X146828571Y-85850000D01*
X146328571Y-85778571D02*
X145757142Y-85778571D01*
X146114285Y-85278571D02*
X146114285Y-86564285D01*
X146042857Y-86707142D01*
X145900000Y-86778571D01*
X145757142Y-86778571D01*
X130285714Y-103178571D02*
X131000000Y-103178571D01*
X131071428Y-103892857D01*
X131000000Y-103821428D01*
X130857142Y-103750000D01*
X130500000Y-103750000D01*
X130357142Y-103821428D01*
X130285714Y-103892857D01*
X130214285Y-104035714D01*
X130214285Y-104392857D01*
X130285714Y-104535714D01*
X130357142Y-104607142D01*
X130500000Y-104678571D01*
X130857142Y-104678571D01*
X131000000Y-104607142D01*
X131071428Y-104535714D01*
X129785714Y-103178571D02*
X129285714Y-104678571D01*
X128785714Y-103178571D01*
X129107142Y-100750000D02*
X129250000Y-100678571D01*
X129464285Y-100678571D01*
X129678571Y-100750000D01*
X129821428Y-100892857D01*
X129892857Y-101035714D01*
X129964285Y-101321428D01*
X129964285Y-101535714D01*
X129892857Y-101821428D01*
X129821428Y-101964285D01*
X129678571Y-102107142D01*
X129464285Y-102178571D01*
X129321428Y-102178571D01*
X129107142Y-102107142D01*
X129035714Y-102035714D01*
X129035714Y-101535714D01*
X129321428Y-101535714D01*
X131207142Y-99678571D02*
X131207142Y-98178571D01*
X130850000Y-98178571D01*
X130635714Y-98250000D01*
X130492857Y-98392857D01*
X130421428Y-98535714D01*
X130350000Y-98821428D01*
X130350000Y-99035714D01*
X130421428Y-99321428D01*
X130492857Y-99464285D01*
X130635714Y-99607142D01*
X130850000Y-99678571D01*
X131207142Y-99678571D01*
X129064285Y-98678571D02*
X129064285Y-99678571D01*
X129421428Y-98107142D02*
X129778571Y-99178571D01*
X128850000Y-99178571D01*
X131207142Y-97078571D02*
X131207142Y-95578571D01*
X130850000Y-95578571D01*
X130635714Y-95650000D01*
X130492857Y-95792857D01*
X130421428Y-95935714D01*
X130350000Y-96221428D01*
X130350000Y-96435714D01*
X130421428Y-96721428D01*
X130492857Y-96864285D01*
X130635714Y-97007142D01*
X130850000Y-97078571D01*
X131207142Y-97078571D01*
X129850000Y-95578571D02*
X128921428Y-95578571D01*
X129421428Y-96150000D01*
X129207142Y-96150000D01*
X129064285Y-96221428D01*
X128992857Y-96292857D01*
X128921428Y-96435714D01*
X128921428Y-96792857D01*
X128992857Y-96935714D01*
X129064285Y-97007142D01*
X129207142Y-97078571D01*
X129635714Y-97078571D01*
X129778571Y-97007142D01*
X129850000Y-96935714D01*
X131207142Y-94478571D02*
X131207142Y-92978571D01*
X130850000Y-92978571D01*
X130635714Y-93050000D01*
X130492857Y-93192857D01*
X130421428Y-93335714D01*
X130350000Y-93621428D01*
X130350000Y-93835714D01*
X130421428Y-94121428D01*
X130492857Y-94264285D01*
X130635714Y-94407142D01*
X130850000Y-94478571D01*
X131207142Y-94478571D01*
X129778571Y-93121428D02*
X129707142Y-93050000D01*
X129564285Y-92978571D01*
X129207142Y-92978571D01*
X129064285Y-93050000D01*
X128992857Y-93121428D01*
X128921428Y-93264285D01*
X128921428Y-93407142D01*
X128992857Y-93621428D01*
X129850000Y-94478571D01*
X128921428Y-94478571D01*
X131207142Y-91878571D02*
X131207142Y-90378571D01*
X130850000Y-90378571D01*
X130635714Y-90450000D01*
X130492857Y-90592857D01*
X130421428Y-90735714D01*
X130350000Y-91021428D01*
X130350000Y-91235714D01*
X130421428Y-91521428D01*
X130492857Y-91664285D01*
X130635714Y-91807142D01*
X130850000Y-91878571D01*
X131207142Y-91878571D01*
X128921428Y-91878571D02*
X129778571Y-91878571D01*
X129350000Y-91878571D02*
X129350000Y-90378571D01*
X129492857Y-90592857D01*
X129635714Y-90735714D01*
X129778571Y-90807142D01*
X130350000Y-89478571D02*
X130850000Y-88764285D01*
X131207142Y-89478571D02*
X131207142Y-87978571D01*
X130635714Y-87978571D01*
X130492857Y-88050000D01*
X130421428Y-88121428D01*
X130350000Y-88264285D01*
X130350000Y-88478571D01*
X130421428Y-88621428D01*
X130492857Y-88692857D01*
X130635714Y-88764285D01*
X131207142Y-88764285D01*
X129850000Y-87978571D02*
X128850000Y-89478571D01*
X128850000Y-87978571D02*
X129850000Y-89478571D01*
X131042857Y-85378571D02*
X130185714Y-85378571D01*
X130614285Y-86878571D02*
X130614285Y-85378571D01*
X129828571Y-85378571D02*
X128828571Y-86878571D01*
X128828571Y-85378571D02*
X129828571Y-86878571D01*
D11*
X137637611Y-114901247D02*
G75*
G02X139685500Y-114920500I1013889J-1079253D01*
G01*
X137164280Y-114673774D02*
G75*
G02X140401500Y-115020500I1497220J-1306726D01*
G01*
X139703506Y-117113568D02*
G75*
G02X137600500Y-117114500I-1052006J1133068D01*
G01*
X140379244Y-116984143D02*
G75*
G02X137151500Y-117300500I-1727744J1003643D01*
G01*
X137151500Y-117294500D02*
X137151500Y-117114500D01*
X137151500Y-114700500D02*
X137151500Y-114900500D01*
X137596000Y-75267000D02*
X137596000Y-75467000D01*
X137596000Y-77861000D02*
X137596000Y-77681000D01*
X140823744Y-77550643D02*
G75*
G02X137596000Y-77867000I-1727744J1003643D01*
G01*
X140148006Y-77680068D02*
G75*
G02X138045000Y-77681000I-1052006J1133068D01*
G01*
X137608780Y-75240274D02*
G75*
G02X140846000Y-75587000I1497220J-1306726D01*
G01*
X138082111Y-75467747D02*
G75*
G02X140130000Y-75487000I1013889J-1079253D01*
G01*
D12*
X135270000Y-101660000D02*
X136880000Y-101660000D01*
X135270000Y-101660000D02*
X135270000Y-99660000D01*
X135550000Y-89120000D02*
X135550000Y-101370000D01*
X141310000Y-89120000D02*
X135550000Y-89120000D01*
X141310000Y-101380000D02*
X141310000Y-89120000D01*
X135560000Y-101380000D02*
X141300000Y-101380000D01*
D11*
X127508000Y-83566000D02*
X132588000Y-83566000D01*
X132588000Y-83566000D02*
X132588000Y-81026000D01*
X132588000Y-81026000D02*
X127508000Y-81026000D01*
X127508000Y-81026000D02*
X127508000Y-83566000D01*
X125222000Y-106426000D02*
X125222000Y-101346000D01*
X125222000Y-101346000D02*
X122682000Y-101346000D01*
X122682000Y-101346000D02*
X122682000Y-106426000D01*
X122682000Y-106426000D02*
X125222000Y-106426000D01*
X146240500Y-108839000D02*
X143700500Y-108839000D01*
X146240500Y-113919000D02*
X146240500Y-108839000D01*
X143700500Y-113919000D02*
X146240500Y-113919000D01*
X143700500Y-108839000D02*
X143700500Y-113919000D01*
X146050000Y-81280000D02*
X140970000Y-81280000D01*
X140970000Y-81280000D02*
X140970000Y-83820000D01*
X140970000Y-83820000D02*
X146050000Y-83820000D01*
X146050000Y-83820000D02*
X146050000Y-81280000D01*
D13*
X121356478Y-91149693D02*
G75*
G03X120432000Y-90225000I1325522J2249693D01*
G01*
X119257000Y-91450000D02*
X120107000Y-92275000D01*
X115887385Y-96880467D02*
G75*
G03X116379000Y-97485000I1841615J995467D01*
G01*
X119085147Y-97492285D02*
G75*
G03X119579000Y-96885000I-1356147J1607285D01*
G01*
X116729000Y-94035000D02*
G75*
G03X115879000Y-94885000I1000000J-1850000D01*
G01*
X119579000Y-94885000D02*
G75*
G03X118729000Y-94035000I-1850000J-1000000D01*
G01*
X119079000Y-97485000D02*
X118829000Y-97485000D01*
X116379000Y-97485000D02*
X116629000Y-97485000D01*
X156145500Y-97352000D02*
X156570500Y-97352000D01*
X156145500Y-96802000D02*
X156145500Y-97352000D01*
X156145500Y-92127000D02*
X156620500Y-92127000D01*
X156145500Y-92702000D02*
X156145500Y-92127000D01*
X159195500Y-97352000D02*
X159195500Y-96927000D01*
X158620500Y-97352000D02*
X159195500Y-97352000D01*
X158570500Y-92127000D02*
X158570500Y-91452000D01*
X159195500Y-92127000D02*
X158570500Y-92127000D01*
X159195500Y-92652000D02*
X159195500Y-92127000D01*
D11*
X139998595Y-113406880D02*
X139998595Y-112406880D01*
X139760500Y-112406880D01*
X139617642Y-112454500D01*
X139522404Y-112549738D01*
X139474785Y-112644976D01*
X139427166Y-112835452D01*
X139427166Y-112978309D01*
X139474785Y-113168785D01*
X139522404Y-113264023D01*
X139617642Y-113359261D01*
X139760500Y-113406880D01*
X139998595Y-113406880D01*
X139046214Y-112502119D02*
X138998595Y-112454500D01*
X138903357Y-112406880D01*
X138665261Y-112406880D01*
X138570023Y-112454500D01*
X138522404Y-112502119D01*
X138474785Y-112597357D01*
X138474785Y-112692595D01*
X138522404Y-112835452D01*
X139093833Y-113406880D01*
X138474785Y-113406880D01*
X135643904Y-116466880D02*
X135643904Y-115466880D01*
X135072476Y-116466880D02*
X135501047Y-115895452D01*
X135072476Y-115466880D02*
X135643904Y-116038309D01*
X135993095Y-76969880D02*
X135993095Y-75969880D01*
X135755000Y-75969880D01*
X135612142Y-76017500D01*
X135516904Y-76112738D01*
X135469285Y-76207976D01*
X135421666Y-76398452D01*
X135421666Y-76541309D01*
X135469285Y-76731785D01*
X135516904Y-76827023D01*
X135612142Y-76922261D01*
X135755000Y-76969880D01*
X135993095Y-76969880D01*
X135088333Y-75969880D02*
X134469285Y-75969880D01*
X134802619Y-76350833D01*
X134659761Y-76350833D01*
X134564523Y-76398452D01*
X134516904Y-76446071D01*
X134469285Y-76541309D01*
X134469285Y-76779404D01*
X134516904Y-76874642D01*
X134564523Y-76922261D01*
X134659761Y-76969880D01*
X134945476Y-76969880D01*
X135040714Y-76922261D01*
X135088333Y-76874642D01*
X136366904Y-75293380D02*
X136366904Y-74293380D01*
X135795476Y-75293380D02*
X136224047Y-74721952D01*
X135795476Y-74293380D02*
X136366904Y-74864809D01*
X138191904Y-102012380D02*
X138191904Y-102821904D01*
X138144285Y-102917142D01*
X138096666Y-102964761D01*
X138001428Y-103012380D01*
X137810952Y-103012380D01*
X137715714Y-102964761D01*
X137668095Y-102917142D01*
X137620476Y-102821904D01*
X137620476Y-102012380D01*
X137191904Y-102107619D02*
X137144285Y-102060000D01*
X137049047Y-102012380D01*
X136810952Y-102012380D01*
X136715714Y-102060000D01*
X136668095Y-102107619D01*
X136620476Y-102202857D01*
X136620476Y-102298095D01*
X136668095Y-102440952D01*
X137239523Y-103012380D01*
X136620476Y-103012380D01*
X130214666Y-82748380D02*
X130548000Y-82272190D01*
X130786095Y-82748380D02*
X130786095Y-81748380D01*
X130405142Y-81748380D01*
X130309904Y-81796000D01*
X130262285Y-81843619D01*
X130214666Y-81938857D01*
X130214666Y-82081714D01*
X130262285Y-82176952D01*
X130309904Y-82224571D01*
X130405142Y-82272190D01*
X130786095Y-82272190D01*
X129262285Y-82748380D02*
X129833714Y-82748380D01*
X129548000Y-82748380D02*
X129548000Y-81748380D01*
X129643238Y-81891238D01*
X129738476Y-81986476D01*
X129833714Y-82034095D01*
X124340880Y-103592333D02*
X123864690Y-103259000D01*
X124340880Y-103020904D02*
X123340880Y-103020904D01*
X123340880Y-103401857D01*
X123388500Y-103497095D01*
X123436119Y-103544714D01*
X123531357Y-103592333D01*
X123674214Y-103592333D01*
X123769452Y-103544714D01*
X123817071Y-103497095D01*
X123864690Y-103401857D01*
X123864690Y-103020904D01*
X123436119Y-103973285D02*
X123388500Y-104020904D01*
X123340880Y-104116142D01*
X123340880Y-104354238D01*
X123388500Y-104449476D01*
X123436119Y-104497095D01*
X123531357Y-104544714D01*
X123626595Y-104544714D01*
X123769452Y-104497095D01*
X124340880Y-103925666D01*
X124340880Y-104544714D01*
X145359380Y-111212333D02*
X144883190Y-110879000D01*
X145359380Y-110640904D02*
X144359380Y-110640904D01*
X144359380Y-111021857D01*
X144407000Y-111117095D01*
X144454619Y-111164714D01*
X144549857Y-111212333D01*
X144692714Y-111212333D01*
X144787952Y-111164714D01*
X144835571Y-111117095D01*
X144883190Y-111021857D01*
X144883190Y-110640904D01*
X144359380Y-111545666D02*
X144359380Y-112164714D01*
X144740333Y-111831380D01*
X144740333Y-111974238D01*
X144787952Y-112069476D01*
X144835571Y-112117095D01*
X144930809Y-112164714D01*
X145168904Y-112164714D01*
X145264142Y-112117095D01*
X145311761Y-112069476D01*
X145359380Y-111974238D01*
X145359380Y-111688523D01*
X145311761Y-111593285D01*
X145264142Y-111545666D01*
X143676666Y-82938880D02*
X144010000Y-82462690D01*
X144248095Y-82938880D02*
X144248095Y-81938880D01*
X143867142Y-81938880D01*
X143771904Y-81986500D01*
X143724285Y-82034119D01*
X143676666Y-82129357D01*
X143676666Y-82272214D01*
X143724285Y-82367452D01*
X143771904Y-82415071D01*
X143867142Y-82462690D01*
X144248095Y-82462690D01*
X142819523Y-82272214D02*
X142819523Y-82938880D01*
X143057619Y-81891261D02*
X143295714Y-82605547D01*
X142676666Y-82605547D01*
X122713738Y-91225619D02*
X122808976Y-91178000D01*
X122904214Y-91082761D01*
X123047071Y-90939904D01*
X123142309Y-90892285D01*
X123237547Y-90892285D01*
X123189928Y-91130380D02*
X123285166Y-91082761D01*
X123380404Y-90987523D01*
X123428023Y-90797047D01*
X123428023Y-90463714D01*
X123380404Y-90273238D01*
X123285166Y-90178000D01*
X123189928Y-90130380D01*
X122999452Y-90130380D01*
X122904214Y-90178000D01*
X122808976Y-90273238D01*
X122761357Y-90463714D01*
X122761357Y-90797047D01*
X122808976Y-90987523D01*
X122904214Y-91082761D01*
X122999452Y-91130380D01*
X123189928Y-91130380D01*
X121808976Y-91130380D02*
X122380404Y-91130380D01*
X122094690Y-91130380D02*
X122094690Y-90130380D01*
X122189928Y-90273238D01*
X122285166Y-90368476D01*
X122380404Y-90416095D01*
X114561880Y-94003904D02*
X113561880Y-94003904D01*
X113561880Y-94242000D01*
X113609500Y-94384857D01*
X113704738Y-94480095D01*
X113799976Y-94527714D01*
X113990452Y-94575333D01*
X114133309Y-94575333D01*
X114323785Y-94527714D01*
X114419023Y-94480095D01*
X114514261Y-94384857D01*
X114561880Y-94242000D01*
X114561880Y-94003904D01*
X114561880Y-95527714D02*
X114561880Y-94956285D01*
X114561880Y-95242000D02*
X113561880Y-95242000D01*
X113704738Y-95146761D01*
X113799976Y-95051523D01*
X113847595Y-94956285D01*
X154697880Y-94065095D02*
X155507404Y-94065095D01*
X155602642Y-94112714D01*
X155650261Y-94160333D01*
X155697880Y-94255571D01*
X155697880Y-94446047D01*
X155650261Y-94541285D01*
X155602642Y-94588904D01*
X155507404Y-94636523D01*
X154697880Y-94636523D01*
X155697880Y-95636523D02*
X155697880Y-95065095D01*
X155697880Y-95350809D02*
X154697880Y-95350809D01*
X154840738Y-95255571D01*
X154935976Y-95160333D01*
X154983595Y-95065095D01*
M02*
