%TF.GenerationSoftware,KiCad,Pcbnew,5.0.2+dfsg1-1~bpo9+1*%
%TF.CreationDate,2019-05-08T05:56:57+00:00*%
%TF.ProjectId,coinPCB,636f696e-5043-4422-9e6b-696361645f70,v0.2*%
%TF.SameCoordinates,Original*%
%TF.FileFunction,Legend,Top*%
%TF.FilePolarity,Positive*%
%FSLAX46Y46*%
G04 Gerber Fmt 4.6, Leading zero omitted, Abs format (unit mm)*
G04 Created by KiCad (PCBNEW 5.0.2+dfsg1-1~bpo9+1) date Wed 08 May 2019 05:56:57 AM UTC*
%MOMM*%
%LPD*%
G01*
G04 APERTURE LIST*
%ADD10C,0.300000*%
%ADD11C,0.150000*%
G04 APERTURE END LIST*
D10*
X136076500Y-111453214D02*
X136076500Y-110738928D01*
X136505071Y-111596071D02*
X135005071Y-111096071D01*
X136505071Y-110596071D01*
X135505071Y-109453214D02*
X136719357Y-109453214D01*
X136862214Y-109524642D01*
X136933642Y-109596071D01*
X137005071Y-109738928D01*
X137005071Y-109953214D01*
X136933642Y-110096071D01*
X136433642Y-109453214D02*
X136505071Y-109596071D01*
X136505071Y-109881785D01*
X136433642Y-110024642D01*
X136362214Y-110096071D01*
X136219357Y-110167500D01*
X135790785Y-110167500D01*
X135647928Y-110096071D01*
X135576500Y-110024642D01*
X135505071Y-109881785D01*
X135505071Y-109596071D01*
X135576500Y-109453214D01*
X136505071Y-108738928D02*
X135505071Y-108738928D01*
X135005071Y-108738928D02*
X135076500Y-108810357D01*
X135147928Y-108738928D01*
X135076500Y-108667500D01*
X135005071Y-108738928D01*
X135147928Y-108738928D01*
X136505071Y-107810357D02*
X136433642Y-107953214D01*
X136290785Y-108024642D01*
X135005071Y-108024642D01*
X136433642Y-106667500D02*
X136505071Y-106810357D01*
X136505071Y-107096071D01*
X136433642Y-107238928D01*
X136290785Y-107310357D01*
X135719357Y-107310357D01*
X135576500Y-107238928D01*
X135505071Y-107096071D01*
X135505071Y-106810357D01*
X135576500Y-106667500D01*
X135719357Y-106596071D01*
X135862214Y-106596071D01*
X136005071Y-107310357D01*
X135719357Y-104810357D02*
X135719357Y-104310357D01*
X136505071Y-104096071D02*
X136505071Y-104810357D01*
X135005071Y-104810357D01*
X135005071Y-104096071D01*
X135505071Y-103453214D02*
X136505071Y-103453214D01*
X135647928Y-103453214D02*
X135576500Y-103381785D01*
X135505071Y-103238928D01*
X135505071Y-103024642D01*
X135576500Y-102881785D01*
X135719357Y-102810357D01*
X136505071Y-102810357D01*
X135505071Y-101453214D02*
X136719357Y-101453214D01*
X136862214Y-101524642D01*
X136933642Y-101596071D01*
X137005071Y-101738928D01*
X137005071Y-101953214D01*
X136933642Y-102096071D01*
X136433642Y-101453214D02*
X136505071Y-101596071D01*
X136505071Y-101881785D01*
X136433642Y-102024642D01*
X136362214Y-102096071D01*
X136219357Y-102167500D01*
X135790785Y-102167500D01*
X135647928Y-102096071D01*
X135576500Y-102024642D01*
X135505071Y-101881785D01*
X135505071Y-101596071D01*
X135576500Y-101453214D01*
X136505071Y-100738928D02*
X135505071Y-100738928D01*
X135005071Y-100738928D02*
X135076500Y-100810357D01*
X135147928Y-100738928D01*
X135076500Y-100667500D01*
X135005071Y-100738928D01*
X135147928Y-100738928D01*
X135505071Y-100024642D02*
X136505071Y-100024642D01*
X135647928Y-100024642D02*
X135576500Y-99953214D01*
X135505071Y-99810357D01*
X135505071Y-99596071D01*
X135576500Y-99453214D01*
X135719357Y-99381785D01*
X136505071Y-99381785D01*
X136433642Y-98096071D02*
X136505071Y-98238928D01*
X136505071Y-98524642D01*
X136433642Y-98667500D01*
X136290785Y-98738928D01*
X135719357Y-98738928D01*
X135576500Y-98667500D01*
X135505071Y-98524642D01*
X135505071Y-98238928D01*
X135576500Y-98096071D01*
X135719357Y-98024642D01*
X135862214Y-98024642D01*
X136005071Y-98738928D01*
X136433642Y-96810357D02*
X136505071Y-96953214D01*
X136505071Y-97238928D01*
X136433642Y-97381785D01*
X136290785Y-97453214D01*
X135719357Y-97453214D01*
X135576500Y-97381785D01*
X135505071Y-97238928D01*
X135505071Y-96953214D01*
X135576500Y-96810357D01*
X135719357Y-96738928D01*
X135862214Y-96738928D01*
X136005071Y-97453214D01*
X136505071Y-96096071D02*
X135505071Y-96096071D01*
X135790785Y-96096071D02*
X135647928Y-96024642D01*
X135576500Y-95953214D01*
X135505071Y-95810357D01*
X135505071Y-95667500D01*
X136505071Y-95167500D02*
X135505071Y-95167500D01*
X135005071Y-95167500D02*
X135076500Y-95238928D01*
X135147928Y-95167500D01*
X135076500Y-95096071D01*
X135005071Y-95167500D01*
X135147928Y-95167500D01*
X135505071Y-94453214D02*
X136505071Y-94453214D01*
X135647928Y-94453214D02*
X135576500Y-94381785D01*
X135505071Y-94238928D01*
X135505071Y-94024642D01*
X135576500Y-93881785D01*
X135719357Y-93810357D01*
X136505071Y-93810357D01*
X135505071Y-92453214D02*
X136719357Y-92453214D01*
X136862214Y-92524642D01*
X136933642Y-92596071D01*
X137005071Y-92738928D01*
X137005071Y-92953214D01*
X136933642Y-93096071D01*
X136433642Y-92453214D02*
X136505071Y-92596071D01*
X136505071Y-92881785D01*
X136433642Y-93024642D01*
X136362214Y-93096071D01*
X136219357Y-93167500D01*
X135790785Y-93167500D01*
X135647928Y-93096071D01*
X135576500Y-93024642D01*
X135505071Y-92881785D01*
X135505071Y-92596071D01*
X135576500Y-92453214D01*
X145855500Y-110115928D02*
X145855500Y-109401642D01*
X146284071Y-110258785D02*
X144784071Y-109758785D01*
X146284071Y-109258785D01*
X145284071Y-108758785D02*
X146284071Y-108758785D01*
X145426928Y-108758785D02*
X145355500Y-108687357D01*
X145284071Y-108544500D01*
X145284071Y-108330214D01*
X145355500Y-108187357D01*
X145498357Y-108115928D01*
X146284071Y-108115928D01*
X146284071Y-106758785D02*
X144784071Y-106758785D01*
X146212642Y-106758785D02*
X146284071Y-106901642D01*
X146284071Y-107187357D01*
X146212642Y-107330214D01*
X146141214Y-107401642D01*
X145998357Y-107473071D01*
X145569785Y-107473071D01*
X145426928Y-107401642D01*
X145355500Y-107330214D01*
X145284071Y-107187357D01*
X145284071Y-106901642D01*
X145355500Y-106758785D01*
X146284071Y-104901642D02*
X144784071Y-104901642D01*
X145284071Y-104187357D02*
X146284071Y-104187357D01*
X145426928Y-104187357D02*
X145355500Y-104115928D01*
X145284071Y-103973071D01*
X145284071Y-103758785D01*
X145355500Y-103615928D01*
X145498357Y-103544500D01*
X146284071Y-103544500D01*
X145284071Y-102830214D02*
X146284071Y-102830214D01*
X145426928Y-102830214D02*
X145355500Y-102758785D01*
X145284071Y-102615928D01*
X145284071Y-102401642D01*
X145355500Y-102258785D01*
X145498357Y-102187357D01*
X146284071Y-102187357D01*
X146284071Y-101258785D02*
X146212642Y-101401642D01*
X146141214Y-101473071D01*
X145998357Y-101544500D01*
X145569785Y-101544500D01*
X145426928Y-101473071D01*
X145355500Y-101401642D01*
X145284071Y-101258785D01*
X145284071Y-101044500D01*
X145355500Y-100901642D01*
X145426928Y-100830214D01*
X145569785Y-100758785D01*
X145998357Y-100758785D01*
X146141214Y-100830214D01*
X146212642Y-100901642D01*
X146284071Y-101044500D01*
X146284071Y-101258785D01*
X145284071Y-100258785D02*
X146284071Y-99901642D01*
X145284071Y-99544500D01*
X146284071Y-98330214D02*
X145498357Y-98330214D01*
X145355500Y-98401642D01*
X145284071Y-98544500D01*
X145284071Y-98830214D01*
X145355500Y-98973071D01*
X146212642Y-98330214D02*
X146284071Y-98473071D01*
X146284071Y-98830214D01*
X146212642Y-98973071D01*
X146069785Y-99044500D01*
X145926928Y-99044500D01*
X145784071Y-98973071D01*
X145712642Y-98830214D01*
X145712642Y-98473071D01*
X145641214Y-98330214D01*
X145284071Y-97830214D02*
X145284071Y-97258785D01*
X144784071Y-97615928D02*
X146069785Y-97615928D01*
X146212642Y-97544500D01*
X146284071Y-97401642D01*
X146284071Y-97258785D01*
X146284071Y-96758785D02*
X145284071Y-96758785D01*
X144784071Y-96758785D02*
X144855500Y-96830214D01*
X144926928Y-96758785D01*
X144855500Y-96687357D01*
X144784071Y-96758785D01*
X144926928Y-96758785D01*
X146284071Y-95830214D02*
X146212642Y-95973071D01*
X146141214Y-96044500D01*
X145998357Y-96115928D01*
X145569785Y-96115928D01*
X145426928Y-96044500D01*
X145355500Y-95973071D01*
X145284071Y-95830214D01*
X145284071Y-95615928D01*
X145355500Y-95473071D01*
X145426928Y-95401642D01*
X145569785Y-95330214D01*
X145998357Y-95330214D01*
X146141214Y-95401642D01*
X146212642Y-95473071D01*
X146284071Y-95615928D01*
X146284071Y-95830214D01*
X145284071Y-94687357D02*
X146284071Y-94687357D01*
X145426928Y-94687357D02*
X145355500Y-94615928D01*
X145284071Y-94473071D01*
X145284071Y-94258785D01*
X145355500Y-94115928D01*
X145498357Y-94044500D01*
X146284071Y-94044500D01*
D11*
X166751000Y-102870000D02*
G75*
G03X166751000Y-102870000I-25400000J0D01*
G01*
D10*
X149495571Y-93382571D02*
X148995571Y-92668285D01*
X148638428Y-93382571D02*
X148638428Y-91882571D01*
X149209857Y-91882571D01*
X149352714Y-91954000D01*
X149424142Y-92025428D01*
X149495571Y-92168285D01*
X149495571Y-92382571D01*
X149424142Y-92525428D01*
X149352714Y-92596857D01*
X149209857Y-92668285D01*
X148638428Y-92668285D01*
X150067000Y-93311142D02*
X150209857Y-93382571D01*
X150495571Y-93382571D01*
X150638428Y-93311142D01*
X150709857Y-93168285D01*
X150709857Y-93096857D01*
X150638428Y-92954000D01*
X150495571Y-92882571D01*
X150281285Y-92882571D01*
X150138428Y-92811142D01*
X150067000Y-92668285D01*
X150067000Y-92596857D01*
X150138428Y-92454000D01*
X150281285Y-92382571D01*
X150495571Y-92382571D01*
X150638428Y-92454000D01*
X151138428Y-92382571D02*
X151709857Y-92382571D01*
X151352714Y-91882571D02*
X151352714Y-93168285D01*
X151424142Y-93311142D01*
X151567000Y-93382571D01*
X151709857Y-93382571D01*
X149395571Y-95554000D02*
X150109857Y-95554000D01*
X149252714Y-95982571D02*
X149752714Y-94482571D01*
X150252714Y-95982571D01*
X151038428Y-94482571D02*
X151181285Y-94482571D01*
X151324142Y-94554000D01*
X151395571Y-94625428D01*
X151467000Y-94768285D01*
X151538428Y-95054000D01*
X151538428Y-95411142D01*
X151467000Y-95696857D01*
X151395571Y-95839714D01*
X151324142Y-95911142D01*
X151181285Y-95982571D01*
X151038428Y-95982571D01*
X150895571Y-95911142D01*
X150824142Y-95839714D01*
X150752714Y-95696857D01*
X150681285Y-95411142D01*
X150681285Y-95054000D01*
X150752714Y-94768285D01*
X150824142Y-94625428D01*
X150895571Y-94554000D01*
X151038428Y-94482571D01*
X149359857Y-98582571D02*
X149359857Y-97082571D01*
X149717000Y-97082571D01*
X149931285Y-97154000D01*
X150074142Y-97296857D01*
X150145571Y-97439714D01*
X150217000Y-97725428D01*
X150217000Y-97939714D01*
X150145571Y-98225428D01*
X150074142Y-98368285D01*
X149931285Y-98511142D01*
X149717000Y-98582571D01*
X149359857Y-98582571D01*
X151145571Y-97082571D02*
X151288428Y-97082571D01*
X151431285Y-97154000D01*
X151502714Y-97225428D01*
X151574142Y-97368285D01*
X151645571Y-97654000D01*
X151645571Y-98011142D01*
X151574142Y-98296857D01*
X151502714Y-98439714D01*
X151431285Y-98511142D01*
X151288428Y-98582571D01*
X151145571Y-98582571D01*
X151002714Y-98511142D01*
X150931285Y-98439714D01*
X150859857Y-98296857D01*
X150788428Y-98011142D01*
X150788428Y-97654000D01*
X150859857Y-97368285D01*
X150931285Y-97225428D01*
X151002714Y-97154000D01*
X151145571Y-97082571D01*
X149359857Y-101182571D02*
X149359857Y-99682571D01*
X149717000Y-99682571D01*
X149931285Y-99754000D01*
X150074142Y-99896857D01*
X150145571Y-100039714D01*
X150217000Y-100325428D01*
X150217000Y-100539714D01*
X150145571Y-100825428D01*
X150074142Y-100968285D01*
X149931285Y-101111142D01*
X149717000Y-101182571D01*
X149359857Y-101182571D01*
X151574142Y-99682571D02*
X150859857Y-99682571D01*
X150788428Y-100396857D01*
X150859857Y-100325428D01*
X151002714Y-100254000D01*
X151359857Y-100254000D01*
X151502714Y-100325428D01*
X151574142Y-100396857D01*
X151645571Y-100539714D01*
X151645571Y-100896857D01*
X151574142Y-101039714D01*
X151502714Y-101111142D01*
X151359857Y-101182571D01*
X151002714Y-101182571D01*
X150859857Y-101111142D01*
X150788428Y-101039714D01*
X149359857Y-103682571D02*
X149359857Y-102182571D01*
X149717000Y-102182571D01*
X149931285Y-102254000D01*
X150074142Y-102396857D01*
X150145571Y-102539714D01*
X150217000Y-102825428D01*
X150217000Y-103039714D01*
X150145571Y-103325428D01*
X150074142Y-103468285D01*
X149931285Y-103611142D01*
X149717000Y-103682571D01*
X149359857Y-103682571D01*
X151502714Y-102182571D02*
X151217000Y-102182571D01*
X151074142Y-102254000D01*
X151002714Y-102325428D01*
X150859857Y-102539714D01*
X150788428Y-102825428D01*
X150788428Y-103396857D01*
X150859857Y-103539714D01*
X150931285Y-103611142D01*
X151074142Y-103682571D01*
X151359857Y-103682571D01*
X151502714Y-103611142D01*
X151574142Y-103539714D01*
X151645571Y-103396857D01*
X151645571Y-103039714D01*
X151574142Y-102896857D01*
X151502714Y-102825428D01*
X151359857Y-102754000D01*
X151074142Y-102754000D01*
X150931285Y-102825428D01*
X150859857Y-102896857D01*
X150788428Y-103039714D01*
X149359857Y-106082571D02*
X149359857Y-104582571D01*
X149717000Y-104582571D01*
X149931285Y-104654000D01*
X150074142Y-104796857D01*
X150145571Y-104939714D01*
X150217000Y-105225428D01*
X150217000Y-105439714D01*
X150145571Y-105725428D01*
X150074142Y-105868285D01*
X149931285Y-106011142D01*
X149717000Y-106082571D01*
X149359857Y-106082571D01*
X150717000Y-104582571D02*
X151717000Y-104582571D01*
X151074142Y-106082571D01*
X149359857Y-108682571D02*
X149359857Y-107182571D01*
X149717000Y-107182571D01*
X149931285Y-107254000D01*
X150074142Y-107396857D01*
X150145571Y-107539714D01*
X150217000Y-107825428D01*
X150217000Y-108039714D01*
X150145571Y-108325428D01*
X150074142Y-108468285D01*
X149931285Y-108611142D01*
X149717000Y-108682571D01*
X149359857Y-108682571D01*
X151074142Y-107825428D02*
X150931285Y-107754000D01*
X150859857Y-107682571D01*
X150788428Y-107539714D01*
X150788428Y-107468285D01*
X150859857Y-107325428D01*
X150931285Y-107254000D01*
X151074142Y-107182571D01*
X151359857Y-107182571D01*
X151502714Y-107254000D01*
X151574142Y-107325428D01*
X151645571Y-107468285D01*
X151645571Y-107539714D01*
X151574142Y-107682571D01*
X151502714Y-107754000D01*
X151359857Y-107825428D01*
X151074142Y-107825428D01*
X150931285Y-107896857D01*
X150859857Y-107968285D01*
X150788428Y-108111142D01*
X150788428Y-108396857D01*
X150859857Y-108539714D01*
X150931285Y-108611142D01*
X151074142Y-108682571D01*
X151359857Y-108682571D01*
X151502714Y-108611142D01*
X151574142Y-108539714D01*
X151645571Y-108396857D01*
X151645571Y-108111142D01*
X151574142Y-107968285D01*
X151502714Y-107896857D01*
X151359857Y-107825428D01*
X147909857Y-109682571D02*
X148838428Y-109682571D01*
X148338428Y-110254000D01*
X148552714Y-110254000D01*
X148695571Y-110325428D01*
X148767000Y-110396857D01*
X148838428Y-110539714D01*
X148838428Y-110896857D01*
X148767000Y-111039714D01*
X148695571Y-111111142D01*
X148552714Y-111182571D01*
X148124142Y-111182571D01*
X147981285Y-111111142D01*
X147909857Y-111039714D01*
X149267000Y-109682571D02*
X149767000Y-111182571D01*
X150267000Y-109682571D01*
X150624142Y-109682571D02*
X151552714Y-109682571D01*
X151052714Y-110254000D01*
X151267000Y-110254000D01*
X151409857Y-110325428D01*
X151481285Y-110396857D01*
X151552714Y-110539714D01*
X151552714Y-110896857D01*
X151481285Y-111039714D01*
X151409857Y-111111142D01*
X151267000Y-111182571D01*
X150838428Y-111182571D01*
X150695571Y-111111142D01*
X150624142Y-111039714D01*
X131324142Y-91982571D02*
X132181285Y-91982571D01*
X131752714Y-93482571D02*
X131752714Y-91982571D01*
X132538428Y-91982571D02*
X133538428Y-93482571D01*
X133538428Y-91982571D02*
X132538428Y-93482571D01*
X132417000Y-96082571D02*
X131917000Y-95368285D01*
X131559857Y-96082571D02*
X131559857Y-94582571D01*
X132131285Y-94582571D01*
X132274142Y-94654000D01*
X132345571Y-94725428D01*
X132417000Y-94868285D01*
X132417000Y-95082571D01*
X132345571Y-95225428D01*
X132274142Y-95296857D01*
X132131285Y-95368285D01*
X131559857Y-95368285D01*
X132917000Y-94582571D02*
X133917000Y-96082571D01*
X133917000Y-94582571D02*
X132917000Y-96082571D01*
X131559857Y-98482571D02*
X131559857Y-96982571D01*
X131917000Y-96982571D01*
X132131285Y-97054000D01*
X132274142Y-97196857D01*
X132345571Y-97339714D01*
X132417000Y-97625428D01*
X132417000Y-97839714D01*
X132345571Y-98125428D01*
X132274142Y-98268285D01*
X132131285Y-98411142D01*
X131917000Y-98482571D01*
X131559857Y-98482571D01*
X133845571Y-98482571D02*
X132988428Y-98482571D01*
X133417000Y-98482571D02*
X133417000Y-96982571D01*
X133274142Y-97196857D01*
X133131285Y-97339714D01*
X132988428Y-97411142D01*
X131559857Y-101082571D02*
X131559857Y-99582571D01*
X131917000Y-99582571D01*
X132131285Y-99654000D01*
X132274142Y-99796857D01*
X132345571Y-99939714D01*
X132417000Y-100225428D01*
X132417000Y-100439714D01*
X132345571Y-100725428D01*
X132274142Y-100868285D01*
X132131285Y-101011142D01*
X131917000Y-101082571D01*
X131559857Y-101082571D01*
X132988428Y-99725428D02*
X133059857Y-99654000D01*
X133202714Y-99582571D01*
X133559857Y-99582571D01*
X133702714Y-99654000D01*
X133774142Y-99725428D01*
X133845571Y-99868285D01*
X133845571Y-100011142D01*
X133774142Y-100225428D01*
X132917000Y-101082571D01*
X133845571Y-101082571D01*
X131559857Y-103682571D02*
X131559857Y-102182571D01*
X131917000Y-102182571D01*
X132131285Y-102254000D01*
X132274142Y-102396857D01*
X132345571Y-102539714D01*
X132417000Y-102825428D01*
X132417000Y-103039714D01*
X132345571Y-103325428D01*
X132274142Y-103468285D01*
X132131285Y-103611142D01*
X131917000Y-103682571D01*
X131559857Y-103682571D01*
X132917000Y-102182571D02*
X133845571Y-102182571D01*
X133345571Y-102754000D01*
X133559857Y-102754000D01*
X133702714Y-102825428D01*
X133774142Y-102896857D01*
X133845571Y-103039714D01*
X133845571Y-103396857D01*
X133774142Y-103539714D01*
X133702714Y-103611142D01*
X133559857Y-103682571D01*
X133131285Y-103682571D01*
X132988428Y-103611142D01*
X132917000Y-103539714D01*
X131559857Y-106282571D02*
X131559857Y-104782571D01*
X131917000Y-104782571D01*
X132131285Y-104854000D01*
X132274142Y-104996857D01*
X132345571Y-105139714D01*
X132417000Y-105425428D01*
X132417000Y-105639714D01*
X132345571Y-105925428D01*
X132274142Y-106068285D01*
X132131285Y-106211142D01*
X131917000Y-106282571D01*
X131559857Y-106282571D01*
X133702714Y-105282571D02*
X133702714Y-106282571D01*
X133345571Y-104711142D02*
X132988428Y-105782571D01*
X133917000Y-105782571D01*
X132459857Y-107354000D02*
X132317000Y-107282571D01*
X132102714Y-107282571D01*
X131888428Y-107354000D01*
X131745571Y-107496857D01*
X131674142Y-107639714D01*
X131602714Y-107925428D01*
X131602714Y-108139714D01*
X131674142Y-108425428D01*
X131745571Y-108568285D01*
X131888428Y-108711142D01*
X132102714Y-108782571D01*
X132245571Y-108782571D01*
X132459857Y-108711142D01*
X132531285Y-108639714D01*
X132531285Y-108139714D01*
X132245571Y-108139714D01*
X132281285Y-109782571D02*
X131567000Y-109782571D01*
X131495571Y-110496857D01*
X131567000Y-110425428D01*
X131709857Y-110354000D01*
X132067000Y-110354000D01*
X132209857Y-110425428D01*
X132281285Y-110496857D01*
X132352714Y-110639714D01*
X132352714Y-110996857D01*
X132281285Y-111139714D01*
X132209857Y-111211142D01*
X132067000Y-111282571D01*
X131709857Y-111282571D01*
X131567000Y-111211142D01*
X131495571Y-111139714D01*
X132781285Y-109782571D02*
X133281285Y-111282571D01*
X133781285Y-109782571D01*
M02*
