M48
;DRILL file {KiCad 5.0.2+dfsg1-1~bpo9+1} date Wed 24 Apr 2019 06:15:14 AM UTC
;FORMAT={-:-/ absolute / inch / decimal}
FMAT,2
INCH,TZ
T1C0.0118
T2C0.0268
T3C0.0276
T4C0.0315
T5C0.0394
T6C0.0394
T7C0.0400
%
G90
G05
T1
X5.35Y-3.85
T2
X4.78Y-3.5
X4.83Y-3.45
X4.88Y-3.5
T3
X6.2065Y-3.631
X6.2075Y-3.73
X6.2075Y-3.83
T4
X5.45Y-3.6
X5.45Y-3.7
X5.45Y-3.8
X5.45Y-3.9
T5
X4.635Y-3.725
X4.635Y-3.825
T6
X5.5Y-3.25
X5.8Y-3.25
X4.88Y-3.94
X4.88Y-4.24
X5.7075Y-4.235
X5.7075Y-4.535
X4.97Y-3.24
X5.27Y-3.24
X5.4075Y-4.5675
X5.5075Y-4.5675
X5.425Y-3.015
X5.525Y-3.015
T7
X5.0193Y-3.3925
X5.0193Y-3.4925
X5.0193Y-3.5925
X5.0193Y-3.6925
X5.0193Y-3.7925
X5.0193Y-3.8925
X5.0193Y-3.9925
X5.0193Y-4.0925
X5.9193Y-3.3925
X5.9193Y-3.4925
X5.9193Y-3.5925
X5.9193Y-3.6925
X5.9193Y-3.7925
X5.9193Y-3.8925
X5.9193Y-3.9925
X5.9193Y-4.0925
T0
M30
